<svg xmlns="http://www.w3.org/2000/svg" xmlns:xlink="http://www.w3.org/1999/xlink" viewBox="0 0 245.7399 242.3368"><defs><radialGradient id="radial-gradient" cx="124.5715" cy="121.1684" r="121.1684" gradientUnits="userSpaceOnUse"><stop offset="0" stop-color="#f5f5f5"/><stop offset="1" stop-color="#c4d5d6"/></radialGradient><clipPath id="clip-path" transform="translate(-40.9285 -44.3316)"><circle cx="165.5" cy="165.5" r="121.1684" fill="none"/></clipPath></defs><title>1</title><g style="isolation:isolate"><g id="Layer_1" data-name="Layer 1"><circle cx="124.5715" cy="121.1684" r="121.1684" fill="url(#radial-gradient)"/><g clip-path="url(#clip-path)"><path d="M212.0733,242.4742a4.587,4.587,0,0,1-.6765,2.3337c-1.5254,2.5606-4.6672,2.96-7.2278,1.4437-1.04-.6174-2.2337-1.3166-3.5277-2.0793-9.8384-5.77-25.6153-14.7962-26.1647-13.4615-.8217,1.9886,15.1459,11.1869,25.1931,17.1389,1.639.9716,3.1145,1.857,4.34,2.6061a4.301,4.301,0,1,1-4.5991,7.2687c-1.7753-1.1577-4.0861-2.7014-6.6422-4.3948-9.4162-6.2518-22.1013-14.5465-23.0048-12.903-.8172,1.4846,9.8566,8.5127,18.95,14.4875q.8581.5721,1.698,1.1168a.0045.0045,0,0,1,.0046.0046c2.9828,1.9613,5.6933,3.7637,7.6228,5.1349a4.1059,4.1059,0,1,1-4.8034,6.66c-7.5865-5.5389-27.79-19.3318-28.7389-17.9153s18.6281,13.2526,24.8208,18.1151c1.3756,1.085,2.6786,2.9192.94,5.3846a2.9157,2.9157,0,0,1-1.5118,1.1486,2.8109,2.8109,0,0,1-.4267.109c-.0228.0045-.0454.009-.0727.0135a2.2423,2.2423,0,0,1-.2452.0273c-.0953.0045-.1861.0091-.2814.0091a5.0462,5.0462,0,0,1-1.6254-.3042c-.0908-.0318-.1771-.0636-.2633-.0953h-.0046q-.2587-.1023-.504-.218a8.9787,8.9787,0,0,1-1.4709-.8717c-6.8783-4.9941-26.2192-17.1207-32.1758-17.9244-5.4844-.7354-21.1751-6.0337-33.1337-16.199-.0046,0-.0046-.0046-.0091-.0046-9.3572-2.9919-50.26-13.7223-77.6049-19.5291V173.8257q2.6355,1.2667,5.321,2.5788c26.06,12.735,62.8268,31.32,69.76,31.2516,3.0055,1.2395,23.0183-7.4821,32.3483-5.9657,3.9454.64,11.7135.4631,19.6178.1589,10.7964-.4086,21.8288-1.0442,23.654-.118,2.5016,1.2622,3.0691,5.8659.3859,8.8986a7.649,7.649,0,0,1-2.8285,1.9886c-5.6752,2.3563-20.0128-.6311-20.2988,2.1928,0,0,.5175,3.6276,15.2775,9.8748a176.8424,176.8424,0,0,1,21.3521,10.9144c1.4892.899,2.8149,1.748,3.9408,2.5017A5.3763,5.3763,0,0,1,212.0733,242.4742Z" transform="translate(-40.9285 -44.3316)" fill="#f37960"/><path d="M220.409,217.313a4.6693,4.6693,0,0,1-.4177,1.9023c-1.2031,2.7286-4.2768,3.505-7.0054,2.3063-9.53-4.186-30.9046-13.4387-31.34-11.8633-.6719,2.4063,22.3736,11.7771,31.69,16.0538a4.3,4.3,0,0,1,2.22,5.4391,3.7609,3.7609,0,0,1-.1952.4359A4.299,4.299,0,0,1,209.64,233.48c-8.9077-4.3857-30.6185-15.8223-31.5083-13.6158C177.2461,222.071,200.06,232.368,208.7,237.067a4.1211,4.1211,0,0,1,1.7253,5.4028,4.2113,4.2113,0,0,1-.6493.9624,4.1082,4.1082,0,0,1-5.0486.8218c-8.1994-4.59-29.91-15.8541-30.6821-14.3331-.7672,1.5209,20.0855,10.9189,26.8139,15.005,1.2576.7627,2.5243,2.0612,2.0477,4.0271a4.9186,4.9186,0,0,1-.4677,1.2032,3.3938,3.3938,0,0,1-.3269.4993,1.372,1.372,0,0,1-.1271.15c-.0409.05-.0863.0953-.1317.1407-.0772.0727-.1543.1407-.236.2089-.0636.0453-.1272.0908-.1908.1316l-.15.0954-.15.0817a.0161.0161,0,0,0-.0091.0045c-.0544.0227-.1044.0455-.1544.0636a2.4017,2.4017,0,0,1-.3949.1407,4.2017,4.2017,0,0,1-1.511.0826,6.692,6.692,0,0,1-1.1677-.2369q-.2383-.0681-.4631-.15a9.09,9.09,0,0,1-1.3666-.6175c-7.4321-4.136-28.0851-13.8564-34.0917-13.9336-5.5344-.0772-21.7516-3.45-34.8408-12.1085h-.0091c-5.5571-1.0624-18.8369-2.5651-34.414-4.1179-13.8428-1.38-38.0968-6.449-51.7762-7.6476V167.5876c.3223.109.6492.2179.9761.3314,4.6037,1.5618,17.9342,6.8576,22.665,8.5284,25.0251,8.8305,50.0366,18.1559,56.2656,17.3387,3.1327.8717,21.9514-10.188,31.3994-9.8067,9.448.386,39.6352-6.3606,42.9631-5.153s4.2314,8.086-1.1214,11.1051c-5.3482,3.0192-19.9447,1.7752-19.8857,4.6082,0,0,.3224,1.2032,3.6321,3.0737a59.3211,59.3211,0,0,0,12.7169,4.8988c3.8455,1.1078,7.7227,2.4017,11.3729,3.7456a148.0757,148.0757,0,0,1,15.35,6.5377A5.23,5.23,0,0,1,220.409,217.313Z" transform="translate(-40.9285 -44.3316)" fill="#f37960"/><path d="M202.1123,250.6555a1.372,1.372,0,0,1-.1271.15c-.0409.05-.0863.0953-.1317.1407-.0772.0727-.1543.1407-.236.2089-.0636.0453-.1272.0908-.1908.1316l-.15.0954-.15.0817a.0161.0161,0,0,0-.0091.0045c-.0544.0227-.1044.0455-.1544.0636a3.1773,3.1773,0,0,1-.4.1362,5.0716,5.0716,0,0,1-2.6741-.15q-.2383-.0681-.4631-.15a9.09,9.09,0,0,1-1.3666-.6175c-7.4321-4.136-28.0851-13.8564-34.0917-13.9336-5.5344-.0772-21.7516-3.45-34.8408-12.1085h-.0091c-5.5571-1.0624-18.8369-2.5651-34.414-4.1179-13.8428-1.38-38.0968-6.449-51.7762-7.6476V201.47a28.2442,28.2442,0,0,0,6.6649,3.7911,45.3475,45.3475,0,0,0,4.808,1.6843c7.9088,2.32,24.6989,6.44,32.8711,7.0574,9.9746.7582,19.94,1.68,29.9421,1.975a107.2844,107.2844,0,0,1,11.2731.5085c4.2041.5629,7.1915,2.4834,10.306,5.2483,5.6842,5.0395,12.8713,9.5887,20.4169,11.1233a67.41,67.41,0,0,0,7.2869.7809,27.2,27.2,0,0,1,7.9406,2.034,68.5486,68.5486,0,0,1,14.2288,7.6274c3.5957,2.5606,7.3867,5.8794,11.7044,7.137.1634.0454.3268.0908.49.1226A8.9233,8.9233,0,0,0,202.1123,250.6555Z" transform="translate(-40.9285 -44.3316)" fill="#f37960" opacity="0.3" style="mix-blend-mode:multiply"/><path d="M118.22,215.4827a8.56,8.56,0,0,0,14.7794,8.34,10.7079,10.7079,0,0,0,15.2-5.4213,10.7323,10.7323,0,0,0,14.3837-7.163,8.5866,8.5866,0,0,0,4.777-2.4686,10.7418,10.7418,0,0,0,17.8721.6922,10.7636,10.7636,0,1,0-5.1437-19.404,6.1688,6.1688,0,0,0-9.1238-3.1477,6.1935,6.1935,0,0,0-2.3363-4.909,3.2727,3.2727,0,0,0-.2012-5.511,3.2812,3.2812,0,1,0-5.1422-.24,3.2207,3.2207,0,0,0-3.4269,3.0807,3.2227,3.2227,0,0,0-4.0912,2.8077,10.6269,10.6269,0,0,0-11.7117.5162,3.2785,3.2785,0,0,0-6.0842,2.272,6.17,6.17,0,0,0-5.3709,8.4,10.7408,10.7408,0,0,0-4.8862,12.8027,3.2637,3.2637,0,0,0-3.0326,4.1083A8.5508,8.5508,0,0,0,118.22,215.4827Z" transform="translate(-40.9285 -44.3316)" fill="#fff" opacity="0.6"/><path d="M196.3069,202.7258a10.7935,10.7935,0,0,0,.0326-6.6459,10.2035,10.2035,0,0,0-9.76-7.2138,10.1716,10.1716,0,0,0-5.9378,1.9568l-1.0056.7359-.4376-1.1832a5.3341,5.3341,0,0,0-7.7637-2.7194l-1.44.879.0871-1.6337a5.4093,5.4093,0,0,0-1.8916-4.3485l-.7565-.6383.7922-.4911a2.6222,2.6222,0,0,0,1.2093-2.2087,2.7618,2.7618,0,0,0-1.26-2.3027l-.5277-.3387.4081-.4047a2.7587,2.7587,0,0,0,.5592-2.9637,2.9088,2.9088,0,0,0-5.2537-.2769,2.935,2.935,0,0,0,.2213,3.109l.4518.6078-.7686-.0279a2.9442,2.9442,0,0,0-2.0775.7557,2.6816,2.6816,0,0,0-.89,1.9835l-.0011.5294-.5541-.1271a2.83,2.83,0,0,0-2.293.4608,2.612,2.612,0,0,0-.7747.874,2.4991,2.4991,0,0,0-.3218,1.1093l-.0508.832-.8373-.3857-1.3284-.612a9.8564,9.8564,0,0,0-1.3948-.4115,10.2107,10.2107,0,0,0-8.1592,1.7717l-.8268.6116-.5042-.9193a2.3354,2.3354,0,0,0-2.8789-1.0218,2.2736,2.2736,0,0,0-1.3859,2.6327l.3079,1.17-1.2592.0972a5.1021,5.1021,0,0,0-4.37,6.9449l.36.9192-.8638.4919a9.7888,9.7888,0,0,0-4.4826,11.4786l.415,1.3356-1.34.0129a2.3067,2.3067,0,0,0-2.2036,2.8579l.2338.97-.9485.1472a7.9171,7.9171,0,0,0-6.59,6.7228,8.26,8.26,0,0,0,.9289,5.0449,8.5209,8.5209,0,0,0,3.8536,3.6223l-.08.1994a8.6371,8.6371,0,0,1-4.4268-3.4274,8.7779,8.7779,0,0,1-1.4581-5.5613,9.2208,9.2208,0,0,1,2.2652-5.4228,9.3661,9.3661,0,0,1,5.1909-2.9545l-.7145,1.1173a4.1954,4.1954,0,0,1,.6275-3.5832,4.2987,4.2987,0,0,1,3.234-1.7752l-.9244,1.3483a11.7134,11.7134,0,0,1,5.29-14.1266l-.5033,1.4108a7.3735,7.3735,0,0,1-.46-3.3742,7.2786,7.2786,0,0,1,6.8325-6.48l-.9511,1.267a4.2979,4.2979,0,0,1,2.7275-4.9379,4.1839,4.1839,0,0,1,5.176,2.0048l-1.3307-.3076a11.3629,11.3629,0,0,1,9.55-1.6181,11.1821,11.1821,0,0,1,1.5456.56l1.4448.7743-.8878.4462a3.7582,3.7582,0,0,1,1.692-2.71,3.7908,3.7908,0,0,1,3.1008-.4611l-.555.4021a3.6856,3.6856,0,0,1,3.8863-3.4218l-.3167.58a3.653,3.653,0,0,1,3.1422-5.7415,3.7061,3.7061,0,0,1,2.6691,6.09l-.12-.7431a3.852,3.852,0,0,1,1.9534,3.1006,3.9177,3.9177,0,0,1-1.6011,3.41l.0358-1.1292a6.9966,6.9966,0,0,1,2.7806,5.4693l-1.3524-.7547a7.1218,7.1218,0,0,1,2.95-1.0963,6.83,6.83,0,0,1,3.1529.3142,7.0819,7.0819,0,0,1,2.7008,1.67,7.21,7.21,0,0,1,1.68,2.688l-1.443-.4473a11.5423,11.5423,0,0,1,7.0726-2.1525,11.2961,11.2961,0,0,1,10.6371,8.6935,10.7828,10.7828,0,0,1-.7376,6.9711Z" transform="translate(-40.9285 -44.3316)" fill="#fff"/><path d="M175.6555,179.5987a2.1081,2.1081,0,1,0-1.1745-2.74A2.108,2.108,0,0,0,175.6555,179.5987Z" transform="translate(-40.9285 -44.3316)" fill="#fff" opacity="0.6"/><path d="M175.1945,170.2875a1.3036,1.3036,0,1,0-1.6174-.8846A1.3035,1.3035,0,0,0,175.1945,170.2875Z" transform="translate(-40.9285 -44.3316)" fill="#fff" opacity="0.6"/><path d="M175.6555,179.5987a1.6942,1.6942,0,0,0,1.5557-.1542,1.5578,1.5578,0,0,0,.6883-1.2187,1.502,1.502,0,0,0-.3733-1.0507,1.8487,1.8487,0,0,0-1.552-.6167,1.5063,1.5063,0,0,0-.9918.5006,1.5544,1.5544,0,0,0-.3456,1.3545A1.69,1.69,0,0,0,175.6555,179.5987Zm0,0a2.7,2.7,0,0,1-1.6758-2.9408,2.6242,2.6242,0,0,1,1.2619-1.8088,2.7418,2.7418,0,0,1,3.9842,1.5976,2.6261,2.6261,0,0,1-.334,2.176A2.694,2.694,0,0,1,175.6555,179.5987Z" transform="translate(-40.9285 -44.3316)" fill="#fff"/><path d="M175.1945,170.2875a.9292.9292,0,0,0,.6489-.6957.7914.7914,0,0,0-.2772-.7715.6215.6215,0,0,0-.5563-.1163,2.2035,2.2035,0,0,0-.2464.112c-.0588.02-.1264.0007-.2633.0412a.6205.6205,0,0,0-.4049.3939.7889.7889,0,0,0,.1783.7992A.9253.9253,0,0,0,175.1945,170.2875Zm0,0a1.989,1.989,0,0,1-1.063.0225,1.792,1.792,0,0,1-1.0726-.7553,1.8222,1.8222,0,0,1-.19-1.59,1.9551,1.9551,0,0,1,3.0286-.8831,1.8235,1.8235,0,0,1,.6947,1.4382,1.7912,1.7912,0,0,1-.4918,1.2123A1.979,1.979,0,0,1,175.1945,170.2875Z" transform="translate(-40.9285 -44.3316)" fill="#fff"/><path d="M129.1272,211.3717a4.2756,4.2756,0,0,1-1.6638-2.3,5.0363,5.0363,0,0,1-.0271-2.97,5.2077,5.2077,0,0,1,1.6-2.4807,5.9716,5.9716,0,0,1,1.193-.7843,5.8751,5.8751,0,0,1,1.3639-.3962,11.3035,11.3035,0,0,1-.6652,1.1867c-.1925.3833-.43.7119-.5885,1.069a10.6161,10.6161,0,0,0-.8411,2.0065,9.0419,9.0419,0,0,0-.3689,2.1268A24.3128,24.3128,0,0,0,129.1272,211.3717Z" transform="translate(-40.9285 -44.3316)" fill="#fff"/><path d="M140.4969,189.4109a3.5219,3.5219,0,0,1,.765-2.3235,3.84,3.84,0,0,1,2.2168-1.4133,3.7307,3.7307,0,0,1,2.6153.3758,4.4994,4.4994,0,0,1,.9874.7578,4.5464,4.5464,0,0,1,.6663,1.0383,8.6557,8.6557,0,0,1-1.1646-.1084c-.36-.0134-.6892-.0845-1.0012-.0777a5.7227,5.7227,0,0,0-1.64.1117A11.9891,11.9891,0,0,0,140.4969,189.4109Z" transform="translate(-40.9285 -44.3316)" fill="#fff"/><path d="M166.2779,187.8041a3.5222,3.5222,0,0,1,1.8379-1.6143,3.8394,3.8394,0,0,1,2.6274-.0933,3.7305,3.7305,0,0,1,2.0632,1.6505,4.5,4.5,0,0,1,.4665,1.1539,4.5465,4.5465,0,0,1,.0474,1.2328,8.6612,8.6612,0,0,1-.9486-.6842c-.3034-.1942-.551-.4224-.8234-.5748a5.72,5.72,0,0,0-1.47-.7358A11.9877,11.9877,0,0,0,166.2779,187.8041Z" transform="translate(-40.9285 -44.3316)" fill="#fff"/><path d="M145.2945,190.3751a3.5233,3.5233,0,0,1,.765-2.3236,3.8406,3.8406,0,0,1,2.217-1.4133,3.7308,3.7308,0,0,1,2.6153.3758,3.6024,3.6024,0,0,1,1.6537,1.7962,8.6727,8.6727,0,0,1-1.1646-.1085c-.36-.0134-.6892-.0844-1.0012-.0777a5.72,5.72,0,0,0-1.64.1118A11.988,11.988,0,0,0,145.2945,190.3751Z" transform="translate(-40.9285 -44.3316)" fill="#fff"/><path d="M135.7844,205.0559a11.0912,11.0912,0,0,1,2.7593-4.8647,9.8262,9.8262,0,0,1,5.0535-2.9132,9.57,9.57,0,0,1,2.9817-.1609c.49.0788.9846.1306,1.46.2438.4633.1541.92.323,1.37.4975a5.6728,5.6728,0,0,1,1.2826.6341l1.2016.7456a21.2046,21.2046,0,0,1,2.0424,1.9c-.9033-.2824-1.716-.6553-2.5408-.9706l-1.2577-.381a6.103,6.103,0,0,0-1.2362-.3307c-.418-.07-.8286-.1466-1.2331-.2375l-1.2249-.0681a4.9,4.9,0,0,0-1.2028.0463l-.5977.045a4.6814,4.6814,0,0,0-.5824.1336,11.6591,11.6591,0,0,0-4.4081,2.0652A26.461,26.461,0,0,0,135.7844,205.0559Z" transform="translate(-40.9285 -44.3316)" fill="#fff"/><path d="M153.8178,183.84a3.0645,3.0645,0,0,1,1.3047-1.5665,2.9824,2.9824,0,0,1,2.2267-.3924,2.6211,2.6211,0,0,1,1.8093,1.5025,3.5806,3.5806,0,0,1,.2626,1.0257,3.8764,3.8764,0,0,1-.1274,1.03,6.4273,6.4273,0,0,1-.7194-.6647c-.2323-.1848-.4162-.3963-.6181-.5334a2.3871,2.3871,0,0,0-1.0372-.5324,4.0613,4.0613,0,0,0-1.2892-.0537Z" transform="translate(-40.9285 -44.3316)" fill="#fff"/><path d="M176.4493,191.3788a3.0645,3.0645,0,0,1,1.3048-1.5664,2.9824,2.9824,0,0,1,2.2267-.3924,2.621,2.621,0,0,1,1.8093,1.5024,3.5757,3.5757,0,0,1,.2626,1.0257,3.8712,3.8712,0,0,1-.1273,1.03,6.4179,6.4179,0,0,1-.7194-.6647c-.2323-.1847-.4162-.3963-.6181-.5334a2.3876,2.3876,0,0,0-1.0373-.5323,4.0555,4.0555,0,0,0-1.2892-.0537Z" transform="translate(-40.9285 -44.3316)" fill="#fff"/><polygon points="151.15 178.001 133.321 168.535 116.464 168.535 122.661 107.811 123.678 97.845 133.321 97.337 142.969 97.845 145.947 127.024 151.15 178.001" fill="#668bac"/><path d="M186.8757,171.356v13.4933l-3.9136-31.7763s-.4177,14.315-.4177,14.7372c-.118-.395-3.1417-20.7438-3.1417-20.7438l-2.3745,8.0315-1.748-8.313L172.2066,190.72l-3.001-43.2355L167.2488,166.48,165.71,146.0177l-2.12,6.1245,1.0169-9.9655,9.6432-.5085,9.6478.5085Z" transform="translate(-40.9285 -44.3316)" fill="#173862"/><path d="M176.7567,159.6668a45.8693,45.8693,0,0,1,.8213,7.06c.1344,2.3481.13,4.6909.0479,7.0309-.0888,2.34-.26,4.6763-.5676,7.0079a45.3729,45.3729,0,0,1-1.3492,6.9787,45.3609,45.3609,0,0,1-.8255-7.06c-.1335-2.348-.13-4.6909-.0438-7.0307.0928-2.34.2627-4.6762.5718-7.0077A45.87,45.87,0,0,1,176.7567,159.6668Z" transform="translate(-40.9285 -44.3316)" fill="#fff"/><path d="M178.852,166.686a7.932,7.932,0,0,1,.7284,2.2,12.0989,12.0989,0,0,1,.2009,2.2,11.8764,11.8764,0,0,1-.1984,2.2,7.83,7.83,0,0,1-.7309,2.2,7.8332,7.8332,0,0,1-.731-2.2,11.8849,11.8849,0,0,1-.1983-2.2,12.09,12.09,0,0,1,.2009-2.2A7.9287,7.9287,0,0,1,178.852,166.686Z" transform="translate(-40.9285 -44.3316)" fill="#fff"/><path d="M183.7482,176.4292a78.18,78.18,0,0,1,1.7169,9.1448q.6231,4.5887.9448,9.1981c.2193,3.0726.32,6.1533.33,9.24a77.2976,77.2976,0,0,1-.45,9.2941,77.3176,77.3176,0,0,1-1.721-9.1445c-.4136-3.0592-.7363-6.1247-.9407-9.1983q-.3211-4.6095-.3263-9.2407A78.2021,78.2021,0,0,1,183.7482,176.4292Z" transform="translate(-40.9285 -44.3316)" fill="#fff"/><path d="M164.0987,168.1527a19.69,19.69,0,0,1,.6906,4.4729,31.9458,31.9458,0,0,1-.0974,4.4012,31.38,31.38,0,0,1-.6939,4.347,19.4359,19.4359,0,0,1-1.4894,4.2748,19.4357,19.4357,0,0,1-.6944-4.4732,31.3832,31.3832,0,0,1,.1011-4.4009,31.9485,31.9485,0,0,1,.6977-4.3467A19.6865,19.6865,0,0,1,164.0987,168.1527Z" transform="translate(-40.9285 -44.3316)" fill="#fff"/><path d="M165.6515,183.239a34.66,34.66,0,0,1,.8674,5.9866,58.4038,58.4038,0,0,1,.0765,5.9568,57.378,57.378,0,0,1-.5219,5.9342,34.2165,34.2165,0,0,1-1.32,5.9041,34.2169,34.2169,0,0,1-.8711-5.9868,57.3817,57.3817,0,0,1-.0728-5.9567,58.4344,58.4344,0,0,1,.5257-5.9341A34.6583,34.6583,0,0,1,165.6515,183.239Z" transform="translate(-40.9285 -44.3316)" fill="#fff"/><path d="M160.5265,203.3539c-.3243-.412-6.5867-16.8128-11.0253-15.61s0,14.8737,0,14.8737-4.2087-9.4767-8.431-7.75.8107,9.2089.8107,9.2089-9.3377-9.804-14.2679-5.35,6.4854,12.3223,6.4854,12.3223l52.7773,11.2837s27.3662,2.7966,25.7337-6.2575-16.5753-2.7683-16.5753-2.7683,22.7393-11.3146,18.318-18.4387-18.6,9.25-18.6,9.25,12.1905-14.05,3.8366-17.0656-11.0132,17.64-11.0132,17.64Z" transform="translate(-40.9285 -44.3316)" fill="#668bac"/><path d="M164.4692,207.617c-.198-.2515-4.0213-10.2648-6.7313-9.53s0,9.0809,0,9.0809-2.57-5.7858-5.1474-4.7314.495,5.6223.495,5.6223-5.7009-5.9856-8.7111-3.2666,3.96,7.5231,3.96,7.5231l32.2222,6.8891s16.708,1.7074,15.7113-3.82-10.12-1.69-10.12-1.69,13.8831-6.908,11.1838-11.2574-11.3557,5.6476-11.3557,5.6476,7.4426-8.5778,2.3424-10.4191-6.724,10.77-6.724,10.77Z" transform="translate(-40.9285 -44.3316)" fill="#0d72b9" opacity="0.3" style="mix-blend-mode:multiply"/><path d="M209.09,191.05a1.7074,1.7074,0,1,1-1.7074-1.7073A1.7074,1.7074,0,0,1,209.09,191.05Z" transform="translate(-40.9285 -44.3316)" fill="#668bac"/><path d="M211.8751,190.6357a.6631.6631,0,1,1-.6631-.663A.6631.6631,0,0,1,211.8751,190.6357Z" transform="translate(-40.9285 -44.3316)" fill="#668bac"/><path d="M199.7411,184.4693a.3979.3979,0,1,1-.3979-.3978A.3979.3979,0,0,1,199.7411,184.4693Z" transform="translate(-40.9285 -44.3316)" fill="#668bac"/><circle cx="102.701" cy="146.9506" r="1.3758" fill="#668bac"/><path d="M139.6589,191.1794a.46.46,0,1,1-.46-.46A.46.46,0,0,1,139.6589,191.1794Z" transform="translate(-40.9285 -44.3316)" fill="#668bac"/><path d="M133.8328,195.8261a.6963.6963,0,1,1-.6963-.6963A.6963.6963,0,0,1,133.8328,195.8261Z" transform="translate(-40.9285 -44.3316)" fill="#668bac"/><circle cx="173.1606" cy="163.3021" r="2.4198" fill="#668bac"/><path d="M184.3614,127.8088H164.14v-5.4159a27.5956,27.5956,0,0,1,27.5644-27.5644h93.42V115.05h-93.42a7.3515,7.3515,0,0,0-7.3432,7.3431Z" transform="translate(-40.9285 -44.3316)" fill="#afc2d0"/><g style="mix-blend-mode:multiply"><path d="M178.8114,126.3651c-4.6631.8483-10.3023-.2632-13.6845-3.7926a8.9645,8.9645,0,0,1-.9609-1.1962c-.0123.3379-.0258.6757-.0258,1.0166v5.4159h20.2212v-3.643A15.8545,15.8545,0,0,1,178.8114,126.3651Z" transform="translate(-40.9285 -44.3316)" fill="#afc2d0"/><path d="M228.82,94.8285H197.35l-.0072,15.0312a4.7505,4.7505,0,0,1-3.4484,4.5661l-2.1893.624h84.5386l-39.6627-2.3969a7.3646,7.3646,0,0,1-6.898-6.7778Z" transform="translate(-40.9285 -44.3316)" fill="#afc2d0"/></g><rect x="122.098" y="83.4773" width="22.4485" height="6.5088" fill="#576e7f"/><rect x="122.098" y="87.324" width="22.4485" height="2.6621" fill="#576e7f" style="mix-blend-mode:multiply"/><rect x="162.6367" y="39.788" width="19.2517" height="6.5088" fill="#576e7f"/><rect x="162.6367" y="39.788" width="19.2517" height="1.03" fill="#576e7f" style="mix-blend-mode:multiply"/><rect x="123.8248" y="89.9861" width="18.9949" height="7.1729" fill="#afc2d0"/><path d="M183.8957,136h-19.29a.5071.5071,0,0,1-.5071-.5071h0a.5071.5071,0,0,1,.5071-.5071h19.29a.5071.5071,0,0,1,.5072.5071h0A.5071.5071,0,0,1,183.8957,136Z" transform="translate(-40.9285 -44.3316)" fill="#576e7f"/><path d="M183.8957,138.0589h-19.29a.5072.5072,0,0,1-.5071-.5071h0a.5072.5072,0,0,1,.5071-.5072h19.29a.5072.5072,0,0,1,.5072.5072h0A.5072.5072,0,0,1,183.8957,138.0589Z" transform="translate(-40.9285 -44.3316)" fill="#576e7f"/><path d="M183.8957,140.1181h-19.29a.5072.5072,0,0,1-.5071-.5072h0a.5071.5071,0,0,1,.5071-.5071h19.29a.5071.5071,0,0,1,.5072.5071h0A.5072.5072,0,0,1,183.8957,140.1181Z" transform="translate(-40.9285 -44.3316)" fill="#576e7f"/><path d="M183.8957,142.1772h-19.29a.5071.5071,0,0,1-.5071-.5071h0a.5071.5071,0,0,1,.5071-.5071h19.29a.5071.5071,0,0,1,.5072.5071h0A.5071.5071,0,0,1,183.8957,142.1772Z" transform="translate(-40.9285 -44.3316)" fill="#576e7f"/><path d="M160.5276,46.2967h23.47a2.576,2.576,0,0,1,2.576,2.576v23.47a2.5759,2.5759,0,0,1-2.5759,2.5759h-23.47a2.5759,2.5759,0,0,1-2.5759-2.5759v-23.47a2.576,2.576,0,0,1,2.576-2.576Z" fill="#afc2d0"/><path d="M219.912,94.8806h-.7557a2.9623,2.9623,0,0,1,2.9624,2.9624v11.9307a2.9623,2.9623,0,0,1-2.9624,2.9623H207.2257a2.9624,2.9624,0,0,1-2.9624-2.9623V97.843a2.9624,2.9624,0,0,1,2.9624-2.9624H206.47a3.3377,3.3377,0,0,0-3.3377,3.3376V111.66a3.3377,3.3377,0,0,0,3.3377,3.3376H219.912A3.3376,3.3376,0,0,0,223.25,111.66V98.2182A3.3376,3.3376,0,0,0,219.912,94.8806Z" transform="translate(-40.9285 -44.3316)" fill="#afc2d0" style="mix-blend-mode:multiply"/><path d="M222.8169,84.12V82.96a3.1941,3.1941,0,0,0-3.194-3.194H206.7592a3.194,3.194,0,0,0-3.194,3.194v1.16Z" transform="translate(-40.9285 -44.3316)" fill="#afc2d0"/><rect x="169.5363" y="31.4455" width="5.4525" height="3.9887" fill="#576e7f"/><polygon points="169.536 32.632 169.536 31.445 174.989 31.445 169.536 32.632" fill="#576e7f" style="mix-blend-mode:multiply"/><path d="M181.2259,71.2082h0a4.52,4.52,0,0,1,4.52-4.52H209.695a6.2224,6.2224,0,0,1,6.2223,6.2224v2.8663H185.7948A4.5689,4.5689,0,0,1,181.2259,71.2082Z" transform="translate(-40.9285 -44.3316)" fill="#576e7f"/><rect x="144.8172" y="22.3568" width="2.0114" height="5.2113" fill="#afc2d0"/><path d="M209.4139,228.288a8.5605,8.5605,0,0,0-14.0576-9.5066,10.7088,10.7088,0,0,0-15.5882,4.1761,10.7323,10.7323,0,0,0-14.9151,5.978,8.587,8.587,0,0,0-4.9608,2.0748,10.7417,10.7417,0,0,0-17.7578-2.1333,10.7636,10.7636,0,1,0,3.56,19.7561,6.1689,6.1689,0,0,0,8.84,3.8742,6.1935,6.1935,0,0,0,1.9321,5.0817,3.2726,3.2726,0,0,0-.2444,5.5092,3.2811,3.2811,0,1,0,5.1059.6547,3.2208,3.2208,0,0,0,3.6645-2.7938,3.223,3.223,0,0,0,4.3046-2.4682,10.6277,10.6277,0,0,0,11.7152.4313,3.2785,3.2785,0,0,0,6.2478-1.7732,6.17,6.17,0,0,0,6.0317-7.9387,10.7411,10.7411,0,0,0,5.9041-12.3663,3.2638,3.2638,0,0,0,3.3545-3.85A8.5509,8.5509,0,0,0,209.4139,228.288Z" transform="translate(-40.9285 -44.3316)" fill="#fff" opacity="0.6"/><path d="M130.5514,234.6972a10.7934,10.7934,0,0,0-.5692,6.6215,10.2033,10.2033,0,0,0,9.1454,7.9784,10.172,10.172,0,0,0,6.0764-1.4709l1.0617-.6523.3407,1.2147a5.3339,5.3339,0,0,0,7.5187,3.3375l1.506-.76-.2188,1.6213a5.4091,5.4091,0,0,0,1.5343,4.487l.7024.6973-.8293.4256a2.6221,2.6221,0,0,0-1.3837,2.1038,2.7617,2.7617,0,0,0,1.07,2.3969l.4986.38-.4395.37a2.7586,2.7586,0,0,0-.7966,2.9088,2.9088,2.9088,0,0,0,5.2141.7,2.9352,2.9352,0,0,0,.03-3.1168l-.4013-.6423.7639.09a2.9433,2.9433,0,0,0,2.1317-.5855,2.6813,2.6813,0,0,0,1.0471-1.9051l.0437-.5277.5422.1715a2.8293,2.8293,0,0,0,2.3226-.274,2.6109,2.6109,0,0,0,.8428-.8087,2.4992,2.4992,0,0,0,.41-1.08l.1178-.8252.8034.452,1.2747.7173a9.8586,9.8586,0,0,0,1.357.5228,10.211,10.211,0,0,0,8.2756-1.107l.8734-.5428.4285.957a2.3352,2.3352,0,0,0,2.7869,1.2509,2.2736,2.2736,0,0,0,1.594-2.5121l-.2124-1.1911,1.2629.0048a5.102,5.102,0,0,0,4.9161-6.5693l-.285-.9454.9007-.42a9.7889,9.7889,0,0,0,5.3949-11.0791l-.3057-1.3648,1.3362.0953a2.3066,2.3066,0,0,0,2.4271-2.6706l-.1546-.986.9572-.07a7.9171,7.9171,0,0,0,7.1117-6.1686,8.2593,8.2593,0,0,0-.5186-5.1034,8.52,8.52,0,0,0-3.5484-3.9217l.0956-.1924a8.6376,8.6376,0,0,1,4.1356,3.7738,8.7783,8.7783,0,0,1,1.0042,5.6609,9.2222,9.2222,0,0,1-2.6957,5.2222,9.3658,9.3658,0,0,1-5.4126,2.5256l.8024-1.0559a4.1956,4.1956,0,0,1-.9148,3.5208,4.2988,4.2988,0,0,1-3.3668,1.5082l1.03-1.2693a11.7134,11.7134,0,0,1-6.4133,13.6533l.6157-1.3655a7.3731,7.3731,0,0,1,.1862,3.4,7.2789,7.2789,0,0,1-7.3335,5.9075l1.05-1.1861a4.2983,4.2983,0,0,1-3.1174,4.7016,4.1841,4.1841,0,0,1-4.9973-2.4163l1.3016.4141a11.3634,11.3634,0,0,1-9.65.8415,11.2,11.2,0,0,1-1.4954-.6825l-1.3775-.8885.9209-.373a3.7575,3.7575,0,0,1-1.9053,2.5646,3.7911,3.7911,0,0,1-3.128.2092l.5857-.3561a3.6852,3.6852,0,0,1-4.15,3.0969l.3625-.5523a3.6531,3.6531,0,0,1-3.5955,5.4691,3.7062,3.7062,0,0,1-2.1686-6.2861l.0592.75a3.852,3.852,0,0,1-1.6966-3.2482,3.9175,3.9175,0,0,1,1.8712-3.2694l-.1268,1.1226a6.9967,6.9967,0,0,1-2.33-5.6759l1.2871.8613a7.12,7.12,0,0,1-3.0294.8545,6.8305,6.8305,0,0,1-3.1173-.5678,7.0836,7.0836,0,0,1-2.5571-1.8825,7.211,7.211,0,0,1-1.457-2.8149l1.4022.5624a11.5436,11.5436,0,0,1-7.2233,1.5742,11.2961,11.2961,0,0,1-9.9-9.5241,10.7828,10.7828,0,0,1,1.2982-6.8888Z" transform="translate(-40.9285 -44.3316)" fill="#fff"/><path d="M149.2677,259.4165a2.1081,2.1081,0,1,0,.9493,2.826A2.1081,2.1081,0,0,0,149.2677,259.4165Z" transform="translate(-40.9285 -44.3316)" fill="#fff" opacity="0.6"/><path d="M148.9752,268.7345a1.3036,1.3036,0,1,0,1.5407,1.0123A1.3035,1.3035,0,0,0,148.9752,268.7345Z" transform="translate(-40.9285 -44.3316)" fill="#fff" opacity="0.6"/><path d="M149.2677,259.4165a1.6941,1.6941,0,0,0-1.5631.028,1.5581,1.5581,0,0,0-.7845,1.1592,1.5018,1.5018,0,0,0,.2873,1.0774,1.8489,1.8489,0,0,0,1.497.74,1.5064,1.5064,0,0,0,1.029-.419,1.5542,1.5542,0,0,0,.4539-1.3221A1.6894,1.6894,0,0,0,149.2677,259.4165Zm0,0a2.7,2.7,0,0,1,1.4328,3.0664,2.6243,2.6243,0,0,1-1.4039,1.7011,2.7418,2.7418,0,0,1-3.8421-1.9141,2.6257,2.6257,0,0,1,.5086-2.1419A2.6939,2.6939,0,0,1,149.2677,259.4165Z" transform="translate(-40.9285 -44.3316)" fill="#fff"/><path d="M148.9752,268.7345a.9291.9291,0,0,0-.703.641.7913.7913,0,0,0,.214.7913.6218.6218,0,0,0,.5451.161,2.1652,2.1652,0,0,0,.2547-.0919c.06-.0155.126.01.2657-.02a.62.62,0,0,0,.4354-.36.7887.7887,0,0,0-.1132-.811A.9251.9251,0,0,0,148.9752,268.7345Zm0,0a1.9889,1.9889,0,0,1,1.0613.0634,1.792,1.792,0,0,1,1.0081.8395,1.8222,1.8222,0,0,1,.0613,1.6,1.9551,1.9551,0,0,1-3.09.6356,1.8241,1.8241,0,0,1-.5763-1.49,1.7908,1.7908,0,0,1,.5881-1.1687A1.9787,1.9787,0,0,1,148.9752,268.7345Z" transform="translate(-40.9285 -44.3316)" fill="#fff"/><path d="M198.21,231.5047a4.2749,4.2749,0,0,1,1.4727,2.4267,5.0354,5.0354,0,0,1-.2129,2.9624,5.2067,5.2067,0,0,1-1.7951,2.3434,5.97,5.97,0,0,1-1.2524.6854,5.8732,5.8732,0,0,1-1.3915.2848,11.3364,11.3364,0,0,1,.7588-1.1291c.2229-.3665.4857-.6749.673-1.018a10.612,10.612,0,0,0,1-1.9321,9.04,9.04,0,0,0,.5395-2.09A24.3024,24.3024,0,0,0,198.21,231.5047Z" transform="translate(-40.9285 -44.3316)" fill="#fff"/><path d="M185.1038,252.4756a3.5228,3.5228,0,0,1-.95,2.2542,3.8392,3.8392,0,0,1-2.3238,1.23,3.73,3.73,0,0,1-2.5763-.5858A3.6024,3.6024,0,0,1,177.75,253.45a8.6511,8.6511,0,0,1,1.152.2022c.3577.0424.68.14.9916.1582a5.7182,5.7182,0,0,0,1.6438.0211A11.9824,11.9824,0,0,0,185.1038,252.4756Z" transform="translate(-40.9285 -44.3316)" fill="#fff"/><path d="M159.2773,251.9952a3.5219,3.5219,0,0,1-1.9623,1.4606,3.84,3.84,0,0,1-2.6263-.1192,3.73,3.73,0,0,1-1.9232-1.8117,3.6022,3.6022,0,0,1-.32-2.4205,8.6464,8.6464,0,0,1,.89.7587c.2868.218.5152.4654.7743.6394a5.7211,5.7211,0,0,0,1.4059.852A11.9862,11.9862,0,0,0,159.2773,251.9952Z" transform="translate(-40.9285 -44.3316)" fill="#fff"/><path d="M180.4,251.1271a3.5228,3.5228,0,0,1-.95,2.2542,3.84,3.84,0,0,1-2.3238,1.23,3.7308,3.7308,0,0,1-2.5765-.5858,4.5042,4.5042,0,0,1-.923-.835,4.5514,4.5514,0,0,1-.58-1.0888,8.6511,8.6511,0,0,1,1.152.2022c.3578.0424.68.14.9917.1582a5.7182,5.7182,0,0,0,1.6438.0211A11.9845,11.9845,0,0,0,180.4,251.1271Z" transform="translate(-40.9285 -44.3316)" fill="#fff"/><path d="M191.0644,237.2623a11.0916,11.0916,0,0,1-3.1432,4.626,9.8256,9.8256,0,0,1-5.2722,2.4955,9.5629,9.5629,0,0,1-2.9849-.08c-.4817-.1181-.9709-.21-1.4357-.3609-.4493-.1909-.8913-.3963-1.3256-.6065a5.6729,5.6729,0,0,1-1.2272-.7356l-1.1374-.84a21.2206,21.2206,0,0,1-1.8823-2.0591c.8776.3544,1.6575.7918,2.4541,1.1725l1.2229.4814a6.101,6.101,0,0,0,1.2055.43c.4108.104.814.213,1.21.3363l1.2154.1668a4.9017,4.9017,0,0,0,1.2026.0509l.5994.0034a4.6756,4.6756,0,0,0,.5913-.0861,11.66,11.66,0,0,0,4.56-1.7025A26.4607,26.4607,0,0,0,191.0644,237.2623Z" transform="translate(-40.9285 -44.3316)" fill="#fff"/><path d="M171.3765,256.953a3.064,3.064,0,0,1-1.4269,1.4559,2.9824,2.9824,0,0,1-2.2511.2113,2.62,2.62,0,0,1-1.682-1.6436,3.5761,3.5761,0,0,1-.179-1.0436,3.8747,3.8747,0,0,1,.21-1.016,6.4164,6.4164,0,0,1,.6634.7206c.2166.2029.3828.4287.573.5816a2.3886,2.3886,0,0,0,.9908.6144,4.0579,4.0579,0,0,0,1.2807.1576Z" transform="translate(-40.9285 -44.3316)" fill="#fff"/><path d="M149.4277,247.6107a3.0649,3.0649,0,0,1-1.427,1.456,2.9819,2.9819,0,0,1-2.2511.2112,2.62,2.62,0,0,1-1.682-1.6436,3.5761,3.5761,0,0,1-.179-1.0436,3.8747,3.8747,0,0,1,.21-1.016,6.4259,6.4259,0,0,1,.6634.7206c.2166.2029.3828.4287.573.5816a2.3884,2.3884,0,0,0,.9909.6144,4.06,4.06,0,0,0,1.2807.1577Z" transform="translate(-40.9285 -44.3316)" fill="#fff"/><path d="M217.8089,241.0842c-6.32-2.963-34.4972-12.0847-34.2366-12.9376.2586-.8463,28.9693,4.8293,33.1073,5.4743s6.9363-6.1379.1394-8.2146-30.96-8.1212-30.96-8.1212a161.4275,161.4275,0,0,0-16.7151-4.8649s-.9026-1.8916,1.8446-2.9386c2.7407-1.049,13.3226-5.2331,14.8766-9.8763,1.3115-3.92-.1762-6.2965-3.2693-5.5617a7.8724,7.8724,0,0,0-1.8889.754,21.034,21.034,0,0,1-3.4882,1.4683,41.4216,41.4216,0,0,1-9.13,1.5267c-3.0276.2945-7.5146,2.9762-10.3639,3.0524-2.8537.0677-7.3866-.1-11.3107,2.609s-6.81,4.6532-6.81,4.6532l-17.8722-5.4606h0c-10.7969-3.2953-34.8232-15.4373-57.1619-26.1992-4.4221-2.1293-17.3758-7.8383-21.5572-9.7542q-1.0419-.4767-2.0658-.9444c-.0045,0-.009-.0045-.0181-.009v48.22c24.6183,5.0342,56.6861,15.2076,74.1182,19.936h0l14.6353,4.4715a19.8368,19.8368,0,0,0,10.3852,7.48c6.8152,1.947,26.4153,9.6937,26.4153,9.6937s24.2216,11.4222,26.8249,12.0112c2.61.5909,5.5066-4.51,2.4245-6.584-3.0738-2.078-22.5715-11.2313-22.14-12.1315s31.5675,10.677,34.3839,10.9181,6.51-5.4423,1.57-8.19-29.4366-11.0581-29.1482-12.0021,30.924,9.2418,35.2665,10.5686C220,251.4559,224.1222,244.0452,217.8089,241.0842Z" transform="translate(-40.9285 -44.3316)" fill="#f58d77"/><path d="M181.1982,260.4261a228.6092,228.6092,0,0,0-21.9449-9.5913c-3.8152-1.4341-7.6322-2.8663-11.3954-4.4332-3.01-1.2531-6.4247-2.3992-9.0208-4.4134-2.4793-1.9234-3.45-5.18-6.259-6.7024-3.0478-1.6523-6.4582-2.1347-9.7465-3.0653-7.8316-2.2167-15.5774-4.7737-23.32-7.28-7.011-2.27-14.0819-4.4176-20.98-7.0165-6.3008-2.3739-12.5665-5.175-17.9575-9.2645a55.6827,55.6827,0,0,1-19.6455-29.3272V213.96c24.6183,5.0342,56.6861,15.2076,74.1182,19.936l14.6353,4.4715a19.8368,19.8368,0,0,0,10.3852,7.48c6.8152,1.947,26.4153,9.6937,26.4153,9.6937s24.2216,11.4222,26.8249,12.0112c1.3754.3114,2.8295-.9586,3.4471-2.5328C191.3424,265.3551,185.9181,262.7853,181.1982,260.4261Z" transform="translate(-40.9285 -44.3316)" fill="#fdcf9d" opacity="0.3" style="mix-blend-mode:multiply"/><path d="M212.8973,231.4181c-.5055-.7459,1.2339-4.94,1.5936-5.1031s5.0424,1.208,5.2148,1.7476-.7978,4.356-1.586,4.5545S213.3615,232.103,212.8973,231.4181Z" transform="translate(-40.9285 -44.3316)" fill="#fdcf9d" opacity="0.3" style="mix-blend-mode:screen"/><path d="M180.0967,200.7543c-.8766-.09-2.9178-4.0093-2.8783-4.4884a21.034,21.034,0,0,0,3.4882-1.4683,7.8724,7.8724,0,0,1,1.8889-.754c.8444,1.0339,2.0469,2.9459,1.7872,3.493C184.0243,198.2671,180.9237,200.8433,180.0967,200.7543Z" transform="translate(-40.9285 -44.3316)" fill="#fdcf9d" opacity="0.3" style="mix-blend-mode:screen"/><path d="M203.4888,256.4813c-.4057-.8045,1.8564-4.7409,2.2341-4.8569s4.8461,1.8438,4.948,2.4011-1.3491,4.2179-2.1563,4.3139S203.8614,257.22,203.4888,256.4813Z" transform="translate(-40.9285 -44.3316)" fill="#fdcf9d" opacity="0.3" style="mix-blend-mode:screen"/><path d="M189.8318,265.0225c-.33-.6544,1.51-3.8562,1.8172-3.9506s3.9419,1.5,4.0248,1.9531-1.0973,3.4308-1.7539,3.5089S190.1349,265.6234,189.8318,265.0225Z" transform="translate(-40.9285 -44.3316)" fill="#fdcf9d" opacity="0.3" style="mix-blend-mode:screen"/><path d="M211.6539,246.9109c-.454-.9014,2.0822-5.3092,2.5053-5.4389s5.4271,2.0682,5.5409,2.6925-1.5138,4.7236-2.418,4.8306S212.0709,247.7385,211.6539,246.9109Z" transform="translate(-40.9285 -44.3316)" fill="#fdcf9d" opacity="0.3" style="mix-blend-mode:screen"/></g></g></g></svg>