<svg xmlns="http://www.w3.org/2000/svg" xmlns:xlink="http://www.w3.org/1999/xlink" viewBox="0 0 484.9308 266.1509"><defs><radialGradient id="radial-gradient" cx="121.1684" cy="121.1684" r="121.1684" gradientUnits="userSpaceOnUse"><stop offset="0" stop-color="#f5f5f5"/><stop offset="1" stop-color="#c4d5d6"/></radialGradient><clipPath id="clip-path" transform="translate(-44.3316 -44.3316)"><circle cx="165.5" cy="165.5" r="121.1684" fill="none"/></clipPath></defs><title>4</title><g style="isolation:isolate"><g id="Layer_1" data-name="Layer 1"><circle cx="121.1684" cy="121.1684" r="121.1684" fill="url(#radial-gradient)"/><g clip-path="url(#clip-path)"><path d="M196.0416,247.7393,176.1584,142.5278a9.4978,9.4978,0,0,0-9.3326-7.7341H103.63L136.278,288.0769H514.3546V247.7393Z" transform="translate(-44.3316 -44.3316)" fill="#184173"/><path d="M132.0107,243.32l-19.048-100.7919a9.4977,9.4977,0,0,0-9.3326-7.7341H82.18l24.777,153.2832H451.1589V247.7393H137.3436A5.4274,5.4274,0,0,1,132.0107,243.32Z" transform="translate(-44.3316 -44.3316)" fill="#173862"/><rect x="83.6579" y="243.7453" width="20.8412" height="12.1013" fill="#162750"/><rect x="363.7626" y="243.7453" width="20.8411" height="12.1013" fill="#162750"/><rect x="146.8537" y="243.7453" width="20.8411" height="12.1013" fill="#162750"/><rect x="426.9583" y="243.7453" width="20.8411" height="12.1013" fill="#162750"/><rect x="406.8273" y="203.4076" width="63.1957" height="40.3377" fill="#184173"/><rect x="94.0786" y="249.7959" width="10.4205" height="6.0507" fill="#2f5b91"/><rect x="374.1831" y="249.7959" width="10.4206" height="6.0507" fill="#2f5b91"/><path d="M153.6205,167.1037H456.31a3.2673,3.2673,0,0,1,3.2673,3.2673V200.14a3.2674,3.2674,0,0,1-3.2674,3.2674H153.6205a3.2674,3.2674,0,0,1-3.2674-3.2674V170.371a3.2674,3.2674,0,0,1,3.2674-3.2674Z" fill="#678cb4"/><path d="M194.6848,242.3119a5.4272,5.4272,0,0,0,5.4272,5.4272H498.4812a5.4272,5.4272,0,0,0,5.4273-5.4272v-2.6557H194.6848Z" transform="translate(-44.3316 -44.3316)" fill="#5b80a7"/><path d="M90.4248,167.1037h302.689a3.2673,3.2673,0,0,1,3.2673,3.2673V200.14a3.2674,3.2674,0,0,1-3.2674,3.2674H90.4248a3.2673,3.2673,0,0,1-3.2673-3.2673V170.371a3.2673,3.2673,0,0,1,3.2673-3.2673Z" fill="#5b80a7"/><path d="M131.4891,239.6562v2.6557a5.4272,5.4272,0,0,0,5.4273,5.4272H435.2855a5.4272,5.4272,0,0,0,5.4273-5.4272v-2.6557Z" transform="translate(-44.3316 -44.3316)" fill="#436d9b"/><rect x="150.3532" y="154.6195" width="309.2238" height="12.4842" rx="1.1236" fill="#678cb4"/><rect x="87.1575" y="154.6195" width="309.2237" height="12.4842" rx="1.1236" fill="#5b80a7"/><path d="M194.8478,207.2711a5.4186,5.4186,0,0,0,5.2643,4.1642h298.369a5.4189,5.4189,0,0,0,5.2645-4.1642Z" transform="translate(-44.3316 -44.3316)" fill="#5b80a7"/><path d="M131.6519,207.2711a5.4188,5.4188,0,0,0,5.2644,4.1642H435.2855a5.4186,5.4186,0,0,0,5.2643-4.1642Z" transform="translate(-44.3316 -44.3316)" fill="#436d9b"/><path d="M176.5829,173.7723h-29.41A20.2831,20.2831,0,0,0,127.99,186.3617a20.2831,20.2831,0,0,0,19.1831,12.5894h29.41a20.2836,20.2836,0,0,0,19.1837-12.5894A20.2836,20.2836,0,0,0,176.5829,173.7723Z" transform="translate(-44.3316 -44.3316)" fill="#2f5b91"/><path d="M140.6258,164.7377c29.963-10.6991,50.932-5.9588,68.21,4.96,10.3582,6.5458,21.2115,16.6643,21.2115,29.2537H180.1982C150.5236,198.9511,140.6258,164.7377,140.6258,164.7377Z" transform="translate(-44.3316 -44.3316)" fill="#f2ece5"/><path d="M140.6258,164.7377s22.8332,14.2368,33.0609,23.69S153.0216,197.28,140.6258,164.7377Z" transform="translate(-44.3316 -44.3316)" fill="#fff"/><path d="M190.799,141.3865a12.6626,12.6626,0,0,1,3.7122-4.364c2.3157-1.1958,5.866-.1039,5.866-.1039s8.6082,4.0419,10.4668,6.1039,4.8383,9.4282,4.8383,9.4282-.9724,2.3869-2.612,2.9922-10.9417-6.4311-10.9417-6.4311-3.93,2.2819-7.8877.9726S189.15,145.3626,190.799,141.3865Z" transform="translate(-44.3316 -44.3316)" fill="#162750"/><path d="M237.0186,188.9691c1.8042-1.5672,3.5833-5.4923,4.5977-7.5831,1.133-2.3353-.7194-5.3286-.7194-5.3286l-21.1353-17.45,2.03,22.1232.7956.3239Z" transform="translate(-44.3316 -44.3316)" fill="#fccbaf"/><path d="M231.2282,181.0848a20.2979,20.2979,0,0,0,.3124-6.47,42.4806,42.4806,0,0,0-1.058-6.2046l-10.721-9.8025,2.03,22.1232.7956.3239,7.6253,4.1816C230.5413,183.8505,230.9236,182.4783,231.2282,181.0848Z" transform="translate(-44.3316 -44.3316)" fill="#f9b092"/><path d="M209.1252,147.2312s.7706-7.1336,8.35-3.4954,5.7665,9.4086,5.5263,11.2127c0,0,12.9758,7.9935,5.65,24.8744s-19.7756,9.4075-28.6383,6.2106-24.669-7.5342-21.8951-19.28C180.9165,154.9043,187.3769,138.6092,209.1252,147.2312Z" transform="translate(-44.3316 -44.3316)" fill="#f58d77"/><path d="M216.3245,170.9923c.19-.0588.5117.2965.748.9964a5.8975,5.8975,0,0,1-1.1031,5.4149c-.4914.5519-.9271.7532-1.0787.6249-.3189-.2849.4852-1.6615.8357-3.4946C216.1207,172.71,215.92,171.13,216.3245,170.9923Z" transform="translate(-44.3316 -44.3316)" fill="#5f3b18" opacity="0.09" style="mix-blend-mode:multiply"/><path d="M213.8332,145.0062c2.2976.1163,4.2052,1.7325,5.92,3.2661a3.609,3.609,0,0,1,1.2239,1.6083,1.2455,1.2455,0,0,1-.854,1.591c-.6569.0767-1.1533-.5426-1.5866-1.0415s-1.1846-.9565-1.704-.5478c-.2419.19-.3393.5156-.5638.726-.4886.4581-1.286.1787-1.8529-.1781a10.1182,10.1182,0,0,1-2.1208-1.7829,2.5828,2.5828,0,0,1-.8416-2.4507A2.3116,2.3116,0,0,1,213.8332,145.0062Z" transform="translate(-44.3316 -44.3316)" fill="#5f3b18" opacity="0.09" style="mix-blend-mode:multiply"/><path d="M212.32,175.4567c.0842.0414.1141.2629-.094.5662a1.8973,1.8973,0,0,1-1.3067.72,3.7386,3.7386,0,0,1-2.0707-.4337c-.6558-.3185-1.2837-.66-1.984-1.034-2.7547-1.492-4.96-2.8043-4.7952-3.1878.16-.377,2.6852.3416,5.5072,1.8694.6973.3726,1.3754.79,1.9216,1.1342a3.7331,3.7331,0,0,0,1.385.5933C211.7067,175.8026,212.1384,175.367,212.32,175.4567Z" transform="translate(-44.3316 -44.3316)" fill="#5f3b18" opacity="0.09" style="mix-blend-mode:multiply"/><path d="M175.1458,177.7068a23.1909,23.1909,0,0,1-2.58-7.2623,130.1888,130.1888,0,0,1-.7171-15.6941c.6781-11.7727,10.8615-14.972,16.121-15.813a31.255,31.255,0,0,1,5.9478.1028c3.9021.5239,7.699,1.1963,11.0818,3.2183a19.8758,19.8758,0,0,1,5.8893,5.7207,61.3482,61.3482,0,0,1,4.019,7.3664c-.5426.5722-1.1776.9817-1.72,1.5539-1.3388-1.1936-2.76-2.435-4.0985-3.6285a24.4269,24.4269,0,0,1-14.9548.35,15.2071,15.2071,0,0,1,.9488,11.9577,44.7008,44.7008,0,0,0-5.3637-6.6309c6.5115,13.3164-.63,22.965-.63,22.965s-1.6656.8444-9.145,0c-.2057-.0233-.38-.0669-.57-.1C177.4053,181.2391,175.8217,178.8733,175.1458,177.7068Z" transform="translate(-44.3316 -44.3316)" fill="#162750"/><path d="M218.06,198.9511,229.395,165.419a14.7778,14.7778,0,0,1,13.9995-10.0453H388.03c44.1024,0,75.6966,23.7929,75.6966,43.4714Z" transform="translate(-44.3316 -44.3316)" fill="#fff"/><path d="M218.06,198.9511l245.6672-.106a20.3568,20.3568,0,0,0-.7236-5.2284H219.863Z" transform="translate(-44.3316 -44.3316)" fill="#f2ece5"/><path d="M524.11,310.4825H53.4252A5.1522,5.1522,0,0,1,48.273,305.33h0a5.1521,5.1521,0,0,1,5.1522-5.152H524.11a5.152,5.152,0,0,1,5.1521,5.152h0A5.1521,5.1521,0,0,1,524.11,310.4825Z" transform="translate(-44.3316 -44.3316)" fill="#162750"/></g></g></g></svg>