<svg id="Layer_1" data-name="Layer 1" xmlns="http://www.w3.org/2000/svg" xmlns:xlink="http://www.w3.org/1999/xlink" viewBox="0 0 283.9841 242.3368"><defs><radialGradient id="radial-gradient" cx="140.9259" cy="121.1684" r="121.1684" gradientUnits="userSpaceOnUse"><stop offset="0" stop-color="#f5f5f5"/><stop offset="1" stop-color="#c4d5d6"/></radialGradient><clipPath id="clip-path" transform="translate(-24.5741 -44.3316)"><circle cx="165.5" cy="165.5" r="121.1684" fill="none"/></clipPath></defs><title>6</title><circle cx="140.9259" cy="121.1684" r="121.1684" fill="url(#radial-gradient)"/><g clip-path="url(#clip-path)"><path d="M308.5582,187.0714l-22.216-34.9061-37.2342,5.326a9.1614,9.1614,0,0,1-8.35-3.222,27.388,27.388,0,0,0-9.6322-7.3987L219.6747,141.6a50.25,50.25,0,0,1-13.0732-8.7237l-5.7687-5.3253a4.6513,4.6513,0,0,0-7.0942.9443h0a7.4061,7.4061,0,0,0-1.1106,4.5249h0a16.2537,16.2537,0,0,0,7.31,12.3174L205.13,148.73a5.8,5.8,0,0,1,2.6147,5.2306l-.008.123A12.0825,12.0825,0,0,1,202.02,163.6c-5.3519,3.2972-12.8249,7.9021-12.8249,7.9021l-10.9466,3.5045a27.469,27.469,0,0,1-4.4921,1.0321L161.3546,177.81a6.0482,6.0482,0,0,0-4.102,2.5217l-.1175.1678a3.9415,3.9415,0,0,0,1.22,5.6493l.0893.053a6.725,6.725,0,0,0,4.6258.8335c4.8344-.8737,15.0957-2.7152,15.0957-2.7152l-11.932,4.6356a6.8568,6.8568,0,0,0-3.6511,3.3273,3.5121,3.5121,0,0,0,1.7669,4.8012h0a11.23,11.23,0,0,0,6.556.6869l.8984-.1761-.0635.107a3.9593,3.9593,0,0,0,3.2489,5.9773,23.3131,23.3131,0,0,0,6.1474-.5762l18.15-4.178-11.2637,4.1768a5.2709,5.2709,0,0,0-3.1778,3.3051h0a2.6007,2.6007,0,0,0,1.3866,3.171,9.8224,9.8224,0,0,0,5.9882.7131l11.2493-2.2041q1.72-.3371,3.4081-.8125l19.4668-5.4842,13.0746-5.3587a25.7683,25.7683,0,0,0,7.0754-4.3457,8.659,8.659,0,0,1,5.2177-2.0959Z" transform="translate(-24.5741 -44.3316)" fill="#f58d77"/><path d="M207.7445,153.961l-.008.123A12.0829,12.0829,0,0,1,202.02,163.6c5.2-3.782,18.2162-2.4539,19.6793-4.0426,3.55-3.8549-12.9632-8.4756-17.7544-11.6014l1.1845.7741A5.8,5.8,0,0,1,207.7445,153.961Z" transform="translate(-24.5741 -44.3316)" fill="#f37960"/><path d="M253.7067,156.8335l-4.5987.6579a9.1593,9.1593,0,0,1-7.6412-2.4644,39.6419,39.6419,0,0,1,6.765,14.3759C247.465,163.4965,248.6629,158.2224,253.7067,156.8335Z" transform="translate(-24.5741 -44.3316)" fill="#f37960"/><path d="M219.148,190.5517c-1.9791-2.0278-4.6907-1.1345-6.83-3.0687-1.0148-.9175-1.7991-2.0566-2.8187-2.9688a31.3919,31.3919,0,0,0-3.59-2.2736c-2.3272-1.5842-2.7217-4.2993-4.6072-6.1882-1.67-1.6729-4.4384-1.5191-6.4208-2.68s-2.4143-2.68-1.9832-4.1513l-3.7029,2.2817c2.2439-.5615,2.1935,4.9534-1.2886,7.17s-12.2282,3.1508-16.0646,6.7837c3.4344-.6172,6.3237-1.1357,6.3237-1.1357s7.09-2.0093,11.9616-3.754l.0009,0,.0087-.0032.0151-.0054c2.2543-.854,5.0063-1.1641,6.882.4577a3.8539,3.8539,0,0,1,.6884.7673,2.3371,2.3371,0,0,1,.0534,2.4125,6.4533,6.4533,0,0,1-2.1592,2.2688c-6.3742,4.0568-25.92,9.5415-29.0395,9.7688-1.2169.0886-3.9957-1.278-4.34-1.9994a3.5056,3.5056,0,0,0,2.1126,2.8512h0a11.2311,11.2311,0,0,0,6.556.6869l.8984-.1761s1.4628-1.7312,8.2529-3.6438c3.43-.9662,14.569-5.2749,19.3962-7.0291,2.4582-.4794,6.1267-.6754,7.7631.7692,1.529,1.35,2.4349,2.616,1.4555,4.012a15.625,15.625,0,0,1-4.24,3.5188c-2.89,1.8208-12.2345,2.4886-15.7983,6.1552l10.6529-2.4522s6.9937-2.0178,11.8775-3.4029c2.4453-.6934,7.3381-1.764,10.1609.3509,2.0881,1.5644,3.3233,5.7073,1.982,6.7728l3.0371-.8556,13.0746-5.3587c.3015-.1235.6-.2539.8961-.3886C233.7272,198.2724,223.5574,195.07,219.148,190.5517Z" transform="translate(-24.5741 -44.3316)" fill="#f37960"/><path d="M250.5387,175.6845c.25,2.4142,1.1478,13.0028-2.7266,15.4687a8.6546,8.6546,0,0,1,3.9-1.1634l10.53-.5406C254.1056,188.8537,250.5206,175.51,250.5387,175.6845Z" transform="translate(-24.5741 -44.3316)" fill="#f37960"/><path d="M148.4617,148.0139,159.43,145.699c3.4488-1.01,5.7257-2.3631,7.2783-5.6039l.3477-.7257A2.5931,2.5931,0,0,0,164.19,135.71l-9.4326,1.96-13.9345,1.7215q-2.2467.2777-4.5124.3388l-15.5951.4207C130.1112,142.3308,139.5115,144.47,148.4617,148.0139Z" transform="translate(-24.5741 -44.3316)" fill="#f37960"/><path d="M159.5712,138.9656c3.6407-.5049,4.892-2.3431,5.4825-3.2922a2.6245,2.6245,0,0,0-.8642.0369l-8.463,1.758C155.66,138.7273,157.9049,139.1966,159.5712,138.9656Z" transform="translate(-24.5741 -44.3316)" fill="#f8cfb8"/><path d="M135.1163,153.6921l29.7578-.0356c3.8537-.301,6.55-1.223,8.9-4.2918l.5264-.6872a2.7893,2.7893,0,0,0-2.2088-4.4853l-10.3631-.0206-15.05-1.2656q-2.4265-.204-4.8253-.64l-19.9511-3.6274a18.165,18.165,0,0,0-4.303-.2613c-3.3617.1949-8.3021.6827-10.5148.7618Z" transform="translate(-24.5741 -44.3316)" fill="#f37960"/><path d="M166.5106,146.5992c3.9443.2727,5.6676-1.3862,6.4989-2.2549a2.821,2.821,0,0,0-.9179-.152l-9.2979-.0186C162.446,145.4845,164.7053,146.4744,166.5106,146.5992Z" transform="translate(-24.5741 -44.3316)" fill="#f9dac8"/><path d="M166.7866,159.9725l.5317-.513a2.4132,2.4132,0,0,0-1.2935-4.0673L125.181,141.4093a25.5523,25.5523,0,0,0-5.2612-1.2c-3.249-.3864-8.3089-.9971-8.4589-1.0688-1.7942.0071-3.4156-.0359-4.3764-.0016l-.3469.0232c-1.3463.0006-24.9777.3175-37.9765,3.896-2.1034.579-4.12,1.4332-6.289,1.2045l-37.898-5.5837L46.16,172.5953l15.274.0989a22.9407,22.9407,0,0,1,11.82,3.516c2.7309,1.6888,6.4351,6.9962,12.8564,8.0289,5.8255.9369,12.5453,6.9565,15.9365,10.35a2.6483,2.6483,0,0,0,4.056-.3723l.1521-.2208a5.2857,5.2857,0,0,0,.373-5.3519,20.81,20.81,0,0,0-6.549-7.4034,8.1343,8.1343,0,0,1-3.2824-6.2217c-.0907-3.223,3.3506-7.0836,5.639-7.5185l13.3485-2.9208a22.2538,22.2538,0,0,1,5.9881-.3158,7.6247,7.6247,0,0,0,3.8392-.7155l17.3111,2.8789a10.1157,10.1157,0,0,0,7.9751-2.0768l.5038-.4026a2.1014,2.1014,0,0,0,.2724-.265c.0224-.0256.0417-.0524.0625-.0788a1.9881,1.9881,0,0,0,.1571-.229c.0146-.025.03-.05.0429-.075a2.0088,2.0088,0,0,0,.2175-.6812h.0023l.0038-.0711h0a2.1091,2.1091,0,0,0-.0044-.47c-.0054-.0856-.01-.1707-.0232-.2544l5.7519,1.3771A11.6229,11.6229,0,0,0,166.7866,159.9725Z" transform="translate(-24.5741 -44.3316)" fill="#f58d77"/><path d="M106.1025,194.2172l.1521-.2208a5.2857,5.2857,0,0,0,.373-5.3519,20.81,20.81,0,0,0-6.549-7.4034,8.1343,8.1343,0,0,1-3.2824-6.2217c-.0907-3.223,3.3506-7.0836,5.639-7.5185l13.3485-2.9208a22.2538,22.2538,0,0,1,5.9881-.3158,7.6247,7.6247,0,0,0,3.8392-.7155l17.3111,2.8789a10.1157,10.1157,0,0,0,7.9751-2.0768l.5038-.4026a2.1014,2.1014,0,0,0,.2724-.265c.0224-.0256.0417-.0524.0625-.0788a1.9881,1.9881,0,0,0,.1571-.229c.0146-.025.03-.05.0429-.075a2.0088,2.0088,0,0,0,.2175-.6812h.0023l.0038-.0711h0a2.2649,2.2649,0,0,0-.0025-.27,8.6036,8.6036,0,0,1-5.9752,1.69c-4.7978-.6007-14.7678-2.1049-18.9071-3.9994-1.6541-.757-3.35,1.2057-7.0155.76-3.721-.4528-15.4089,1.1555-21.5541,3.391-15.0668,5.4808-25.6048,2.0231-30.22-1.8327-1.37-1.1441-14.2257-1.8737-30.3738-2.3388l8.049,12.6468,15.274.0989a22.9407,22.9407,0,0,1,11.82,3.516c2.7309,1.6888,6.4351,6.9962,12.8564,8.0289,5.8255.9369,12.5453,6.9565,15.9365,10.35A2.6483,2.6483,0,0,0,106.1025,194.2172Z" transform="translate(-24.5741 -44.3316)" fill="#f37960"/><path d="M100.0786,181.2411a8.1341,8.1341,0,0,1-3.2824-6.2217c-.0907-3.223,3.3506-7.0836,5.639-7.5185l7.0355-1.54s-20.2411,2.4359-18.2949,5.4142A51.0844,51.0844,0,0,0,100.0786,181.2411Z" transform="translate(-24.5741 -44.3316)" fill="#f58d77"/><path d="M156.4365,152.11c-.6612,2.0207.5721,4.5079,3.0411,5.6779a6.84,6.84,0,0,0,3.81.7977c1.5729-.2474,2.48-3.1367,2.5511-3.2569Z" transform="translate(-24.5741 -44.3316)" fill="#f9dac8"/><path d="M143.4518,157.2456c.0313,1.4658,2.1209,3.4553,4.0756,3.8581,1.675.3452,2.6539-.642,2.2468-1.6641Z" transform="translate(-24.5741 -44.3316)" fill="#f9dac8"/><path d="M140.6705,151.7865c-4.1708-1.0824-24.69-1.355-24.69-1.355s12.4362,1.4492,16.1088,2.8711L150,159.518a2.8092,2.8092,0,0,1,2.1317,2.3059l5.7519,1.3771a11.6,11.6,0,0,0,1.3.017C160.6456,156.7591,144.624,152.8124,140.6705,151.7865Z" transform="translate(-24.5741 -44.3316)" fill="#f37960"/></g></svg>