<svg id="Layer_1" data-name="Layer 1" xmlns="http://www.w3.org/2000/svg" xmlns:xlink="http://www.w3.org/1999/xlink" viewBox="0 0 242.3368 242.3368"><defs><radialGradient id="radial-gradient" cx="121.1684" cy="121.1684" r="121.1684" gradientUnits="userSpaceOnUse"><stop offset="0" stop-color="#f5f5f5"/><stop offset="1" stop-color="#c4d5d6"/></radialGradient></defs><title>5</title><circle cx="121.1684" cy="121.1684" r="121.1684" fill="url(#radial-gradient)"/><path d="M121.769,196.3105a28.3584,28.3584,0,0,1-7.2861,5.78,19.2872,19.2872,0,0,1-9.7392,2.5225q-6.236,0-9.9131-3.4336a12.0415,12.0415,0,0,1-3.6787-9.2481,20.19,20.19,0,0,1,2.1367-8.792,34.9378,34.9378,0,0,1,6.0605-8.6533c.4209-.5127.7237-.77.9112-.77q.2094,0,0,.4209a1.9647,1.9647,0,0,1-.4209.7A50.03,50.03,0,0,0,94.76,182.334a16.2566,16.2566,0,0,0-1.9268,7.8467,9.9842,9.9842,0,0,0,3.748,8.3369,14.4592,14.4592,0,0,0,9.2129,2.9424,20.55,20.55,0,0,0,8.3731-1.6817,25.2977,25.2977,0,0,0,6.375-3.8877,20.4167,20.4167,0,0,0,3.749-4.0283,4.2714,4.2714,0,0,0,.84-2.3125,3.1106,3.1106,0,0,0-.7-1.9971,20.5173,20.5173,0,0,0-2.1719-2.207,16.0741,16.0741,0,0,1-1.541-1.4707,1.9065,1.9065,0,0,1-.5606-1.2617,8.5134,8.5134,0,0,1,.63-1.0508,8.8607,8.8607,0,0,0,.8408-1.541,2.0576,2.0576,0,0,0,.5606,1.4014,11.0148,11.0148,0,0,0,1.4013,1.2959q.8409.6664,1.3311,1.0156a11.89,11.89,0,0,1,1.8916,1.8916,2.707,2.707,0,0,1,.5605,1.6123,6.7778,6.7778,0,0,1-1.0507,2.9424A40.1689,40.1689,0,0,1,121.769,196.3105Zm-19.6171,14.3282a3.08,3.08,0,0,1,.7,1.1211v.21a18.0006,18.0006,0,0,0-2.1016,1.6114h-.21a3.7863,3.7863,0,0,0-.5957-1.0157,3.2721,3.2721,0,0,0-.9463-.8759v-.21q.35-.2812,1.0508-.876a8.9037,8.9037,0,0,1,1.0518-.8056h.14A4.5033,4.5033,0,0,1,102.1519,210.6387Zm4.3437,0a3.0769,3.0769,0,0,1,.7,1.1211v.21a18.0006,18.0006,0,0,0-2.1016,1.6114h-.21a3.789,3.789,0,0,0-.5957-1.0157,3.2721,3.2721,0,0,0-.9463-.8759v-.21q.35-.2812,1.0517-.876a8.84,8.84,0,0,1,1.0508-.8056h.14A4.5034,4.5034,0,0,1,106.4956,210.6387Z" transform="translate(-44.3316 -44.3316)" fill="#072232" stroke="#072232" stroke-linecap="round" stroke-linejoin="round" stroke-width="0.3"/><path d="M137.6021,187.0977a.0891.0891,0,0,1,0,.1406,4.2891,4.2891,0,0,1-1.2618,1.3662,14.8226,14.8226,0,0,1-2.0312.9453l-4.4844,1.8223-.49.21q-.1407,0,0-.3154a2.2732,2.2732,0,0,1,.49-.666,3.4,3.4,0,0,1,.9111-.63l2.1016-.8408q2.1021-.8409,4.624-2.0322A.0879.0879,0,0,1,137.6021,187.0977Z" transform="translate(-44.3316 -44.3316)" fill="#072232" stroke="#072232" stroke-linecap="round" stroke-linejoin="round" stroke-width="0.3"/><path d="M120.8228,181.0029q.6664-1.1909,1.1552-1.2607c.1407-.0459.7012-.1406,1.6817-.28a9.68,9.68,0,0,0,3.083-1.0508,6.7967,6.7967,0,0,0,2.5224-2.1718c.2325-.3262.4434-.3965.63-.211a6.9508,6.9508,0,0,0,4.9746,2.4522q2.4522,0,4.4834-3.1524c.2334-.3261.4912-.3037.7715.07a9.4028,9.4028,0,0,0,1.6807,1.6807,2.6938,2.6938,0,0,0,1.6123.56,2.3027,2.3027,0,0,0,1.9258-1.2255,12.013,12.013,0,0,0,1.3662-4.0284c.0937-.3261.2109-.49.3506-.49q.28,0,.1406.63a14.3115,14.3115,0,0,1-1.7168,5.43,3.6006,3.6006,0,0,1-3.1182,1.997q-1.6113,0-3.5722-2.3125-2.3834,3.2945-5.1153,3.293a6.3187,6.3187,0,0,1-2.9072-.7353,5.9153,5.9153,0,0,1-2.2773-1.9971q-2.3116,2.6646-7.2862,4.1338l-1.0508.28A4.4352,4.4352,0,0,1,120.8228,181.0029Z" transform="translate(-44.3316 -44.3316)" fill="#072232" stroke="#072232" stroke-linecap="round" stroke-linejoin="round" stroke-width="0.3"/><path d="M163.4194,150.84a2.3927,2.3927,0,0,1,.3848,1.4366,5.9383,5.9383,0,0,1-.14,1.0507,4.2651,4.2651,0,0,1-1.0508,1.9966,2.7724,2.7724,0,0,1-2.1719.9463,1.69,1.69,0,0,1-1.1211-.3506,1.3774,1.3774,0,0,1-.4209-1.1211,4.5247,4.5247,0,0,1,.49-1.7163,6.7876,6.7876,0,0,1,1.2969-1.9267,2.31,2.31,0,0,1,1.6465-.8408A1.271,1.271,0,0,1,163.4194,150.84Zm-2.873,1.4717a2.9215,2.9215,0,0,0-.7354,1.3662v.28q0,.9815,1.1914.9805a1.9814,1.9814,0,0,0,1.3311-.42,1.8946,1.8946,0,0,0,.63-1.0508v-.28a1.9041,1.9041,0,0,0-.3155-1.0508.9887.9887,0,0,0-.875-.49A1.6776,1.6776,0,0,0,160.5464,152.3115Z" transform="translate(-44.3316 -44.3316)" fill="#072232" stroke="#072232" stroke-linecap="round" stroke-linejoin="round" stroke-width="0.3"/><path d="M149.7231,190.53a6.9324,6.9324,0,0,1-5.4648,2.9433,8.7406,8.7406,0,0,1-3.1523-.7715,16.0194,16.0194,0,0,1-3.7139-2.1718c-.1856-.14-.2451-.2686-.1748-.3848s.1992-.1289.3857-.0351a11.2747,11.2747,0,0,0,4.5537.98,9.5721,9.5721,0,0,0,4.9746-1.331,12.6524,12.6524,0,0,0,3.7129-3.293,11.4827,11.4827,0,0,0,1.962-3.7129l.49-.77.1406.63A21.1855,21.1855,0,0,1,149.7231,190.53Z" transform="translate(-44.3316 -44.3316)" fill="#072232" stroke="#072232" stroke-linecap="round" stroke-linejoin="round" stroke-width="0.3"/><path d="M170.7041,144.71a3.7519,3.7519,0,0,1,.1748,1.8916q-.63,5.3957-5.9546,5.3945a5.5166,5.5166,0,0,1-1.2959-.105c-.2568-.07-.3857-.14-.3857-.21s.0937-.1285.28-.1753q4.6239-.4893,6.2359-3.0826a4.0138,4.0138,0,0,1-2.0322-.21,1.2157,1.2157,0,0,1-.8409-1.1909,3.1073,3.1073,0,0,1,.876-2.1021,2.503,2.503,0,0,1,1.8565-.98A1.1047,1.1047,0,0,1,170.7041,144.71Zm-2.5225.8408a1.2482,1.2482,0,0,0-.5253.77v.07a.7491.7491,0,0,0,.5253.6655,3.0487,3.0487,0,0,0,1.2969.2451,2.91,2.91,0,0,0,.7-.07v-.42a2.1777,2.1777,0,0,0-.28-1.1557.9249.9249,0,0,0-.8408-.4556A1.456,1.456,0,0,0,168.1816,145.5508Z" transform="translate(-44.3316 -44.3316)" fill="#072232" stroke="#072232" stroke-linecap="round" stroke-linejoin="round" stroke-width="0.3"/><path d="M176.7656,150.8052c.0459.0473.0459.1172,0,.21a12.4745,12.4745,0,0,1-2.5918,3.6079,18.2558,18.2558,0,0,1-4.0634,2.6978q-3.3633,1.6809-4.8345,2.5571a5.4364,5.4364,0,0,0-1.8213,1.4712,3.0846,3.0846,0,0,0-.3506,1.5762,36.6536,36.6536,0,0,0,.49,4.8349q.4908,4.6949.5606,5.7452v-.6309a6.3533,6.3533,0,0,0,1.2969,3.748q1.0847,1.2276,4.2378,1.2266a.71.71,0,0,1,.455.14.3858.3858,0,0,1,.1758.28,3.0169,3.0169,0,0,1-.7012,1.0508q-.7.8409-1.1211.8408a4.1668,4.1668,0,0,1-3.187-1.2256,4.5585,4.5585,0,0,1-1.2959-2.7675,4.0506,4.0506,0,0,1-1.7871,3.0127,17.6145,17.6145,0,0,1-5.43,1.8213,15.6442,15.6442,0,0,0-2.4521.7353,1.6046,1.6046,0,0,0-.91.876l-.6308.77v-.63a7.8643,7.8643,0,0,1,1.2265-2.5576,5.1485,5.1485,0,0,1,2.9073-1.6465q.98-.2783,3.7832-.77a3.1471,3.1471,0,0,0,2.9424-3.4326,26.6307,26.6307,0,0,0-1.4014-6.5166,23.937,23.937,0,0,1-1.3311-6.1651,3.3625,3.3625,0,0,1,1.0508-2.4521,13.5552,13.5552,0,0,1,3.9238-2.312q3.641-1.6113,6.2-3.0127a24.0576,24.0576,0,0,0,4.4493-3.083C176.6484,150.7593,176.7188,150.7593,176.7656,150.8052Z" transform="translate(-44.3316 -44.3316)" fill="#072232" stroke="#072232" stroke-linecap="round" stroke-linejoin="round" stroke-width="0.3"/><path d="M190.9512,136.4077a2.3933,2.3933,0,0,1,.3847,1.4365,5.9285,5.9285,0,0,1-.14,1.0508,4.2638,4.2638,0,0,1-1.0508,1.9966,2.7722,2.7722,0,0,1-2.1719.9463,1.69,1.69,0,0,1-1.1211-.3506,1.3777,1.3777,0,0,1-.4209-1.1211,4.5234,4.5234,0,0,1,.49-1.7163,6.7874,6.7874,0,0,1,1.2969-1.9268,2.31,2.31,0,0,1,1.6464-.8408A1.2712,1.2712,0,0,1,190.9512,136.4077Zm-2.8731,1.4717a2.9208,2.9208,0,0,0-.7353,1.3662v.28q0,.9815,1.1914.98a1.9806,1.9806,0,0,0,1.331-.42,1.8934,1.8934,0,0,0,.63-1.0507v-.28a1.9046,1.9046,0,0,0-.3154-1.0508.9887.9887,0,0,0-.875-.49A1.6772,1.6772,0,0,0,188.0781,137.8794Z" transform="translate(-44.3316 -44.3316)" fill="#072232" stroke="#072232" stroke-linecap="round" stroke-linejoin="round" stroke-width="0.3"/><path d="M186.5732,147.9331q.3487,0,0,.7l-3.9941,9.4585q-3.3618,7.9182-4.94,11.4551a56.2618,56.2618,0,0,1-3.0468,5.99A13.6739,13.6739,0,0,1,171.72,179.04a5.0106,5.0106,0,0,1-3.2226,1.1211q-.28,0-.28-.49a1.9175,1.9175,0,0,1,.49-1.2256,1.3355,1.3355,0,0,1,.9815-.5957,4.693,4.693,0,0,0,2.9775-1.0166,10.1834,10.1834,0,0,0,2.5567-3.8184q1.1909-2.7318,2.7324-7.0058t4.5547-13.6621a8.2844,8.2844,0,0,1,.9453-2.0318,9.7211,9.7211,0,0,1,2.3467-2.0317A1.5157,1.5157,0,0,1,186.5732,147.9331Z" transform="translate(-44.3316 -44.3316)" fill="#072232" stroke="#072232" stroke-linecap="round" stroke-linejoin="round" stroke-width="0.3"/><path d="M196.3809,152.9077c.3261,0,.3505.21.07.63a76.7793,76.7793,0,0,0-5.7451,9.248q-2.943,5.4654-5.22,10.545t-3.0478,7.4609a22.3688,22.3688,0,0,1-1.6465,2.207,12.84,12.84,0,0,1-1.7158,1.9971c-.1407,0-.211-.0459-.211-.1406a1.073,1.073,0,0,1,.1407-.42q1.1192-2.3817,5.7451-12.6113,5.3232-11.7706,7.2861-15.7641a2.3043,2.3043,0,0,1,.876-1.0157,7.3733,7.3733,0,0,0,.665-.4555l2.3125-1.541A.6815.6815,0,0,1,196.3809,152.9077Z" transform="translate(-44.3316 -44.3316)" fill="#072232" stroke="#072232" stroke-linecap="round" stroke-linejoin="round" stroke-width="0.3"/><path d="M212.459,182.8594c.1162.1172.1748.1992.1748.2451a3.0176,3.0176,0,0,1-.7,1.0508q-.7017.8407-1.0508.8408-5.3964,0-5.3945-5.3252l.0693-.98a5.2206,5.2206,0,0,1-3.3623,1.3311,3.4934,3.4934,0,0,1-2.3476-.8057,2.6671,2.6671,0,0,1-.9454-2.1367,6.4357,6.4357,0,0,1,2.3819-4.9746q2.3818-2.1021,7.2168-2.6621a5.9734,5.9734,0,0,1,1.2256-1.7871,2.906,2.906,0,0,1,1.7871-.5948q.6987-.0688.35.28a17.5125,17.5125,0,0,0-4.834,8.5469,8.9386,8.9386,0,0,0-.28,2.3125q0,4.484,5.3242,4.4834A.5394.5394,0,0,1,212.459,182.8594Zm-6.7608-5.22a23.19,23.19,0,0,1,1.6114-5.4648,11.0652,11.0652,0,0,0-3.8887.665,8.8756,8.8756,0,0,0-2.8721,1.6465,2.6373,2.6373,0,0,0-1.0859,1.752q0,.7017.9805,1.2607a5.0253,5.0253,0,0,0,2.5224.5606A8.5911,8.5911,0,0,0,205.6982,177.64Zm2.8721-20.038a3.1035,3.1035,0,0,1,.7012,1.1211v.21a18.3088,18.3088,0,0,0-2.1026,1.6118h-.21a3.7557,3.7557,0,0,0-.5957-1.0161,3.3,3.3,0,0,0-.9453-.876v-.21q.35-.2791,1.0508-.876a9.1512,9.1512,0,0,1,1.0507-.8057h.1407A4.5392,4.5392,0,0,1,208.57,157.6016Zm4.3438,0a3.103,3.103,0,0,1,.7011,1.1211v.21a18.161,18.161,0,0,0-2.1015,1.6118h-.211a3.753,3.753,0,0,0-.5957-1.0161,3.2984,3.2984,0,0,0-.9453-.876v-.21q.35-.2791,1.0508-.876a9.15,9.15,0,0,1,1.0508-.8057h.1406A4.5149,4.5149,0,0,1,212.9141,157.6016Z" transform="translate(-44.3316 -44.3316)" fill="#072232" stroke="#072232" stroke-linecap="round" stroke-linejoin="round" stroke-width="0.3"/><path d="M227.416,159.5635a.0885.0885,0,0,1,0,.14,4.2552,4.2552,0,0,1-1.2607,1.3662,14.5533,14.5533,0,0,1-2.0323.9458l-4.4834,1.8218-.49.21q-.1421,0,0-.3155a2.29,2.29,0,0,1,.49-.6655,3.4787,3.4787,0,0,1,.91-.63l2.1025-.8408q2.1021-.8408,4.6241-2.0317A.088.088,0,0,1,227.416,159.5635Z" transform="translate(-44.3316 -44.3316)" fill="#072232" stroke="#072232" stroke-linecap="round" stroke-linejoin="round" stroke-width="0.3"/><path d="M210.5313,195.1543a3.08,3.08,0,0,1,.7,1.1211v.2109a18.0317,18.0317,0,0,0-2.1015,1.6114h-.21a3.7106,3.7106,0,0,0-.5957-1.0166,3.2292,3.2292,0,0,0-.9463-.875v-.211c.2344-.1865.585-.48,1.0518-.875a8.9994,8.9994,0,0,1,1.0508-.8056h.14A4.4452,4.4452,0,0,1,210.5313,195.1543Zm8.5468-18.3555c.0938,0,.1514.07.1758.21a.8229.8229,0,0,1-.1055.49q-2.6631,7.4985-8.2666,7.4971a1.0339,1.0339,0,0,1-.4912-.9815,1.1938,1.1938,0,0,1,.4561-.9453,1.8374,1.8374,0,0,1,1.2256-.3857,6.4334,6.4334,0,0,0,3.7832-1.2959,8.1263,8.1263,0,0,0,2.8027-4.0283C218.7979,176.9863,218.9385,176.7988,219.0781,176.7988Zm-4.2734,17.9356a3.1065,3.1065,0,0,1,.7012,1.1211v.21a18.0406,18.0406,0,0,0-2.1026,1.6114h-.21a3.7382,3.7382,0,0,0-.5957-1.0157,3.2726,3.2726,0,0,0-.9454-.8759v-.21q.3488-.2812,1.0508-.876a8.9436,8.9436,0,0,1,1.0508-.8056h.14A4.5376,4.5376,0,0,1,214.8047,194.7344Z" transform="translate(-44.3316 -44.3316)" fill="#072232" stroke="#072232" stroke-linecap="round" stroke-linejoin="round" stroke-width="0.3"/><path d="M237.1543,152.9077c.3262,0,.3506.21.07.63a76.7919,76.7919,0,0,0-5.7451,9.248q-2.9429,5.4654-5.22,10.545t-3.0479,7.4609a22.3688,22.3688,0,0,1-1.6465,2.207,12.833,12.833,0,0,1-1.7158,1.9971c-.1406,0-.2109-.0459-.2109-.1406a1.0724,1.0724,0,0,1,.1406-.42q1.1191-2.3817,5.7451-12.6113,5.3232-11.7706,7.2861-15.7641a2.3056,2.3056,0,0,1,.876-1.0157,7.4005,7.4005,0,0,0,.6651-.4555l2.3125-1.541A.681.681,0,0,1,237.1543,152.9077Zm11.875-8.3725q-.7353,1.0165-1.5762,1.9965-2.0331,2.3123-3.8535,2.3121a5.5835,5.5835,0,0,1-1.4707-.21q-.7719-.21-1.0508-.28a10.4749,10.4749,0,0,0-2.873-.56,5.3962,5.3962,0,0,0-3.083.9458q-1.4019.9462-3.4326,2.6274-.2812.2805-.4551.2451c-.1172-.0229-.13-.105-.0352-.2451a25.8125,25.8125,0,0,1,4.4141-4.5542,5.6262,5.6262,0,0,1,3.2226-1.1909,7.9823,7.9823,0,0,1,2.3819.49,11.2977,11.2977,0,0,0,1.1562.3506,7.4725,7.4725,0,0,0,1.9971.28,3.7034,3.7034,0,0,0,2.1016-.5606,18.7729,18.7729,0,0,0,2.4521-2.1718c.0459-.0459.15-.1631.3154-.3506q.2447-.2792.3848-.21T249.0293,144.5352Z" transform="translate(-44.3316 -44.3316)" fill="#072232" stroke="#072232" stroke-linecap="round" stroke-linejoin="round" stroke-width="0.3"/></svg>