<svg xmlns="http://www.w3.org/2000/svg" xmlns:xlink="http://www.w3.org/1999/xlink" viewBox="0 0 242.3368 242.3368"><defs><radialGradient id="radial-gradient" cx="121.1684" cy="121.1684" r="121.1684" gradientUnits="userSpaceOnUse"><stop offset="0" stop-color="#f5f5f5"/><stop offset="1" stop-color="#c4d5d6"/></radialGradient><clipPath id="clip-path" transform="translate(-44.3316 -44.3316)"><circle cx="163.2995" cy="161.3286" r="66.1016" fill="none"/></clipPath></defs><title>3</title><g style="isolation:isolate"><g id="Layer_1" data-name="Layer 1"><circle cx="121.1684" cy="121.1684" r="121.1684" fill="url(#radial-gradient)"/><g clip-path="url(#clip-path)"><path d="M110.8274,232.7348H144.1c.1711-.6109.3406-1.2226.5-1.8337,1.614-6.1692,3.0352-12.39,4.7918-18.5212,1.8035-6.2952,4.5968-12.05,6.8174-18.1316-1.911-.3578-4.5431,1.148-6.6649,1.0953-1.8972-.0472-3.787-.28-5.6755-.45a94.5207,94.5207,0,0,0-19.7821.3008c-2.6644.32-6.3629-.37-6.9355,2.7764-.3177,1.7445.0631,3.6082-.36,5.4283q-.1087.4682-.24.9311a34.1331,34.1331,0,0,1-1.8112,4.7658,78.4,78.4,0,0,1-8.579,14.5493,2.977,2.977,0,0,0-.7348,1.5139,2.7086,2.7086,0,0,0,.3956,1.3614A20.8136,20.8136,0,0,0,110.8274,232.7348Z" transform="translate(-44.3316 -44.3316)" fill="#f58d77"/><path d="M160.5984,119.86a35.0012,35.0012,0,0,1,.4872,3.9035,39.0747,39.0747,0,0,1,.142,8.0572c-.1881,1.557-.563,3.0868-.7491,4.644a38.7229,38.7229,0,0,0,.2029,8.261,20.2836,20.2836,0,0,1,.3373,4.2857c-.1388,1.0379-.8474,1.878-.5312,3.0151.1563.5616.4932,1.0671.5948,1.641.1882,1.0644-.4548,2.0716-.8656,3.0712-1.146,2.7891-.5215,5.9443-.0553,8.9234a128.9382,128.9382,0,0,1,1.2256,13.48,23.2265,23.2265,0,0,1-.668,8.5676,23.8625,23.8625,0,0,1-3.3274,5.8948c-1.263,1.8115-2.6079,3.6951-4.5839,4.681a13.3462,13.3462,0,0,1-5.6473.9824c-5.4731.1493-11.2086.2431-16.0919-2.2326a21.4465,21.4465,0,0,1-8.9792-9.4368,49.853,49.853,0,0,1-4.1088-12.544c-1.7683-8.1672-2.7875-17.01.6614-24.6214a12.4625,12.4625,0,0,1,3.1111-4.43c2.3768-2.0245,5.6674-2.599,8.7893-2.6318s6.2561.3952,9.3578.04a18.97,18.97,0,0,0,11.6224-5.9656,7.8586,7.8586,0,0,0,2.3789-4.8944c.38-2.7254,1.2658-5.4338,1.7754-8.1462.2584-1.375.4975-2.7545.707-4.138a6.5822,6.5822,0,0,1,.4555-2.4492C158.3857,115.5648,160.2873,118.3182,160.5984,119.86Z" transform="translate(-44.3316 -44.3316)" fill="#ea786c"/><path d="M117.8447,154.5628c1.4108,1.9558.9565,4.969.9644,7.331a3.6906,3.6906,0,0,0,.18,1.3277,6.689,6.689,0,0,0,.7891,1.2425c1.1158,1.6642,1.2021,3.9286,2.5706,5.392a.977.977,0,0,0,.404.2917,1.21,1.21,0,0,0,.67-.0639c3.183-.8774,6.5222.4184,9.5421,1.754a16.9557,16.9557,0,0,1,5.038,2.9976c-1.0962-1.0529-1.6385-2.6747-2.8766-3.7443a13.5053,13.5053,0,0,0-4.119-2.412,11.6817,11.6817,0,0,0-4.9825-.8855c-.6974.0755-1.0663.4257-1.75.0755-.79-.4048-.9547-1.5033-1.1921-2.258-.4215-1.3406-1.2015-2.5484-1.6053-3.8943a21.873,21.873,0,0,1-.6913-2.9346c-.0577-.38.0871-3.2756-.02-3.3522a65.2712,65.2712,0,0,0,7.2744,4.707c3.2638,1.7228,6.89,2.9387,9.5728,5.4727a20.36,20.36,0,0,1,3.3412,4.3992,53.5235,53.5235,0,0,1,7.0364,19.5551c.0387-3.3117-1.0268-6.5249-2.08-9.6648-1.5112-4.5048-3.1142-9.1657-6.392-12.6057a29.4,29.4,0,0,0-5.0669-4.012c-1.932-1.2911-3.8942-2.5367-5.856-3.7821l-5.774-3.6659a3.373,3.373,0,0,1-1.2756-1.163c-.5244-1,.8692-2.4076,1.4435-3.1963a13.9039,13.9039,0,0,1,3.0619-2.9583c3.0212-2.2174,6.6643-2.576,10.334-2.46a3.836,3.836,0,0,1-3.0515-1.8941,5.1938,5.1938,0,0,1-3.0607.563c-1.8659-.0671-3.9048-.35-5.1733-1.72a10.1645,10.1645,0,0,1-1.6945-3.5206,4.7187,4.7187,0,0,0-2.39-2.9741,18.4732,18.4732,0,0,1-.3643,13.8034,6.3428,6.3428,0,0,1-1.69,2.3264,2.9818,2.9818,0,0,1-2.7182.6A4.1784,4.1784,0,0,1,117.8447,154.5628Z" transform="translate(-44.3316 -44.3316)" fill="#ea786c" opacity="0.13" style="mix-blend-mode:multiply"/><path d="M158.6746,105.7449a8.17,8.17,0,0,1,.6562,4.0045,23.1651,23.1651,0,0,1-.8675,5.5115,41.8266,41.8266,0,0,0-1.2611,4.4987c-.1827,1.0972-.1976,2.2143-.287,3.323a33.0411,33.0411,0,0,1-1.696,7.7707,16.4181,16.4181,0,0,0-1.1489,4.705,25.729,25.729,0,0,0,.2062,2.7279,23.5715,23.5715,0,0,1-.2266,5.0532c-.2253,1.6732-.6855,3.552-2.1637,4.3677-1.3268.7321-2.9662.32-4.42-.108l-5.1978-1.5319a2.4139,2.4139,0,0,1-1.5764-.9725,2.5277,2.5277,0,0,1,.2266-2.0571c2.9274-7.2645,2.7457-15.4782,5.583-22.7781,1.9062-4.9045,5.112-9.2248,6.9752-14.1457.3876-1.0238.8353-2.4454,2.0629-2.55C156.823,103.4544,158.1474,104.7067,158.6746,105.7449Z" transform="translate(-44.3316 -44.3316)" fill="#ef8070"/><path d="M147.8961,99.094a4.2434,4.2434,0,0,1,1.2273-1.7887,3.0665,3.0665,0,0,1,3.0861-.0086,6.8642,6.8642,0,0,1,3.4281,5.2862,16.6033,16.6033,0,0,1-.7066,6.4747q-.5861,2.2143-1.3385,4.38a6.15,6.15,0,0,1-2.1421,3.36,1.9322,1.9322,0,0,0-.5152.389,1.6748,1.6748,0,0,0-.1413,1.2407,14.67,14.67,0,0,1-.933,5.8687,27.1723,27.1723,0,0,1-2.7634,6.8215,5.52,5.52,0,0,0-.4947.8673,4.8568,4.8568,0,0,0-.26,1.359,42.3325,42.3325,0,0,1-2.3924,10.4249,3.4217,3.4217,0,0,1-.6388,1.1946,3.3247,3.3247,0,0,1-2.0126.8155,22.1685,22.1685,0,0,1-6.5987-.0337,2.2287,2.2287,0,0,1-1.03-.3513,2.0026,2.0026,0,0,1-.6065-.9787,10.9473,10.9473,0,0,1-.1923-5.2346,56.8623,56.8623,0,0,1,1.4537-6.1894,89.884,89.884,0,0,1,4.9852-14.7539c1.5407-3.2588,3.4692-6.3268,4.8719-9.6523C145.5124,105.4327,146.466,102.2283,147.8961,99.094Z" transform="translate(-44.3316 -44.3316)" fill="#f48570"/><path d="M134.23,108.72q.21-.3471.42-.6934c1.1986-1.9744,2.5959-3.8569,3.8891-5.7738a10.1812,10.1812,0,0,1,1.431-1.8092,3.1259,3.1259,0,0,1,4.633.2624,6.1828,6.1828,0,0,1,1.211,4.8453,18.3269,18.3269,0,0,1-1.6014,4.8724c-.7126,1.6335-1.3666,3.31-2.1438,4.9136-.4805.9914-1.5661,1.8-1.8552,2.8412a4.278,4.278,0,0,0-.05,1.2657,11.99,11.99,0,0,1-1.0125,4.4439q-.9136,2.431-1.7,4.9073a40.0664,40.0664,0,0,1-1.8038,4.7853,8.1629,8.1629,0,0,0-.5078,1.8147q-.8195,4.1342-1.6385,8.2681a1.8919,1.8919,0,0,1-.29.7993,1.5977,1.5977,0,0,1-.5532.4191,9.7156,9.7156,0,0,1-4.2076.8106c-3.7376.12-8.596-.4921-7.9757-5.5353a10.4419,10.4419,0,0,1,.8211-2.65q3.6591-8.9161,7.3182-17.8323a14.3076,14.3076,0,0,1,1.137-2.3508c.3306-.5126.7262-.9822,1.037-1.507.6694-1.1306.9653-2.4519,1.5285-3.6375C132.8828,110.9879,133.549,109.8483,134.23,108.72Z" transform="translate(-44.3316 -44.3316)" fill="#f58d77"/><path d="M139.3076,115.9694a3.7075,3.7075,0,0,1-2.3564-.2872,15.54,15.54,0,0,0-3.4964-1.489.87.87,0,0,0,.3574.8815,3.3387,3.3387,0,0,0,.9107.428,7.2115,7.2115,0,0,1,2.0772,1.2159.898.898,0,0,1,.4.6305.6474.6474,0,0,1-.5706.5712,1.8894,1.8894,0,0,1-.86-.1273l-2.8834-.9a4.96,4.96,0,0,0,2.0849,1.47,8.2347,8.2347,0,0,1,2.2435,1.2539c1.6305,1.48.9837,3.3562.2828,5.0892-.6615,1.6357-2.43,7.3077-4.66,7.2523a3.2047,3.2047,0,0,1-1.2805-.4087l-1.6941-.82a4.8665,4.8665,0,0,0-2.7329-.7058,25.1853,25.1853,0,0,0,4.66,2.1669,1.768,1.768,0,0,1,.8285.4627.583.583,0,0,1-.06.8443.8413.8413,0,0,1-.5557.0428q-2.8731-.44-5.7262-.9977a2.6118,2.6118,0,0,0,1.7959.9693l3.9892.906a2.1258,2.1258,0,0,1,.9056.36c1.1845.9758-.4322,4.928-.8281,6.0728a8.4071,8.4071,0,0,1-1.9016,3.3641,3.679,3.679,0,0,1-3.5651,1.0325c1.6136.3208,3.3008-.2425,4.9194.0512a20.2915,20.2915,0,0,1,2.7976.9686,8.8911,8.8911,0,0,0,6.0966-.1692,5.8255,5.8255,0,0,1-3.7641-1.2053c-2.1764-2.1509-.7047-7.1036.2119-9.5933a2.3293,2.3293,0,0,1,.642-1.0608c.6913-.5534,2.38.3515,3.1983.43a12.5685,12.5685,0,0,0,3.6837-.0381,1.2381,1.2381,0,0,0,.625-.2664.4825.4825,0,0,0,.0938-.62c-.1984-.2508-.5927-.134-.8912-.0192a5.8947,5.8947,0,0,1-3.65.18,3.1737,3.1737,0,0,1-1.3429-.6863,1.6709,1.6709,0,0,1-.5637-1.3565c2.3156-.3936,4.601,1.47,6.9.9866a2.8061,2.8061,0,0,0-1.94-.7356,18.3921,18.3921,0,0,1-4.8756-1.3165,1.12,1.12,0,0,1-.5492-.386,1.0217,1.0217,0,0,1-.0922-.64c.1355-1.3666,1.0967-2.4471,1.5845-3.7069a20.2864,20.2864,0,0,0,1.2074-4.2741c.2377-1.5722.29-3.73.91-5.1892.7381-1.7378,3.0655-.8514,4.3028-.1758,1.1372.6207,2.3835,1.3374,3.6469,1.05.152-.3822-.3442-.6809-.7354-.8079a16.0872,16.0872,0,0,1-3.3016-1.5019c-.4179-.2507-.8829-.7089-.6633-1.1438a9.1436,9.1436,0,0,1,2.9094,1.2091,5.544,5.544,0,0,0,2.6137.4532.5357.5357,0,0,0,.0045-.509,8.9523,8.9523,0,0,1-3.6562-1.328c-2.7927-2.0893-.0921-5.1832.418-7.782.461-2.3484.1514-8.989,4.0475-8.352a4.4593,4.4593,0,0,1,2.9961,1.6725,4.04,4.04,0,0,0-2.5371-2.1072c-3.0921-.8431-3.9949,1.6171-4.6959,4.0418a6.118,6.118,0,0,1-1.5894,3.1853,14.2367,14.2367,0,0,0-.4724-2.7,3.4188,3.4188,0,0,0-1.7827-2.045c-2.5788-1.07-4.6649,1.7731-5.46,3.8237,1.0488-.9766,2.7213-2.0757,4.2327-1.711a2.86,2.86,0,0,1,1.7445,1.4061c1.2743,2.2374.9177,4.7832-.0418,7.0647C142.9234,112.5534,141.5607,115.4488,139.3076,115.9694Z" transform="translate(-44.3316 -44.3316)" fill="#ea786c" opacity="0.13" style="mix-blend-mode:multiply"/><path d="M140.9035,116.8425a5.4407,5.4407,0,0,0-.7933,1.3562,6.0222,6.0222,0,0,0-.2115,1.4914c-.2538,3.385-1.6947,6.5462-2.9019,9.7188a74.7714,74.7714,0,0,0-3.0523,10.124c-.7395,3.2753-2.0985,5.78-5.84,5.9838a16.6294,16.6294,0,0,1-4.7255-.6567,6.4214,6.4214,0,0,0,4.3134,1.5886c1.5668.0769,3.143-.1148,4.7031.0491,1.938.2036,3.8271.9532,5.7718.8253,2.2123-.1453,3.9743-.8069,6.2078-.4054,1.0893.196,2.0948.6493,3.16.9287a10.8917,10.8917,0,0,0,2.6967.1122,12.0017,12.0017,0,0,1-3.8914-.7975,3.392,3.392,0,0,1-1.9609-1.5091c-.4782-1.0052-.03-2.1821.38-3.2168a45.4012,45.4012,0,0,0,2.6079-9.4512,10.8139,10.8139,0,0,1,.3916-1.8228,13.32,13.32,0,0,1,.8344-1.7344c1.5967-3.0793,2.2441-6.5464,2.9366-9.9452a10.75,10.75,0,0,1,.5259-1.9407,21.1411,21.1411,0,0,1,1.1912-2.1664,18.3611,18.3611,0,0,0,1.8887-8.1479c.0574-1.3179.2854-2.9631,1.5424-3.3629a2.7453,2.7453,0,0,0-1.25-.2733q-.53-2.1747-1.0593-4.35a24.0234,24.0234,0,0,1-3.2038,17.6623,4.5327,4.5327,0,0,0-.49.8994,4.4663,4.4663,0,0,0-.181,1.2329,28.5881,28.5881,0,0,1-3.009,11.148,8.4789,8.4789,0,0,0-.7512,1.76,8.964,8.964,0,0,0-.1685,1.74,20.9031,20.9031,0,0,1-2.5054,8.996,7.5338,7.5338,0,0,1-1.7513,2.3019c-1.55,1.2671-4.2322,1.1362-6.1077.9714-1.9779-.1737-2.39-1.487-2.224-3.3688.6932-7.8357,5.1022-14.91,6.2845-22.6872a7.0668,7.0668,0,0,1,.3544-1.5956,7.4947,7.4947,0,0,1,1.2109-1.7881,19.3688,19.3688,0,0,0,4.2289-12.5008A28.9911,28.9911,0,0,1,140.9035,116.8425Z" transform="translate(-44.3316 -44.3316)" fill="#5f3b18" opacity="0.09" style="mix-blend-mode:multiply"/><path d="M153.3681,119.1968a.9642.9642,0,0,0-.4586.2019,1.364,1.364,0,0,0-.301.4351,28.5144,28.5144,0,0,0-1.7732,5.0005q-1.0929,3.687-1.8877,7.4541l3.944.814c.16.4061-.4756.6249-.9111.5959l-3.7843-.251a1.3623,1.3623,0,0,0-.1207.8664l4.2275.3422q-1.3542.2072-2.7083.4146a1.8055,1.8055,0,0,0-1.9095,1.6122c-.7335,2.6077-1.3884,5.179-.0689,7.8055.976,1.9428,3.4179,3.3034,5.3882,2.384a4.3865,4.3865,0,0,1-4.0567,1.3718,19.321,19.321,0,0,1-4.2581-1.37,7.81,7.81,0,0,0-4.3786-.61,3.54,3.54,0,0,0,3-1.4422,10.1232,10.1232,0,0,0,1.5071-3.1083,32.55,32.55,0,0,0,1.8614-7.243,12.7419,12.7419,0,0,1,.3978-2.6582,15.6554,15.6554,0,0,1,1.3442-2.5741c1.7966-3.277,1.9088-7.1822,2.8829-10.79,1.3536-5.0133,3.9991-9.4108,4.142-14.729,1.7924-.47,3.1911,1.6,3.4738,3.1564a1.7246,1.7246,0,0,0-1.3148-.7024c-2.08.2574-3.02,7.1428-3.7243,8.7654-.5334,1.2285.0217,1.8619,1.3436,2.1773a11.0247,11.0247,0,0,1,2.0941.5041c.0967.0445.2045.1156.2036.2221-.0014.167-.239.1982-.4033.1679a17.5874,17.5874,0,0,0-3.4691-.6851.6309.6309,0,0,0-.4544.1411.4652.4652,0,0,0,.0414.6064,1.3544,1.3544,0,0,0,.5764.3234q1.5883.573,3.1769,1.1461c-1.1262.3266-2.2956-.4749-3.4632-.3668C153.4743,119.18,153.4209,119.187,153.3681,119.1968Z" transform="translate(-44.3316 -44.3316)" fill="#ea786c" opacity="0.13" style="mix-blend-mode:multiply"/><path d="M155.6137,127.164c-.7714,2.8421-1.8657,5.6384-2.018,8.58-.08,1.5526.1055,3.1073.0891,4.662a8.3662,8.3662,0,0,1-1.0974,4.47,4.1072,4.1072,0,0,1-3.9306,1.9873,27.2022,27.2022,0,0,0,6.0627.4094l5.6015-.0409a16.3209,16.3209,0,0,1-3.3941-1.0786,4.333,4.333,0,0,1-1.9358-1.2128,4.108,4.108,0,0,1-.5841-2.5522,37.3108,37.3108,0,0,1,.6653-6.824,13.666,13.666,0,0,0,3.0571-.1354,4.2391,4.2391,0,0,1-3.0266-.9244,16.94,16.94,0,0,1,4.0611.022q-1.24-.3963-2.48-.7929a2.0555,2.0555,0,0,1-1.1175-.6462,1.9788,1.9788,0,0,1-.1794-1.4065,24.082,24.082,0,0,1,1.1423-4.8079,2.8238,2.8238,0,0,1,.51-.9885c.6692-.7408,1.84-.6343,2.8242-.4681-.3545-.734-1.5873-.194-2.24-.6822a1.6116,1.6116,0,0,1-.4477-1.3084,28.3624,28.3624,0,0,1,.41-5.4213c.1249-.7206.4735-1.59,1.3057-1.6458-1.4572-2.2146-1.8065,3.1658-1.8783,3.6643A59.6622,59.6622,0,0,1,155.6137,127.164Z" transform="translate(-44.3316 -44.3316)" fill="#5f3b18" opacity="0.09" style="mix-blend-mode:multiply"/><path d="M159.0951,151.1266a2.7135,2.7135,0,0,0,.37,1.4122,3.2019,3.2019,0,0,1-1.9342,4.0113,11.5212,11.5212,0,0,1-1.8328.2912,17.9834,17.9834,0,0,0-2.1434.5415,30.8611,30.8611,0,0,1-10.6582.9189c-4.1686-.3152-8.616-1.493-11.1987-4.78,1.2855,2.9882,4.55,4.6162,7.7077,5.3964a26.1476,26.1476,0,0,0,12.4579.0054,28.9792,28.9792,0,0,1,5.6127-1.2075,1.0306,1.0306,0,0,1,.7068.1525.8738.8738,0,0,1,.0936,1.0373,5.8568,5.8568,0,0,0-.5119.9969c-.2788,1.0877.9857,1.9452,1.25,3.0364a6.5279,6.5279,0,0,1-.3481,2.5311c-.4611,2.8107,2.0608,5.3574,1.9992,8.2051.1261-3.0011-.5947-5.9633-1.0478-8.9328s-.62-6.11.5478-8.8778a4.544,4.544,0,0,0,.4738-1.4715c.051-.9158-.5787-1.7678-.5256-2.6836.0525-.9035.9238-1.8839.4765-2.7271A6.5,6.5,0,0,0,159.0951,151.1266Z" transform="translate(-44.3316 -44.3316)" fill="#ea786c" opacity="0.13" style="mix-blend-mode:multiply"/><path d="M136.477,161.1624A52.796,52.796,0,0,1,151.9,172.5264a41.0073,41.0073,0,0,0-5.36-5.6684c-1.9466-1.5938-4.1688-2.8151-6.1924-4.31a20.0236,20.0236,0,0,0-2.46-1.6975,12.8408,12.8408,0,0,0-2.6231-.9592,49.418,49.418,0,0,0-6.4921-1.3252A41.9265,41.9265,0,0,1,136.477,161.1624Z" transform="translate(-44.3316 -44.3316)" fill="#ea786c" opacity="0.13" style="mix-blend-mode:multiply"/><path d="M122.7233,144.7119c.05.2577.1348.558.3819.6458.355.1264.6543-.2864.7926-.6368a12.0915,12.0915,0,0,0-.451-9.7653c-.9611-1.8993-2.0556,2.126-2.0173,2.9342A49.8765,49.8765,0,0,0,122.7233,144.7119Z" transform="translate(-44.3316 -44.3316)" fill="#ea786c" opacity="0.13" style="mix-blend-mode:multiply"/><path d="M145.3915,174.3238q1.2877,5.6962,2.5754,11.3922-1.4052-8.3574-3.3418-16.6135a10.7639,10.7639,0,0,0-.9812-2.89,11.0441,11.0441,0,0,0-4.0457-3.5718C143.5221,164.9489,144.4729,170.26,145.3915,174.3238Z" transform="translate(-44.3316 -44.3316)" fill="#ea786c" opacity="0.13" style="mix-blend-mode:multiply"/><path d="M145.4456,159.0488a3.5589,3.5589,0,0,0-.0458,6.8641c-.9512-.4127-1.8121.9091-1.6571,1.9342s.81,1.9526.8058,2.9894c-.91-.4115-1.9579.5351-2.0591,1.5284a5.18,5.18,0,0,0,.8721,2.8174c2.2886,4.3712,3.8165,9.3929,2.8533,14.232s-4.9813,9.2924-9.9109,9.4962a12.3325,12.3325,0,0,0,5.78-16.44,24.7223,24.7223,0,0,0-4.1581-5.6275c-2.2194-2.4742-4.5865-5.0479-7.7412-6.0944-1.5781-.5237-3.265-.63-4.8692-1.0666a5.79,5.79,0,0,1-3.9146-2.825c-.4174-.912-.4738-2.0021-1.11-2.7774-.9524-1.161-2.7146-1.1023-4.2076-.9411,1.5448-.0552,2.6076-1.7171,2.665-3.2618a14.0791,14.0791,0,0,0-1.0324-4.4949,1.805,1.805,0,0,1-.0949-1.0088,1.9388,1.9388,0,0,1,.6519-.8414c2.9781-2.6586,3.7827-4.9328,4.8651-8.58a9.1809,9.1809,0,0,0,8.0825-2.9184,14.7434,14.7434,0,0,0,3.5365-7.63c.0982-.5952.1455-1.2.2914-1.7852a11.098,11.098,0,0,1,.581-1.6013c1.601-3.8015,3.1524-7.7339,3.2755-11.8569a2.2576,2.2576,0,0,1,.1791-1.0158,2.4,2.4,0,0,1,.4983-.5679,16.2006,16.2006,0,0,0,3.5262-5.9136c1.32-3.2953,2.4559-6.8313,1.9325-10.3425a11.9956,11.9956,0,0,1,.761,5.1572,20.509,20.509,0,0,1-1.1929,5.0677,15.1861,15.1861,0,0,1-1.5784,3.5137c-.4589.6957-1.019,1.3217-1.4562,2.0312-1.1887,1.9286-1.3723,4.2837-1.836,6.5013a90.2588,90.2588,0,0,1-3.0375,9.4955c-.8677,2.6491-2.3108,6.8005-1.1638,9.5425.8263,1.9752,3.5791,2.5459,5.5042,1.609,2.05-.9977,2.8254-2.8778,3.79-4.7646a11.4907,11.4907,0,0,0,1.1119-7.1732,11.0533,11.0533,0,0,0,2.3843-4.8061q.6615-2.1678,1.323-4.3359a13.345,13.345,0,0,0,.6524-2.8912,6.311,6.311,0,0,1,.1178-1.12,4.8936,4.8936,0,0,1,.73-1.3892c3.0685-4.7234,3.6534-10.5857,4.1545-16.1959.5847,3.6985-.45,7.44-1.4742,11.0418a33.8376,33.8376,0,0,1-1.2773,3.887,25.8493,25.8493,0,0,0-1.0168,2.473,24.21,24.21,0,0,0-.5838,3.5449c-.7946,5.4074-3.9238,10.2263-4.9639,15.5918a9.88,9.88,0,0,0,.1272,4.0316,4.2611,4.2611,0,0,0,2.5713,3.2162c2.1967.7331,4.5146-1.2184,5.2017-3.43a4.3313,4.3313,0,0,0,2.3944,3.81,12.7418,12.7418,0,0,0,4.5557,1.2264c.2267.7885-.8581,1.2544-1.6742,1.339a82.879,82.879,0,0,1-13.1973.3074,17.4091,17.4091,0,0,0-4.804.1261,12.7536,12.7536,0,0,0-3.7831,1.6817,4.4837,4.4837,0,0,0-2.292,2.4887c-.5022,2.0922,1.67,3.5173,3.2854,4.2059C139.9185,157.7627,143.7749,159.495,145.4456,159.0488Z" transform="translate(-44.3316 -44.3316)" fill="#5f3b18" opacity="0.09" style="mix-blend-mode:multiply"/><path d="M123.4638,144.0646a16.5164,16.5164,0,0,1-.1338,2.8387,12.1513,12.1513,0,0,1-3.5495,6.9341,2.324,2.324,0,0,0-.6871.8974,2.1153,2.1153,0,0,0-.0193.8926q.2856,2.3573.5714,4.7149a8.1436,8.1436,0,0,0,.4855,2.312,16.4761,16.4761,0,0,0,1.1988,1.7685,5.6378,5.6378,0,0,1,.6522,1.2607c.0962.3157.1279.6478.2165.9657a4.1278,4.1278,0,0,0,3.1976,2.5884c1.4027.326,2.8669.2376,4.2941.43,5.6279.7574,9.7409,5.6382,12.6451,10.5181a20.5434,20.5434,0,0,1,2.5773,5.8108,8.6363,8.6363,0,0,1-.695,6.1959,10.7046,10.7046,0,0,1-3.0017,3.1081,27.7151,27.7151,0,0,1-15.89,5.4455,12.3353,12.3353,0,0,1-6.9026-1.549c-2.0857-1.3348-3.05-3.597-4.8442-5.277-.7032-.6584-1.4811-1.2333-2.1856-1.89-2.6477-2.469-4.1-5.9271-5.4781-9.2747a38.7319,38.7319,0,0,1-1.5486-4.2154,12.6448,12.6448,0,0,1-.3592-3.5635,62.08,62.08,0,0,1,.9026-8.633,91.376,91.376,0,0,0,.738-10.9273,6.4182,6.4182,0,0,1,.5841-3.32,6.6178,6.6178,0,0,1,1.35-1.438,28.594,28.594,0,0,0,6.2956-8.3916,45.9023,45.9023,0,0,0,2.1232-4.8494c.451-1.2024.6512-3.5491,2.37-3.4547a3.1385,3.1385,0,0,1,1.8732.9453c2.3321,2.1478,3.0619,5.5261,3.2025,8.6934Q123.4572,143.8327,123.4638,144.0646Z" transform="translate(-44.3316 -44.3316)" fill="#f58d77"/><path d="M122.6464,140.3017a16.41,16.41,0,0,1-.1206,7.0332c-.4616,2.1656-1.3091,4.394-3.0838,5.718a5.791,5.791,0,0,1-5.2666.8148c.51.7046,1.4893.8134,2.3165,1.0814s1.6982,1.0717,1.3567,1.8715c-.3141.736-1.3335.7574-2.1275.6587a5.7259,5.7259,0,0,1,2.3768,6.6908,2.5287,2.5287,0,0,1,2.4967,2.1506,7.6167,7.6167,0,0,1-.4264,3.5587,6.9126,6.9126,0,0,0-.3383,3.5609,5.66,5.66,0,0,1,.9306-2.4813,1.94,1.94,0,0,1,2.37-.6362,8.7236,8.7236,0,0,0-1.0178,5.8925c.8494-1.1992.4306-2.9894,1.325-4.1557.8613-1.1234,2.5269-1.1639,3.9268-.953a20.6552,20.6552,0,0,1,16.1049,13.4194,10.33,10.33,0,0,1,.5847,5.3751c-.7233,3.53-3.9838,5.8722-6.992,7.8561,3.448-1.4157,6.8875-3.8124,7.8031-7.4254,1.0389-4.0991-1.4705-8.1738-3.8627-11.6606a35.1609,35.1609,0,0,0-5.4958-6.74,11.8355,11.8355,0,0,0-7.8783-3.2412c-1.4882.0361-3.1737.3935-4.3156-.5616a4.6017,4.6017,0,0,1-1.0138-1.4274c-1.9054-3.5777-3.866-7.393-3.6172-11.4389a2.1434,2.1434,0,0,1,.27-1.0552,2.9393,2.9393,0,0,1,.7452-.6717,9.4028,9.4028,0,0,0,3.0768-5.3739c1.157-4.6317.5287-10.0086-2.8258-13.4057a2.6281,2.6281,0,0,0-1.7651-.94A10.7036,10.7036,0,0,1,122.6464,140.3017Z" transform="translate(-44.3316 -44.3316)" fill="#5f3b18" opacity="0.09" style="mix-blend-mode:multiply"/><path d="M113.9562,142.32a3.7081,3.7081,0,0,0,3.4659-1.3972,6.97,6.97,0,0,0,1.3772-3.62,4.039,4.039,0,0,0-.5415-2.9967.7891.7891,0,0,0-.4205-.3147c-1.0744-.2416-1.5684,2.8491-1.7942,3.4684A47.0853,47.0853,0,0,1,113.9562,142.32Z" transform="translate(-44.3316 -44.3316)" fill="#fff" opacity="0.24" style="mix-blend-mode:overlay"/><path d="M120.8886,138.4206a13.9548,13.9548,0,0,1-.0637,5.4447c-.3675,1.3565-.3219,2.9093-.7963,4.2362a5.2,5.2,0,0,1-2.9729,2.7908,9.7979,9.7979,0,0,1-6.6862.36c-.6287-.1922-1.3163-.69-1.94-.805a.3913.3913,0,0,0-.4737.301c-.0153.2641.3044.3979.5588.47a6.6342,6.6342,0,0,1,1.8134.8263c.1948.1271.4077.3336.3325.5538-.0888.2606-3.5535-.8838-3.9447-.9985a.313.313,0,0,0-.167-.0172.2166.2166,0,0,0-.097.3094.6022.6022,0,0,0,.2889.2261,10.1733,10.1733,0,0,0,3.0638.92c.28.0378.6389.1406.6508.4231a.4712.4712,0,0,1-.2849.3952,2.1117,2.1117,0,0,1-1.6652-.1038l-2.1-.7357a.4478.4478,0,0,0,.0743.5821,1.3048,1.3048,0,0,0,.5754.2773,12.0222,12.0222,0,0,0,3.3825.64,7.9953,7.9953,0,0,1,1.177.0134c2.7458.394,3.1669,3.7874,2.3564,5.9585a11.6371,11.6371,0,0,0-.9858,2.6016c-.227,1.9532,1.5213,3.49,2.5062,5.1917,1.68,2.9039,1.1758,6.6417,2.6446,9.6577,1.5958,3.2765,5.1627,5.0523,8.5663,6.3545s7.0622,2.4745,9.493,5.1893a5.918,5.918,0,0,1,1.1866,5.8749,5.9929,5.9929,0,0,1-3.6546,3.626,6.6709,6.6709,0,0,0,2.78-.8184,33.32,33.32,0,0,0,5.1165-3.0467c1.7966-1.3007,3.1435-2.76,3.3438-5a16.5681,16.5681,0,0,0-1.0228-7.3527,24.5715,24.5715,0,0,0-4.395-7.8938,17.7677,17.7677,0,0,0-11.4307-5.9037c-1.505-.1375-3.1167-.09-4.3938-.8981a6.5553,6.5553,0,0,1-2.2678-3.12,26.8,26.8,0,0,1-2.0964-8.8449,2.6341,2.6341,0,0,1,.0943-1.0959,2.98,2.98,0,0,1,.7341-.97,12.4923,12.4923,0,0,0,3.2779-5.333c1.0894-4.0045-.6268-8.1807-2.3211-11.9693-.3375-.7549-.92-1.9624-1.7908-2.1747a18.4561,18.4561,0,0,0,.9966,1.79A9.1332,9.1332,0,0,1,120.8886,138.4206Z" transform="translate(-44.3316 -44.3316)" fill="#ea786c" opacity="0.13" style="mix-blend-mode:multiply"/><path d="M134.8983,200.2906a10.7049,10.7049,0,0,0,2.8708,1.6922,35.9046,35.9046,0,0,1,4.0734,1.4809c3.2569,1.7679,2.426,5.8524,2.0144,8.9011a46.3266,46.3266,0,0,1-2.6675,11.3785,53.6754,53.6754,0,0,1-4.5005,8.1674c-.1732.2752-.3532.5488-.5277.8241h7.8814c.1506-.9112.2668-1.83.3955-2.7439a91.1462,91.1462,0,0,1,5.01-20.0228c2.2395-5.8022,3.6684-11.6664,7.4369-16.7993a35.496,35.496,0,0,0,3.0675-4.2341,13.724,13.724,0,0,0,1.3784-5.4643c.5388-7.6419-2.4876-15.1353-2.4782-22.796a8.2416,8.2416,0,0,1,.3619-2.756c.2583-.7273.6892-1.3841.9473-2.1116a4.7127,4.7127,0,0,0-.2181-3.1817,5.492,5.492,0,0,1-.196-1.14c-.0182-.3431,1.0912-3.9768.9519-3.985a9.5142,9.5142,0,0,1-6.9495-3.739,18.4121,18.4121,0,0,1,.2862,8.1418,11.88,11.88,0,0,1-4.1245,6.9124,12.962,12.962,0,0,1-2.2049,9.4955,40.5062,40.5062,0,0,1,9.9346,15.9244,9.2876,9.2876,0,0,1,.6346,3.5155c-.1708,2.5973-2.1872,4.6437-4.0772,6.4331a3.7766,3.7766,0,0,1-1.9112,1.1846,1.4772,1.4772,0,0,1-1.4443-.6747,2.4721,2.4721,0,0,1-.7076,1.85,5.1677,5.1677,0,0,1-2.269,1.227c-1.1635.3555-5.8742,1.65-6.54.2736a1.5648,1.5648,0,0,1-.0435-1.04,6.2357,6.2357,0,0,1,1.5488-2.5889,14.9961,14.9961,0,0,0,1.92-2.3595,3.4459,3.4459,0,0,0,.3895-2.92,4.5263,4.5263,0,0,1-.603,2.0056c-2.223,4.3107-6.1015,6.1841-10.5762,7.3427C133.7934,199.1807,134.3455,199.8348,134.8983,200.2906Z" transform="translate(-44.3316 -44.3316)" fill="#ea786c" opacity="0.13" style="mix-blend-mode:multiply"/><path d="M157.1085,120.3662a2.3221,2.3221,0,0,0,.107.8871,3.68,3.68,0,0,0,.7591.9982c1.3348,1.543,1.3285,3.7973,1.2508,5.8362q-.1083,2.8459-.2167,5.6921a.9252.9252,0,0,1-.2656.7509.9127.9127,0,0,1-.4832.1223q-.5839.0369-1.1679.0733c-.0623.3977.5485.4412.922.5909.5758.2309.7009.98.7092,1.6a19.1608,19.1608,0,0,1-.2492,3.3461c-.1915,1.171-.6244,2.4849-1.7244,2.93a3.879,3.879,0,0,1-2.7786-.3277,3.9483,3.9483,0,0,1-4.1729,3.2,18.6907,18.6907,0,0,1-2.1711-.5471,2.7817,2.7817,0,0,0-2.1673.22c4.2415,1.69,9.0468.8668,13.5363,1.6984.756.14,1.6854.561,1.619,1.3269.783-2.0433-.132-4.1042-.3154-6.1408a35.3489,35.3489,0,0,1,.0553-6.9012,65.1944,65.1944,0,0,0,.7913-7.5174q-.0289-3.7669-.28-7.5281a6.2331,6.2331,0,0,0-.85-3.2625c-.6673-.9361-2.0861-1.3965-2.5336-.1411A9.9754,9.9754,0,0,0,157.1085,120.3662Z" transform="translate(-44.3316 -44.3316)" fill="#ea786c" opacity="0.13" style="mix-blend-mode:multiply"/><path d="M142.6773,103.0178c-.1574,3.5585-.8626,7.4568-3.625,9.7056a12.3575,12.3575,0,0,1-4.3011,2.0374,5.2248,5.2248,0,0,1,1.693,1.1125,1.7778,1.7778,0,0,1,.3937,1.8825,1.0932,1.0932,0,0,1-1.6893.3612c.6717,2.2186-.2658,4.571-1.1866,6.6983a15.8221,15.8221,0,0,1-1.9332,3.584,5.3283,5.3283,0,0,1-3.3756,2.1125,14.5687,14.5687,0,0,1,3.0132,1.3359c.43.2526.906.6574.798,1.1444-.1068.4817-.702.6522-1.1948.6784a6.9841,6.9841,0,0,1-2.8367-.4416,1.5328,1.5328,0,0,1,.8454,1.13c.7854,2.8289-.9164,5.8125-3.1507,7.717a9.1656,9.1656,0,0,0-2.7892,2.9206,8.3042,8.3042,0,0,0,4.8987,1.3248c2.1551-.0318,4.4647-.7632,5.6668-2.5522,1.3254-1.972.9515-4.571,1.2218-6.9314a36.1847,36.1847,0,0,1,2.0765-7.1012,63.5366,63.5366,0,0,0,1.8675-7.5141,19.1505,19.1505,0,0,1,1.0174-3.7817,44.4634,44.4634,0,0,1,2.6347-4.4436,21.7313,21.7313,0,0,0,2.1249-5.5992c.59-2.3884.9094-4.9964-.0978-7.2411-.2834-.6314-.992-1.7509-1.632-1.0316C142.588,100.72,142.71,102.28,142.6773,103.0178Z" transform="translate(-44.3316 -44.3316)" fill="#ea786c" opacity="0.13" style="mix-blend-mode:multiply"/><path d="M150.8818,98.6982c2.5,3.74,2.165,8.7661.5734,12.9733a5.9069,5.9069,0,0,1-1.4859,2.45,2.3854,2.3854,0,0,1-2.6776.422c.0646.6213.7752.9126,1.35,1.1567s1.2085.8076.9521,1.3771a6.121,6.121,0,0,1-2.1644-.3537,3.1012,3.1012,0,0,1,1.4109,1.98,5.4873,5.4873,0,0,1-.1792,2.4323,25.188,25.188,0,0,1-3.9081,8.5585c-.8995,1.2686-2.3516,2.585-3.8108,2.0471q1.34.5076,2.6793,1.0155c.4956.1877,1.0895.5285,1.02,1.0541-.0623.4728-.6407.6864-1.1172.6652a3.9237,3.9237,0,0,0-1.4195-.0217c1.1624.5536,1.1319,2.1975.89,3.4621a13.0327,13.0327,0,0,1-1.39,4.2733,4.9735,4.9735,0,0,1-3.5436,2.5361c-1.241.1381-2.7942-.23-3.5136.7906l3.8979,1.5647a6.37,6.37,0,0,0,3.91.6658A4.3572,4.3572,0,0,0,145.1,144.975a15.2861,15.2861,0,0,0,.704-3.9767c.7992-8.0359,3.3756-15.7811,6.1611-23.3612a58.2555,58.2555,0,0,0,2.2039-6.7811,27.2109,27.2109,0,0,0,.6377-8.1993,8.2856,8.2856,0,0,0-1.0544-3.8964,3.6842,3.6842,0,0,0-2.4515-1.7294C149.9888,96.9028,150.3632,97.9224,150.8818,98.6982Z" transform="translate(-44.3316 -44.3316)" fill="#ea786c" opacity="0.13" style="mix-blend-mode:multiply"/><path d="M156.4864,108.7893a17.6254,17.6254,0,0,1,.6763,5.32,4.33,4.33,0,0,1-.39,2.3607,1.4943,1.4943,0,0,1-2.0606.594,1.8109,1.8109,0,0,1,1.6288,1.1967c.1613.7-.6684,1.4961-1.2691,1.102a4.3175,4.3175,0,0,1,.4978,3.0878,52.75,52.75,0,0,1-2.0609,10.2031.7754.7754,0,0,1-.987.707l-1.8421-.1429a1.3163,1.3163,0,0,1,.777,1.4224l-1.5542.2226c1.1825,1.3315,1.3829,3.2468,1.461,5.0258a8.7357,8.7357,0,0,1-.1961,2.7915c-.9678,3.3806-6.1169,2.7133-6.4029-.7146a9.1073,9.1073,0,0,1-2.7926,3.1662,6.13,6.13,0,0,1-4.0313,1.0816c2.9952.3391,5.8394,1.4995,8.8131,1.9925a20.1192,20.1192,0,0,0,9.1464-.61,3.2043,3.2043,0,0,1-1.1165-2.3582c-.0582-.9051.2239-1.7737.1855-2.6684-.0417-.9729-.06-1.9453-.0558-2.9273a49.4686,49.4686,0,0,1,.3065-6.7734c.395-2.7739,1.3017-5.4467,1.9075-8.1824.2772-1.2517.4906-2.5169.6632-3.7871.1649-1.2137-.0666-2.3108.02-3.4893a2.8526,2.8526,0,0,1,.1322-.5982,28.2214,28.2214,0,0,0,1.2479-6.8026,10.1662,10.1662,0,0,0-.2286-3.138,4.793,4.793,0,0,0-1.6493-2.626,2.2159,2.2159,0,0,0-1.5881-.5116,4.8953,4.8953,0,0,0-.1948,2.6646C155.7664,107.2271,156.2075,107.9768,156.4864,108.7893Z" transform="translate(-44.3316 -44.3316)" fill="#ea786c" opacity="0.13" style="mix-blend-mode:multiply"/><path d="M111.2577,216.8584a57.02,57.02,0,0,1-3.631,5.35c-.6744.8813-1.8615,1.7691-1.9854,2.9021-.1467,1.3417.9638,2.8332,1.7425,3.81a26.3461,26.3461,0,0,0,3.8041,3.8145h6.5038a15.482,15.482,0,0,1,.5214-7.96c3.2676-11.6918,10.7946-20.3105,20.1353-27.6447,3.3357-2.6194,7.2959-5.5177,6.4286-10.3233-.7264-4.0255-3.0542-7.5623-5.4787-10.857-1.9554-2.6571-4.2057-5.3813-7.3581-6.354-1.7942-.5536-3.72-.4806-5.56-.8526a5.984,5.984,0,0,1-3.9353-2.3679c1.8293,3.6488,6.5345,4.593,9.2811,7.5073,3.1921,3.3868,3.947,8.4892,2.7068,12.9205a14.8019,14.8019,0,0,1-.582,1.684c-2.1695,5.2279-8.132,9.0407-13.7959,7.0284a14.5522,14.5522,0,0,1-2.9779-1.6113c-4.0707-2.6373-8.3021-5.5588-10.3059-9.976.997,2.5558,2.0414,5.1865,3.9616,7.146.9292.948,2.0347,1.7066,2.9911,2.627,1.7473,1.6818,3.7346,3.5826,3.6853,6.2252a24.9934,24.9934,0,0,1-2.082,8.706A57.1308,57.1308,0,0,1,111.2577,216.8584Z" transform="translate(-44.3316 -44.3316)" fill="#ea786c" opacity="0.13" style="mix-blend-mode:multiply"/><path d="M152.7054,198.272c-4.7455.716-8.92,4.3-13.7112,4.026-3.7651-.2155-7.16-2.8231-10.9278-2.6688a26.6324,26.6324,0,0,1,11.1041-.6266C143.7058,199.5648,148.2308,198.947,152.7054,198.272Z" transform="translate(-44.3316 -44.3316)" fill="#ea786c" opacity="0.13" style="mix-blend-mode:multiply"/><path d="M179.3917,231.7429h37.5857a19.183,19.183,0,0,0,1.646-2.6027,2.7038,2.7038,0,0,0,.3954-1.3614,2.9759,2.9759,0,0,0-.7346-1.5139,78.397,78.397,0,0,1-8.5789-14.5493,34.138,34.138,0,0,1-1.8115-4.7657q-.13-.4629-.24-.9314c-.4232-1.82-.0424-3.6835-.36-5.4281-.5726-3.1462-4.2712-2.4567-6.9354-2.7763a94.5083,94.5083,0,0,0-19.7822-.3009c-1.8885.17-3.7782.4031-5.6754.45-2.1218.0525-4.7541-1.4531-6.6651-1.0953,2.2207,6.0812,5.014,11.8364,6.8175,18.1316C176.6417,220.5433,177.9616,226.1578,179.3917,231.7429Z" transform="translate(-44.3316 -44.3316)" fill="#f58d77"/><path d="M163.8479,122.48a35.0048,35.0048,0,0,0-.4872,3.9037,39.0814,39.0814,0,0,0-.1421,8.0572c.1881,1.557.563,3.0868.7491,4.644a38.7277,38.7277,0,0,1-.2028,8.2608,20.2912,20.2912,0,0,0-.3374,4.2858c.1389,1.038.8475,1.8778.5312,3.0151-.1562.5617-.4932,1.0669-.5947,1.641-.1883,1.0644.4547,2.0715.8656,3.0713,1.146,2.789.5214,5.9443.0553,8.9231a128.9469,128.9469,0,0,0-1.2256,13.48,23.2273,23.2273,0,0,0,.6679,8.5677,23.8657,23.8657,0,0,0,3.3274,5.8948c1.2631,1.8112,2.608,3.695,4.5839,4.6808a13.3452,13.3452,0,0,0,5.6474.9825c5.473.1494,11.2085.2432,16.092-2.2327a21.4458,21.4458,0,0,0,8.9791-9.4368,49.8514,49.8514,0,0,0,4.1087-12.5438c1.7685-8.1673,2.7876-17.01-.6612-24.6214a12.46,12.46,0,0,0-3.1114-4.43c-2.3765-2.0247-5.6674-2.599-8.7891-2.632s-6.256.3954-9.3578.04a18.97,18.97,0,0,1-11.6225-5.9658,7.86,7.86,0,0,1-2.3789-4.8942c-.38-2.7254-1.2657-5.4339-1.7753-8.1462-.2584-1.3751-.4975-2.7545-.707-4.138a6.5842,6.5842,0,0,0-.4555-2.4492C166.0606,118.1845,164.159,120.938,163.8479,122.48Z" transform="translate(-44.3316 -44.3316)" fill="#ea786c"/><path d="M206.6016,157.1826c-1.4109,1.9559-.9566,4.9689-.9643,7.3308a3.6967,3.6967,0,0,1-.18,1.3277,6.68,6.68,0,0,1-.7892,1.2428c-1.1156,1.6642-1.2021,3.9286-2.57,5.392a.9816.9816,0,0,1-.4042.2917,1.2086,1.2086,0,0,1-.67-.0639c-3.1833-.8776-6.5224.4184-9.5421,1.7538a16.9558,16.9558,0,0,0-5.0381,2.9976c1.0961-1.0527,1.6385-2.6745,2.8765-3.7441a13.5059,13.5059,0,0,1,4.119-2.4121,11.6838,11.6838,0,0,1,4.9824-.8855c.6974.0754,1.0663.4257,1.75.0756.79-.4048.955-1.5033,1.1923-2.2581.4215-1.3407,1.2016-2.5483,1.6054-3.8942a21.89,21.89,0,0,0,.691-2.9348c.058-.38-.0868-3.2755.0206-3.352a65.2833,65.2833,0,0,1-7.2743,4.7069c-3.264,1.7229-6.89,2.9386-9.573,5.4728a20.3625,20.3625,0,0,0-3.341,4.3991,53.5228,53.5228,0,0,0-7.0364,19.5552c-.0387-3.3117,1.0267-6.5249,2.08-9.6648,1.5112-4.5048,3.1144-9.1657,6.392-12.6058a29.406,29.406,0,0,1,5.0668-4.012c1.9323-1.291,3.8943-2.5366,5.8561-3.7822q2.8872-1.8329,5.774-3.6658A3.3709,3.3709,0,0,0,202.9,157.29c.5245-1-.8692-2.4076-1.4435-3.1963a13.9017,13.9017,0,0,0-3.0617-2.9585c-3.0212-2.2175-6.6645-2.5758-10.3342-2.46a3.8356,3.8356,0,0,0,3.0515-1.8942,5.1944,5.1944,0,0,0,3.0608.563c1.8661-.0671,3.905-.35,5.1734-1.72a10.1675,10.1675,0,0,0,1.6945-3.52,4.7168,4.7168,0,0,1,2.39-2.9741,18.4747,18.4747,0,0,0,.3642,13.8034,6.3436,6.3436,0,0,0,1.69,2.3263,2.9822,2.9822,0,0,0,2.7183.6A4.1754,4.1754,0,0,0,206.6016,157.1826Z" transform="translate(-44.3316 -44.3316)" fill="#ea786c" opacity="0.13" style="mix-blend-mode:multiply"/><path d="M165.7717,108.3647a8.1709,8.1709,0,0,0-.6563,4.0045,23.1737,23.1737,0,0,0,.8675,5.5115,41.8169,41.8169,0,0,1,1.2612,4.4987c.1827,1.0972.1975,2.2144.287,3.3231a33.0442,33.0442,0,0,0,1.6959,7.7707,16.4159,16.4159,0,0,1,1.149,4.705,25.7291,25.7291,0,0,1-.2062,2.7278,23.5657,23.5657,0,0,0,.2266,5.0532c.2253,1.6733.6854,3.552,2.1637,4.3677,1.3268.732,2.9661.3205,4.42-.1079l5.1979-1.5319a2.4135,2.4135,0,0,0,1.5764-.9728,2.528,2.528,0,0,0-.2267-2.0571c-2.9274-7.2643-2.7456-15.4779-5.5829-22.7779-1.9062-4.9044-5.112-9.2249-6.9752-14.1456-.3876-1.0238-.8354-2.4456-2.063-2.55C167.6233,106.0741,166.2988,107.3264,165.7717,108.3647Z" transform="translate(-44.3316 -44.3316)" fill="#ef8070"/><path d="M176.55,101.7136a4.2469,4.2469,0,0,0-1.2272-1.7886,3.0672,3.0672,0,0,0-3.0861-.0086,6.8642,6.8642,0,0,0-3.4281,5.2863,16.6055,16.6055,0,0,0,.7065,6.4747q.5862,2.2144,1.3386,4.38a6.15,6.15,0,0,0,2.142,3.36,1.9309,1.9309,0,0,1,.5153.3891,1.6744,1.6744,0,0,1,.1412,1.2406,14.6691,14.6691,0,0,0,.9331,5.8688,27.1738,27.1738,0,0,0,2.7634,6.8215,5.52,5.52,0,0,1,.4947.8673,4.8583,4.8583,0,0,1,.26,1.3587,42.336,42.336,0,0,0,2.3923,10.4252,3.4252,3.4252,0,0,0,.6389,1.1946,3.3256,3.3256,0,0,0,2.0126.8155,22.1639,22.1639,0,0,0,6.5985-.034,2.2226,2.2226,0,0,0,1.03-.351,2.0009,2.0009,0,0,0,.6065-.9787,10.944,10.944,0,0,0,.1926-5.2347,56.9072,56.9072,0,0,0-1.4537-6.1893,89.9157,89.9157,0,0,0-4.9853-14.7539c-1.5408-3.2588-3.4692-6.327-4.8721-9.6524C178.9338,108.0524,177.98,104.8482,176.55,101.7136Z" transform="translate(-44.3316 -44.3316)" fill="#f48570"/><path d="M190.2163,111.3394q-.2094-.3472-.42-.6934c-1.1987-1.9745-2.596-3.8569-3.8889-5.7738a10.19,10.19,0,0,0-1.4311-1.8094,3.126,3.126,0,0,0-4.6331.2625,6.183,6.183,0,0,0-1.2109,4.8452,18.3278,18.3278,0,0,0,1.6013,4.8724c.7126,1.6335,1.3666,3.31,2.1438,4.9138.4805.9911,1.5662,1.8,1.8552,2.8412a4.2813,4.2813,0,0,1,.05,1.2657,11.9864,11.9864,0,0,0,1.0124,4.4438q.9138,2.4308,1.7,4.9071a40.0268,40.0268,0,0,0,1.804,4.7856,8.1612,8.1612,0,0,1,.5077,1.8147q.8191,4.134,1.6385,8.2681a1.8932,1.8932,0,0,0,.2894.7992,1.5987,1.5987,0,0,0,.5534.4192,9.7176,9.7176,0,0,0,4.2076.8105c3.7376.12,8.596-.4922,7.9755-5.5354a10.4417,10.4417,0,0,0-.8211-2.65q-3.659-8.9161-7.3182-17.8323a14.2959,14.2959,0,0,0-1.1369-2.3509c-.3306-.5127-.7261-.9821-1.037-1.507-.6694-1.1307-.9652-2.4521-1.5286-3.6375C191.5635,113.6076,190.8974,112.4682,190.2163,111.3394Z" transform="translate(-44.3316 -44.3316)" fill="#f58d77"/><path d="M185.1387,118.5893a3.7077,3.7077,0,0,0,2.3564-.2875,15.5509,15.5509,0,0,1,3.4964-1.4887.87.87,0,0,1-.3574.8815,3.3417,3.3417,0,0,1-.9106.4278,7.2123,7.2123,0,0,0-2.0773,1.216.8975.8975,0,0,0-.4.63.6474.6474,0,0,0,.5705.5713,1.8917,1.8917,0,0,0,.86-.1272l2.8833-.9a4.96,4.96,0,0,1-2.0851,1.47,8.23,8.23,0,0,0-2.2434,1.2538c-1.63,1.48-.9837,3.3563-.2827,5.0891.6616,1.6358,2.43,7.3078,4.66,7.2522a3.1986,3.1986,0,0,0,1.2808-.4086l1.6941-.8194a4.867,4.867,0,0,1,2.7328-.706,25.1909,25.1909,0,0,1-4.66,2.1672,1.7684,1.7684,0,0,0-.8286.4627.5833.5833,0,0,0,.06.8443.84.84,0,0,0,.5559.0425q2.8728-.44,5.7263-.9975a2.6121,2.6121,0,0,1-1.7961.9693l-3.989.9061a2.1262,2.1262,0,0,0-.9059.36c-1.1842.9756.4324,4.928.8282,6.0727a8.4031,8.4031,0,0,0,1.9018,3.3639,3.6788,3.6788,0,0,0,3.5648,1.0328c-1.6134.3208-3.3006-.2426-4.9193.0512a20.3015,20.3015,0,0,0-2.7977.9685,8.8915,8.8915,0,0,1-6.0963-.1693,5.8247,5.8247,0,0,0,3.7638-1.2051c2.1766-2.1511.7049-7.1038-.2116-9.5934a2.331,2.331,0,0,0-.642-1.0609c-.6915-.5532-2.38.3517-3.1984.43a12.5726,12.5726,0,0,1-3.6838-.0382,1.2381,1.2381,0,0,1-.6249-.2663.4826.4826,0,0,1-.0937-.62c.1982-.2508.5927-.1339.891-.0192a5.8926,5.8926,0,0,0,3.65.1806,3.172,3.172,0,0,0,1.343-.6864,1.67,1.67,0,0,0,.5636-1.3565c-2.3156-.3937-4.6009,1.47-6.9.9868a2.8053,2.8053,0,0,1,1.94-.7356,18.3943,18.3943,0,0,0,4.8755-1.3166,1.1185,1.1185,0,0,0,.5492-.386,1.0213,1.0213,0,0,0,.0922-.64c-.1354-1.3666-1.0966-2.4473-1.5844-3.7071a20.2934,20.2934,0,0,1-1.2075-4.274c-.2376-1.5721-.29-3.73-.91-5.1891-.7381-1.7381-3.0656-.8514-4.3029-.1761-1.1372.6209-2.3834,1.3377-3.6468,1.0506-.1521-.3821.3442-.6811.7354-.808a16.073,16.073,0,0,0,3.3015-1.5018c.4181-.2506.8829-.7089.6633-1.144a9.1462,9.1462,0,0,0-2.9094,1.2094,5.5435,5.5435,0,0,1-2.6136.4531.5355.5355,0,0,1-.0045-.5089,8.9553,8.9553,0,0,0,3.6562-1.3281c2.7927-2.0893.0921-5.1832-.418-7.7822-.461-2.3482-.1515-8.9887-4.0476-8.3519a4.46,4.46,0,0,0-2.9961,1.6727,4.04,4.04,0,0,1,2.5372-2.1072c3.092-.8431,3.9949,1.617,4.6958,4.0415a6.1179,6.1179,0,0,0,1.5895,3.1856,14.2353,14.2353,0,0,1,.4724-2.7,3.4192,3.4192,0,0,1,1.7827-2.0451c2.5787-1.07,4.6649,1.7732,5.46,3.8237-1.0489-.9765-2.7213-2.0757-4.2327-1.7111A2.861,2.861,0,0,0,180.552,105.9c-1.2743,2.2373-.9177,4.7832.0418,7.0646C181.5229,115.1732,182.8856,118.0685,185.1387,118.5893Z" transform="translate(-44.3316 -44.3316)" fill="#ea786c" opacity="0.13" style="mix-blend-mode:multiply"/><path d="M183.5428,119.4621a5.4475,5.4475,0,0,1,.7932,1.3565,6.0163,6.0163,0,0,1,.2116,1.4914c.2536,3.3848,1.6946,6.5462,2.9019,9.7187a74.7787,74.7787,0,0,1,3.0523,10.1239c.7394,3.2755,2.0983,5.78,5.84,5.984a16.637,16.637,0,0,0,4.7257-.6568,6.422,6.422,0,0,1-4.3137,1.5887c-1.5666.0769-3.1428-.1149-4.7028.0491-1.9383.2034-3.8274.953-5.7719.8253-2.2123-.1454-3.9745-.8069-6.2078-.4054-1.0893.1958-2.0948.6493-3.16.9286a10.882,10.882,0,0,1-2.6967.112,11.991,11.991,0,0,0,3.8914-.7973,3.3918,3.3918,0,0,0,1.9609-1.509c.478-1.0054.03-2.1822-.38-3.2171a45.38,45.38,0,0,1-2.6079-9.451,10.8139,10.8139,0,0,0-.3916-1.8228,13.3283,13.3283,0,0,0-.8345-1.7345c-1.5966-3.0792-2.244-6.5462-2.9365-9.945a10.7563,10.7563,0,0,0-.5259-1.9407,21.1689,21.1689,0,0,0-1.1912-2.1664,18.3626,18.3626,0,0,1-1.8887-8.1481c-.0575-1.3177-.2854-2.9629-1.5424-3.3629a2.7459,2.7459,0,0,1,1.2505-.2731q.53-2.175,1.0592-4.35a24.0236,24.0236,0,0,0,3.2039,17.6624,4.5343,4.5343,0,0,1,.49.8993,4.4619,4.4619,0,0,1,.181,1.2328,28.5918,28.5918,0,0,0,3.0091,11.1482,8.4721,8.4721,0,0,1,.7512,1.76,8.9685,8.9685,0,0,1,.1685,1.74,20.9009,20.9009,0,0,0,2.5054,8.996,7.5339,7.5339,0,0,0,1.7512,2.302c1.55,1.2671,4.2324,1.1361,6.1077.9714,1.9779-.1739,2.3905-1.4872,2.2241-3.3689-.6932-7.8357-5.1023-14.91-6.2846-22.6874a7.0642,7.0642,0,0,0-.3544-1.5953,7.4878,7.4878,0,0,0-1.2109-1.7881,19.3693,19.3693,0,0,1-4.2288-12.5008A28.988,28.988,0,0,0,183.5428,119.4621Z" transform="translate(-44.3316 -44.3316)" fill="#5f3b18" opacity="0.09" style="mix-blend-mode:multiply"/><path d="M171.0781,121.8166a.9669.9669,0,0,1,.4587.2019,1.3645,1.3645,0,0,1,.301.4351,28.5149,28.5149,0,0,1,1.7731,5q1.0931,3.6875,1.8878,7.4543l-3.944.814c-.16.4062.4755.6249.9111.596l3.7843-.2512a1.3626,1.3626,0,0,1,.1207.8665q-2.1138.1711-4.2275.3421l2.7083.4148a1.8055,1.8055,0,0,1,1.91,1.6122c.7334,2.6074,1.3884,5.179.0689,7.8054-.9761,1.9428-3.4179,3.3035-5.3882,2.3841a4.386,4.386,0,0,0,4.0566,1.3717,19.324,19.324,0,0,0,4.2583-1.37,7.8091,7.8091,0,0,1,4.3784-.61,3.539,3.539,0,0,1-3-1.4419,10.13,10.13,0,0,1-1.507-3.1083,32.5537,32.5537,0,0,1-1.8614-7.243,12.7439,12.7439,0,0,0-.3978-2.6583,15.6662,15.6662,0,0,0-1.3442-2.574c-1.7966-3.2771-1.9088-7.1823-2.8829-10.79-1.3536-5.0135-3.9992-9.4107-4.142-14.7291-1.7924-.47-3.1911,1.6-3.4738,3.1564a1.7244,1.7244,0,0,1,1.3147-.7022c2.08.2573,3.02,7.1427,3.7244,8.7651.5334,1.2286-.0217,1.8621-1.3437,2.1776a11.0086,11.0086,0,0,0-2.094.5041c-.0968.0445-.2045.1156-.2036.222.0014.167.239.1983.4032.1678a17.6038,17.6038,0,0,1,3.4692-.6849.63.63,0,0,1,.4544.1411.4647.4647,0,0,1-.0415.6061,1.3525,1.3525,0,0,1-.5763.3237q-1.5885.573-3.177,1.1461c1.1262.3265,2.2957-.4752,3.4632-.3668C170.972,121.8,171.0253,121.8067,171.0781,121.8166Z" transform="translate(-44.3316 -44.3316)" fill="#ea786c" opacity="0.13" style="mix-blend-mode:multiply"/><path d="M168.8326,130.7758c.7714,2.8421,1.8657,5.6383,2.0179,8.5793.08,1.5528-.1054,3.1076-.0891,4.6623a8.3662,8.3662,0,0,0,1.0975,4.4695,4.1073,4.1073,0,0,0,3.9306,1.9873,27.1967,27.1967,0,0,1-6.0627.4094q-2.8008-.02-5.6015-.041a16.3376,16.3376,0,0,0,3.394-1.0785,4.3315,4.3315,0,0,0,1.9359-1.213,4.1081,4.1081,0,0,0,.5841-2.552,37.3012,37.3012,0,0,0-.6654-6.824,13.66,13.66,0,0,1-3.0571-.1354,4.2392,4.2392,0,0,0,3.0267-.9244,16.94,16.94,0,0,0-4.0611.022l2.48-.7929a2.057,2.057,0,0,0,1.1175-.6464,1.9786,1.9786,0,0,0,.1794-1.4065,24.0919,24.0919,0,0,0-1.1423-4.8077,2.822,2.822,0,0,0-.51-.9885c-.6692-.7407-1.84-.6343-2.8243-.4681.3546-.734,1.5874-.194,2.24-.6822a1.6119,1.6119,0,0,0,.4477-1.3083,28.3555,28.3555,0,0,0-.41-5.4214c-.1248-.7206-.4734-1.59-1.3056-1.6458,1.4572-2.2145,1.8065,3.1656,1.8782,3.6644A59.6609,59.6609,0,0,0,168.8326,130.7758Z" transform="translate(-44.3316 -44.3316)" fill="#5f3b18" opacity="0.09" style="mix-blend-mode:multiply"/><path d="M165.3512,153.7462a2.7152,2.7152,0,0,1-.37,1.4125,3.2017,3.2017,0,0,0,1.9341,4.0112,11.5471,11.5471,0,0,0,1.8329.2913,17.9642,17.9642,0,0,1,2.1434.5415,30.8606,30.8606,0,0,0,10.6581.9187c4.1687-.3151,8.6162-1.4928,11.1989-4.78-1.2855,2.9883-4.55,4.6162-7.7078,5.3963a26.1451,26.1451,0,0,1-12.4579.0053,29.0007,29.0007,0,0,0-5.6128-1.2074,1.03,1.03,0,0,0-.7068.1526.874.874,0,0,0-.0935,1.0374,5.8639,5.8639,0,0,1,.5119.9969c.2788,1.0876-.9858,1.9451-1.25,3.0364a6.5268,6.5268,0,0,0,.3482,2.5309c.4611,2.8109-2.0608,5.3575-1.9993,8.2052-.126-3.0011.5948-5.9632,1.0478-8.9327s.62-6.11-.5478-8.8779a4.5418,4.5418,0,0,1-.4737-1.4717c-.051-.9156.5787-1.7675.5256-2.6833-.0526-.9036-.9238-1.884-.4766-2.7271A6.5,6.5,0,0,1,165.3512,153.7462Z" transform="translate(-44.3316 -44.3316)" fill="#ea786c" opacity="0.13" style="mix-blend-mode:multiply"/><path d="M187.9693,163.7821a52.795,52.795,0,0,0-15.4228,11.3641,41.0075,41.0075,0,0,1,5.36-5.6683c1.9466-1.5939,4.1688-2.8151,6.1923-4.31a20.0178,20.0178,0,0,1,2.46-1.6976,12.84,12.84,0,0,1,2.623-.9591,49.4176,49.4176,0,0,1,6.4923-1.3252A41.9117,41.9117,0,0,0,187.9693,163.7821Z" transform="translate(-44.3316 -44.3316)" fill="#ea786c" opacity="0.13" style="mix-blend-mode:multiply"/><path d="M201.7229,147.3318c-.05.2575-.1346.5578-.382.6458-.3549.1262-.654-.2865-.7925-.6368A12.091,12.091,0,0,1,201,137.5755c.9611-1.8993,2.0556,2.1257,2.0172,2.934A49.8436,49.8436,0,0,1,201.7229,147.3318Z" transform="translate(-44.3316 -44.3316)" fill="#ea786c" opacity="0.13" style="mix-blend-mode:multiply"/><path d="M179.0547,176.9437q-1.2876,5.6961-2.5753,11.3921,1.4052-8.3573,3.3417-16.6135a10.77,10.77,0,0,1,.9812-2.89,11.0426,11.0426,0,0,1,4.0457-3.5716C180.9242,167.5688,179.9733,172.88,179.0547,176.9437Z" transform="translate(-44.3316 -44.3316)" fill="#ea786c" opacity="0.13" style="mix-blend-mode:multiply"/><path d="M179.0006,161.6684a3.5589,3.5589,0,0,1,.0458,6.8641c.9513-.4124,1.8122.9091,1.6571,1.9344s-.81,1.9526-.8057,2.9894c.91-.4117,1.958.5352,2.0592,1.5285a5.1823,5.1823,0,0,1-.8723,2.8174c-2.2885,4.3711-3.8165,9.3929-2.8533,14.2319s4.9814,9.2923,9.9111,9.4963a12.3325,12.3325,0,0,1-5.7807-16.44,24.7253,24.7253,0,0,1,4.1581-5.6275c2.2195-2.4743,4.5867-5.0478,7.7414-6.0946,1.5781-.5235,3.2647-.6293,4.8691-1.0663a5.7887,5.7887,0,0,0,3.9144-2.8251c.4175-.9119.474-2.002,1.11-2.7773.9526-1.161,2.7146-1.1024,4.2077-.9411-1.5449-.0552-2.6076-1.7171-2.6651-3.2619a14.0773,14.0773,0,0,1,1.0326-4.495,1.8041,1.8041,0,0,0,.0947-1.0086,1.9383,1.9383,0,0,0-.652-.8414c-2.9778-2.6587-3.7824-4.9328-4.8651-8.58a9.1806,9.1806,0,0,1-8.0825-2.9187,14.7394,14.7394,0,0,1-3.5362-7.63c-.0982-.5952-.1458-1.2-.2917-1.7852a11.0561,11.0561,0,0,0-.581-1.6014c-1.6009-3.8016-3.1522-7.7339-3.2753-11.8569a2.2571,2.2571,0,0,0-.1791-1.0159,2.4032,2.4032,0,0,0-.4983-.5678,16.2006,16.2006,0,0,1-3.5263-5.9136c-1.32-3.2954-2.4559-6.8313-1.9325-10.3424a11.9982,11.9982,0,0,0-.761,5.1571,20.5144,20.5144,0,0,0,1.193,5.0678,15.175,15.175,0,0,0,1.5785,3.5136c.4587.6957,1.0188,1.3218,1.456,2.0311,1.1888,1.9288,1.3723,4.2839,1.836,6.5015a90.2429,90.2429,0,0,0,3.0375,9.4955c.8679,2.6488,2.3108,6.8,1.1637,9.5425-.8262,1.9752-3.579,2.5459-5.504,1.609-2.05-.9977-2.8254-2.878-3.79-4.7647a11.49,11.49,0,0,1-1.112-7.1732,11.0517,11.0517,0,0,1-2.3842-4.806l-1.323-4.3359a13.3422,13.3422,0,0,1-.6524-2.8914,6.3047,6.3047,0,0,0-.1179-1.12,4.8928,4.8928,0,0,0-.73-1.3891c-3.0685-4.7234-3.6534-10.5856-4.1545-16.1959-.5848,3.6985.45,7.44,1.4741,11.0416a33.8344,33.8344,0,0,0,1.2773,3.8872,25.8714,25.8714,0,0,1,1.0169,2.473,24.2155,24.2155,0,0,1,.5837,3.5447c.7947,5.4074,3.9238,10.2265,4.9639,15.5921a9.8794,9.8794,0,0,1-.1272,4.0314,4.2606,4.2606,0,0,1-2.5713,3.2162c-2.1967.7333-4.5145-1.2182-5.2016-3.43a4.3316,4.3316,0,0,1-2.3944,3.8106,12.7422,12.7422,0,0,1-4.5557,1.2263c-.2267.7884.8581,1.2546,1.6741,1.339a82.8564,82.8564,0,0,0,13.1974.3075,17.4084,17.4084,0,0,1,4.8039.1262,12.7536,12.7536,0,0,1,3.7832,1.6815,4.4827,4.4827,0,0,1,2.292,2.4889c.502,2.0922-1.67,3.5173-3.2854,4.2059C184.5278,160.3824,180.6713,162.1148,179.0006,161.6684Z" transform="translate(-44.3316 -44.3316)" fill="#5f3b18" opacity="0.09" style="mix-blend-mode:multiply"/><path d="M200.9825,146.6842a16.5383,16.5383,0,0,0,.1337,2.8389,12.15,12.15,0,0,0,3.55,6.9339,2.3247,2.3247,0,0,1,.687.8974,2.1171,2.1171,0,0,1,.0194.8926q-.2859,2.3577-.5716,4.7152a8.14,8.14,0,0,1-.4855,2.3119,16.4038,16.4038,0,0,1-1.1989,1.7685,5.6422,5.6422,0,0,0-.6519,1.2606c-.0963.3158-.1279.6479-.2167.9659a4.1279,4.1279,0,0,1-3.1976,2.5884c-1.4025.326-2.8669.2376-4.2939.43-5.6281.7574-9.741,5.6383-12.6452,10.5181a20.5415,20.5415,0,0,0-2.5774,5.8107,8.6375,8.6375,0,0,0,.6951,6.196A10.7021,10.7021,0,0,0,183.23,197.92a27.7183,27.7183,0,0,0,15.89,5.4456,12.3358,12.3358,0,0,0,6.9025-1.549c2.0857-1.3348,3.05-3.5971,4.8444-5.277.7031-.6585,1.4811-1.2333,2.1856-1.89,2.6475-2.469,4.1-5.927,5.4781-9.2748a38.7573,38.7573,0,0,0,1.5486-4.2152,12.6452,12.6452,0,0,0,.3589-3.5637,62.0692,62.0692,0,0,0-.9025-8.6331,91.3919,91.3919,0,0,1-.7379-10.9271,6.4214,6.4214,0,0,0-.5841-3.32,6.6182,6.6182,0,0,0-1.3507-1.4379,28.5965,28.5965,0,0,1-6.2953-8.3916,45.921,45.921,0,0,1-2.1233-4.8494c-.451-1.2025-.6512-3.5491-2.37-3.4548a3.1392,3.1392,0,0,0-1.8732.9452c-2.332,2.148-3.062,5.5262-3.2026,8.6936Q200.9894,146.4525,200.9825,146.6842Z" transform="translate(-44.3316 -44.3316)" fill="#f58d77"/><path d="M201.8,142.9213a16.4087,16.4087,0,0,0,.1206,7.0334c.4617,2.1655,1.3093,4.3938,3.0839,5.7179a5.7912,5.7912,0,0,0,5.2666.8149c-.51.7047-1.4893.8132-2.3165,1.0815s-1.6981,1.0715-1.3568,1.8713c.3141.7359,1.3336.7576,2.1276.6588a5.7256,5.7256,0,0,0-2.3769,6.6906,2.5291,2.5291,0,0,0-2.4966,2.1509,7.613,7.613,0,0,0,.4265,3.5587,6.9087,6.9087,0,0,1,.338,3.5608,5.6572,5.6572,0,0,0-.93-2.4812,1.94,1.94,0,0,0-2.37-.6363,8.7237,8.7237,0,0,1,1.018,5.8925c-.85-1.1992-.4309-2.9894-1.325-4.1556-.8615-1.1235-2.5269-1.1639-3.9269-.953a20.655,20.655,0,0,0-16.105,13.4193,10.33,10.33,0,0,0-.5846,5.375c.7233,3.53,3.9838,5.8722,6.992,7.8562-3.4481-1.4159-6.8875-3.8124-7.8031-7.4255-1.0389-4.0991,1.47-8.1736,3.8626-11.6606a35.1642,35.1642,0,0,1,5.496-6.74,11.8359,11.8359,0,0,1,7.8783-3.241c1.4882.0358,3.1735.3934,4.3153-.5617a4.598,4.598,0,0,0,1.0138-1.4274c1.9056-3.5776,3.8661-7.3931,3.6172-11.4389a2.14,2.14,0,0,0-.27-1.0552,2.95,2.95,0,0,0-.7451-.6719,9.4021,9.4021,0,0,1-3.0769-5.3736c-1.157-4.6317-.5286-10.0086,2.8257-13.4057a2.6292,2.6292,0,0,1,1.7652-.94A10.7047,10.7047,0,0,0,201.8,142.9213Z" transform="translate(-44.3316 -44.3316)" fill="#5f3b18" opacity="0.09" style="mix-blend-mode:multiply"/><path d="M210.49,144.9393a3.7076,3.7076,0,0,1-3.4659-1.3971,6.9731,6.9731,0,0,1-1.3773-3.62,4.0393,4.0393,0,0,1,.5417-2.9966.7864.7864,0,0,1,.42-.3147c1.0746-.2418,1.5685,2.8488,1.7942,3.4684A47.1139,47.1139,0,0,0,210.49,144.9393Z" transform="translate(-44.3316 -44.3316)" fill="#fff" opacity="0.24" style="mix-blend-mode:overlay"/><path d="M209.7425,143.1994a6.7,6.7,0,0,1,.75,1.4281.3135.3135,0,0,1,.0221.2393c-.0472.1009-.1795.1227-.2909.1241a5.1968,5.1968,0,0,1-2.8667-1.2119,4.8013,4.8013,0,0,0,2.4377-.46" transform="translate(-44.3316 -44.3316)" fill="#fff" opacity="0.24" style="mix-blend-mode:overlay"/><path d="M203.5576,141.04a13.9543,13.9543,0,0,0,.0638,5.4446c.3676,1.3567.322,2.9093.7963,4.2362a5.2,5.2,0,0,0,2.9728,2.7909,9.7981,9.7981,0,0,0,6.6863.36c.6286-.1921,1.3162-.69,1.94-.8049a.3912.3912,0,0,1,.4738.301c.0153.2641-.3045.3977-.559.47a6.6307,6.6307,0,0,0-1.8131.8261c-.1949.1273-.4077.3336-.3325.5539.0885.2606,3.5535-.8838,3.9445-.9984a.3167.3167,0,0,1,.1672-.0175.2167.2167,0,0,1,.0968.31.602.602,0,0,1-.289.2261,10.1747,10.1747,0,0,1-3.0638.92c-.28.0376-.6389.1406-.6506.4228a.4708.4708,0,0,0,.285.3954,2.1113,2.1113,0,0,0,1.6649-.1037l2.1-.7358a.4477.4477,0,0,1-.0742.5822,1.3039,1.3039,0,0,1-.5753.2773,12.022,12.022,0,0,1-3.3826.64,7.9819,7.9819,0,0,0-1.177.0132c-2.7457.3943-3.1668,3.7875-2.3564,5.9585a11.6322,11.6322,0,0,1,.986,2.6019c.2268,1.9532-1.5214,3.49-2.5062,5.1916-1.68,2.9039-1.1758,6.6415-2.6449,9.6578-1.5955,3.2762-5.1627,5.0522-8.5662,6.3542s-7.062,2.4746-9.4931,5.19a5.9183,5.9183,0,0,0-1.1865,5.8748,5.9921,5.9921,0,0,0,3.6548,3.6259,6.67,6.67,0,0,1-2.7806-.8184,33.3138,33.3138,0,0,1-5.1163-3.0466c-1.7967-1.3006-3.1436-2.76-3.344-5a16.5683,16.5683,0,0,1,1.0228-7.3527,24.5723,24.5723,0,0,1,4.3952-7.8938,17.7664,17.7664,0,0,1,11.4306-5.9036c1.5049-.1377,3.1167-.09,4.3938-.8982a6.5531,6.5531,0,0,0,2.2677-3.12,26.8011,26.8011,0,0,0,2.0966-8.8447,2.6333,2.6333,0,0,0-.0944-1.0958,2.9778,2.9778,0,0,0-.7342-.97,12.4954,12.4954,0,0,1-3.278-5.333c-1.0893-4.0047.627-8.1806,2.3212-11.9694.3376-.7548.92-1.9622,1.7907-2.1745a18.4729,18.4729,0,0,1-.9963,1.79A9.14,9.14,0,0,0,203.5576,141.04Z" transform="translate(-44.3316 -44.3316)" fill="#ea786c" opacity="0.13" style="mix-blend-mode:multiply"/><path d="M163.1156,186.09a13.7271,13.7271,0,0,0,1.3785,5.4644,35.4816,35.4816,0,0,0,3.0675,4.2338c3.7685,5.1332,5.1975,10.9973,7.437,16.7993a90.26,90.26,0,0,1,4.8666,19.1552h6.1765a39.7426,39.7426,0,0,1-2.785-5.38,46.3347,46.3347,0,0,1-2.6673-11.3787c-.4115-3.0484-1.2425-7.1329,2.0144-8.9009a35.8908,35.8908,0,0,1,4.0733-1.4809,10.6956,10.6956,0,0,0,2.8707-1.6922c.5531-.4558,1.1051-1.11.9364-1.8063-4.4745-1.1585-8.3531-3.0321-10.5761-7.3429a4.5252,4.5252,0,0,1-.603-2.0053,3.4463,3.4463,0,0,0,.3894,2.92,15.0125,15.0125,0,0,0,1.92,2.3595,6.2337,6.2337,0,0,1,1.5488,2.5888,1.5658,1.5658,0,0,1-.0435,1.04c-.666,1.3762-5.3769.082-6.54-.2733a5.1706,5.1706,0,0,1-2.269-1.2272,2.4734,2.4734,0,0,1-.7076-1.85,1.4775,1.4775,0,0,1-1.4443.675,3.7765,3.7765,0,0,1-1.9112-1.1847c-1.89-1.79-3.9065-3.8359-4.0773-6.433a9.29,9.29,0,0,1,.6346-3.5156,40.5035,40.5035,0,0,1,9.9347-15.9243,12.9617,12.9617,0,0,1-2.2048-9.4957,11.8789,11.8789,0,0,1-4.1246-6.9123,18.4129,18.4129,0,0,1,.2861-8.1417,9.5138,9.5138,0,0,1-6.9495,3.7389c-.1392.0083.97,3.6418.952,3.985a5.4886,5.4886,0,0,1-.1961,1.14,4.7145,4.7145,0,0,0-.218,3.1819c.258.7275.6889,1.3841.9472,2.1116a8.2358,8.2358,0,0,1,.3619,2.756C165.6032,170.9549,162.5768,178.4484,163.1156,186.09Z" transform="translate(-44.3316 -44.3316)" fill="#ea786c" opacity="0.13" style="mix-blend-mode:multiply"/><path d="M167.3377,123.978a2.32,2.32,0,0,1-.1069.8871,3.6827,3.6827,0,0,1-.7591.9982c-1.3348,1.5431-1.3285,3.7973-1.2509,5.836q.1085,2.8464.2167,5.6923a.9256.9256,0,0,0,.2656.7509.9131.9131,0,0,0,.4832.1223l1.168.0733c.0622.3975-.5486.4412-.9221.591-.5757.2306-.7009.9794-.7092,1.6a19.17,19.17,0,0,0,.2493,3.3461c.1915,1.171.6244,2.4849,1.7243,2.93a3.88,3.88,0,0,0,2.7787-.3277,3.9484,3.9484,0,0,0,4.1729,3.2,18.7515,18.7515,0,0,0,2.1711-.5471,2.78,2.78,0,0,1,2.1673.22c-4.2416,1.69-9.0468.8667-13.5364,1.6981-.756.14-1.6854.5611-1.6189,1.3271-.783-2.0433.132-4.1044.3153-6.1408a35.34,35.34,0,0,0-.0552-6.9011,65.1548,65.1548,0,0,1-.7913-7.5174q.029-3.7671.28-7.5282a6.2344,6.2344,0,0,1,.85-3.2626c.6674-.936,2.0861-1.3964,2.5337-.141A9.9761,9.9761,0,0,1,167.3377,123.978Z" transform="translate(-44.3316 -44.3316)" fill="#ea786c" opacity="0.13" style="mix-blend-mode:multiply"/><path d="M181.7689,105.6376c.1574,3.5586.8627,7.4569,3.625,9.7055a12.361,12.361,0,0,0,4.3012,2.0376,5.2152,5.2152,0,0,0-1.693,1.1125,1.7774,1.7774,0,0,0-.3936,1.8824,1.0931,1.0931,0,0,0,1.6893.3613c-.6717,2.2183.2658,4.5709,1.1866,6.698a15.8153,15.8153,0,0,0,1.9332,3.5842,5.3285,5.3285,0,0,0,3.3754,2.1126,14.5687,14.5687,0,0,0-3.0132,1.3359c-.43.2525-.9058.6571-.7979,1.1444.1068.4816.702.6521,1.1946.6784a6.9835,6.9835,0,0,0,2.8368-.4416,1.5321,1.5321,0,0,0-.8452,1.13c-.7854,2.8287.9163,5.8123,3.15,7.717a9.166,9.166,0,0,1,2.7894,2.9205,8.3035,8.3035,0,0,1-4.8988,1.3247c-2.1549-.0319-4.4646-.7632-5.6668-2.5521-1.3252-1.9721-.9513-4.5709-1.2217-6.9316a36.2045,36.2045,0,0,0-2.0765-7.1009,63.5549,63.5549,0,0,1-1.8676-7.5143,19.1492,19.1492,0,0,0-1.0174-3.7817,44.42,44.42,0,0,0-2.6347-4.4435A21.7318,21.7318,0,0,1,179.6,111.018c-.59-2.3885-.9094-4.9965.0978-7.2411.2834-.6316.9919-1.7509,1.632-1.0318C181.8582,103.34,181.7363,104.9,181.7689,105.6376Z" transform="translate(-44.3316 -44.3316)" fill="#ea786c" opacity="0.13" style="mix-blend-mode:multiply"/><path d="M173.5645,101.3181c-2.5,3.74-2.1651,8.7661-.5735,12.9733a5.9083,5.9083,0,0,0,1.486,2.45,2.3858,2.3858,0,0,0,2.6775.422c-.0645.6213-.7751.9125-1.35,1.1565s-1.2084.8076-.9521,1.3773a6.1258,6.1258,0,0,0,2.1645-.3538,3.1013,3.1013,0,0,0-1.4109,1.98,5.4852,5.4852,0,0,0,.1792,2.4322,25.1829,25.1829,0,0,0,3.9081,8.5586c.9,1.2687,2.3516,2.5848,3.8107,2.047q-1.3395.5079-2.6792,1.0155c-.4957.1879-1.09.5286-1.02,1.054.0623.4731.6408.6867,1.1173.6654a3.9187,3.9187,0,0,1,1.4194-.0216c-1.1624.5533-1.1319,2.1974-.89,3.462a13.0317,13.0317,0,0,0,1.39,4.2732,4.9735,4.9735,0,0,0,3.5435,2.5363c1.241.138,2.7942-.23,3.5137.7906L186,149.7011a6.37,6.37,0,0,1-3.91.6659,4.3583,4.3583,0,0,1-2.7446-2.7721,15.2957,15.2957,0,0,1-.7038-3.9768c-.7993-8.036-3.3757-15.7811-6.1611-23.3612a58.2617,58.2617,0,0,1-2.2039-6.7811,27.2081,27.2081,0,0,1-.6377-8.1994,8.2836,8.2836,0,0,1,1.0544-3.8964,3.6839,3.6839,0,0,1,2.4515-1.7294C174.4574,99.5225,174.083,100.5422,173.5645,101.3181Z" transform="translate(-44.3316 -44.3316)" fill="#ea786c" opacity="0.13" style="mix-blend-mode:multiply"/><path d="M167.96,111.409a17.6258,17.6258,0,0,0-.6762,5.32,4.3306,4.3306,0,0,0,.39,2.3608,1.4944,1.4944,0,0,0,2.0606.5941,1.8108,1.8108,0,0,0-1.6288,1.1967c-.1614.7.6684,1.496,1.269,1.102a4.317,4.317,0,0,0-.4977,3.0876,52.7484,52.7484,0,0,0,2.0609,10.2032.7754.7754,0,0,0,.987.707q.921-.0713,1.8421-.1428a1.316,1.316,0,0,0-.777,1.4224l1.5542.2226c-1.1825,1.3315-1.3829,3.2467-1.461,5.0258a8.7333,8.7333,0,0,0,.1961,2.7915c.9678,3.3806,6.1169,2.7133,6.403-.7147a9.11,9.11,0,0,0,2.7924,3.1662,6.13,6.13,0,0,0,4.0314,1.0817c-2.9953.3388-5.8394,1.4995-8.8132,1.9925a20.1179,20.1179,0,0,1-9.1464-.61,3.2045,3.2045,0,0,0,1.1166-2.3581c.0582-.9053-.2239-1.7739-.1856-2.6684.0417-.973.06-1.9454.0558-2.9273a49.45,49.45,0,0,0-.3064-6.7734c-.395-2.7741-1.3017-5.4467-1.9075-8.1824-.2772-1.252-.4907-2.5169-.6632-3.7873-.1649-1.2136.0666-2.3106-.02-3.4891a2.8584,2.8584,0,0,0-.1322-.5983,28.2233,28.2233,0,0,1-1.2479-6.8025,10.169,10.169,0,0,1,.2285-3.138,4.7936,4.7936,0,0,1,1.6494-2.6262,2.216,2.216,0,0,1,1.588-.5114,4.896,4.896,0,0,1,.1949,2.6645C168.68,109.847,168.2388,110.5967,167.96,111.409Z" transform="translate(-44.3316 -44.3316)" fill="#ea786c" opacity="0.13" style="mix-blend-mode:multiply"/><path d="M186.0979,199.7494c9.34,7.3343,16.8675,15.9529,20.1352,27.6446a22.1656,22.1656,0,0,1,.8109,4.3489h9.8349c.0581-.0713.1262-.1306.1837-.2027.7787-.9766,1.8891-2.468,1.7424-3.81-.1239-1.1331-1.311-2.0209-1.9854-2.9022a57.157,57.157,0,0,1-7.7-13.5767,24.9948,24.9948,0,0,1-2.0822-8.7059c-.0491-2.6425,1.938-4.5433,3.6854-6.2252.9565-.9206,2.0619-1.6789,2.9911-2.6272,1.92-1.9591,2.9645-4.59,3.9616-7.1456-2.0038,4.417-6.2354,7.3385-10.3058,9.9759a14.56,14.56,0,0,1-2.9779,1.6113c-5.6642,2.012-11.6265-1.8006-13.7961-7.0285a14.8256,14.8256,0,0,1-.5818-1.6839c-1.24-4.4312-.4853-9.5337,2.7066-12.9206,2.7468-2.9142,7.452-3.8582,9.2813-7.5074a5.9855,5.9855,0,0,1-3.9353,2.3681c-1.84.372-3.7662.2989-5.56.8525-3.1524.9726-5.4028,3.697-7.3581,6.3541-2.4245,3.2945-4.7523,6.8315-5.4789,10.8569C178.802,194.2318,182.7622,197.13,186.0979,199.7494Z" transform="translate(-44.3316 -44.3316)" fill="#ea786c" opacity="0.13" style="mix-blend-mode:multiply"/><path d="M171.7409,200.8919c4.7454.7158,8.92,4.3,13.7111,4.0258,3.7651-.2154,7.16-2.823,10.9277-2.6686a26.6315,26.6315,0,0,0-11.1039-.6267C180.7405,202.1845,176.2154,201.5668,171.7409,200.8919Z" transform="translate(-44.3316 -44.3316)" fill="#ea786c" opacity="0.13" style="mix-blend-mode:multiply"/></g></g></g></svg>