<svg id="Layer_1" data-name="Layer 1" xmlns="http://www.w3.org/2000/svg" xmlns:xlink="http://www.w3.org/1999/xlink" viewBox="0 0 256.5153 256.5153"><defs><radialGradient id="radial-gradient" cx="128.2577" cy="128.2577" r="128.2577" gradientUnits="userSpaceOnUse"><stop offset="0" stop-color="#fff"/><stop offset="1" stop-color="#b4b4b5"/></radialGradient></defs><title>Friday Item 1</title><circle cx="128.2577" cy="128.2577" r="128.2577" fill="url(#radial-gradient)"/><path d="M160.9367,108.695s3.063-2.5557,10.5644-4.761c0,0,1.0134,3.2183,1.6351,3.6614a13.9739,13.9739,0,0,0-.62-3.1659,11.5291,11.5291,0,0,0,2.6858-.924S177.061,110,177.3778,107.92a22.6464,22.6464,0,0,1-1.284-5.0963l3.89-1.2443a7.913,7.913,0,0,0-.0448,2.5979,17.9742,17.9742,0,0,1,.6377-2.2387,13.0585,13.0585,0,0,1,2.379-.7246s1.44,18.3716,4.4921,26.4262l-13.5128,4.6489s-1.175.4043-1.8734-2.1714C172.0613,130.1173,167.1814,115.933,160.9367,108.695Z" transform="translate(-76.7423 -76.2423)" fill="#f3eed8"/><path d="M172.0572,134.8119a3.936,3.936,0,0,1,1.5208-2.4005l13.1771-4.5334s2.2688-.4989,2.5079,1.0145L251.66,309.9859s.5567,2.4367-2.5957,4.46l-10.5753,3.6383a4.3954,4.3954,0,0,1-4.1187-2.15Z" transform="translate(-76.7423 -76.2423)" fill="#d6b880"/><path d="M185.0135,128.4772s3.8833-1.8054,4.6062.2926l62.3125,181.1223Z" transform="translate(-76.7423 -76.2423)" fill="#966634"/><path d="M180.9643,101.7969s-.6332,9.3305,4.79,26.05l.0776.2255,1.6576-.57s-4.351-15.74-4.5483-26.3283Z" transform="translate(-76.7423 -76.2423)" fill="#bcae90"/><path d="M172.5267,104.52a25.5883,25.5883,0,0,1,1.0449,7.2059s.0212,7.0188,4.06,19.1678l1.217-.4187s-3.7337-15.218-3.6048-18.6632c0,0-.5026-6.6446-1.1879-7.818Z" transform="translate(-76.7423 -76.2423)" fill="#bfaf91"/><path d="M185.37,128.3545l66.9186,181.4149s.8394,2.2522-2.5589,4.4472Z" transform="translate(-76.7423 -76.2423)" fill="#966634"/><rect x="186.2299" y="136.0543" width="2.807" height="1.0651" rx="0.4841" transform="translate(-110.9703 -7.7713) rotate(-18.985)" fill="#eddfbe"/><rect x="177.4678" y="144.1491" width="6.0134" height="1.0651" rx="0.4841" transform="translate(-113.9932 -9.66) rotate(-18.985)" fill="#eddfbe"/><rect x="188.2381" y="149.1262" width="6.0134" height="1.0651" rx="0.4841" transform="translate(-115.0265 -5.8854) rotate(-18.985)" fill="#eddfbe"/><rect x="182.3963" y="156.6398" width="3.4838" height="1.0651" rx="0.4841" transform="translate(-117.8574 -7.7886) rotate(-18.985)" fill="#eddfbe"/><rect x="185.203" y="166.8442" width="3.4838" height="1.0651" rx="0.4841" transform="translate(-121.0244 -6.3205) rotate(-18.985)" fill="#eddfbe"/><rect x="191.5817" y="160.8995" width="5.9136" height="1.0651" rx="0.4841" transform="translate(-118.6774 -4.1735) rotate(-18.985)" fill="#eddfbe"/><rect x="193.2092" y="172.4313" width="6.5571" height="1.0651" rx="0.4841" transform="translate(-122.3229 -2.9121) rotate(-18.985)" fill="#eddfbe"/><rect x="190.6676" y="179.3323" width="3.7168" height="1.0651" rx="0.4841" transform="translate(-124.7835 -3.8255) rotate(-18.985)" fill="#eddfbe"/><rect x="193.7894" y="190.3999" width="5.9801" height="1.0651" rx="0.4841" transform="translate(-128.1526 -1.8397) rotate(-18.985)" fill="#eddfbe"/><rect x="204.156" y="197.5457" width="5.9801" height="1.0651" rx="0.4841" transform="matrix(0.9456, -0.3253, 0.3253, 0.9456, -129.9134, 1.9214)" fill="#eddfbe"/><rect x="199.4099" y="206.154" width="6.0134" height="1.0651" rx="0.4841" transform="translate(-132.9711 0.8511) rotate(-18.985)" fill="#eddfbe"/><rect x="210.1801" y="211.1311" width="6.0134" height="1.0651" rx="0.4841" transform="translate(-134.0044 4.6256) rotate(-18.985)" fill="#eddfbe"/><rect x="204.3383" y="218.6447" width="3.4838" height="1.0651" rx="0.4841" transform="translate(-136.8353 2.7224) rotate(-18.985)" fill="#eddfbe"/><rect x="207.145" y="228.8491" width="3.4838" height="1.0651" rx="0.4841" transform="translate(-140.0023 4.1906) rotate(-18.985)" fill="#eddfbe"/><rect x="213.5237" y="222.9044" width="5.9136" height="1.0651" rx="0.4841" transform="translate(-137.6554 6.3375) rotate(-18.985)" fill="#eddfbe"/><rect x="215.1512" y="234.4362" width="6.5571" height="1.0651" rx="0.4841" transform="translate(-141.3009 7.599) rotate(-18.985)" fill="#eddfbe"/><rect x="212.6096" y="241.3372" width="3.7168" height="1.0651" rx="0.4841" transform="translate(-143.7614 6.6855) rotate(-18.985)" fill="#eddfbe"/><rect x="215.7315" y="252.4048" width="5.9801" height="1.0651" rx="0.4841" transform="translate(-147.1305 8.6713) rotate(-18.985)" fill="#eddfbe"/><rect x="226.098" y="259.5506" width="5.9801" height="1.0651" rx="0.4841" transform="translate(-148.8913 12.4325) rotate(-18.985)" fill="#eddfbe"/><rect x="223.6509" y="268.4298" width="6.0134" height="1.0651" rx="0.4841" transform="translate(-151.9121 12.1248) rotate(-18.985)" fill="#eddfbe"/><rect x="222.0555" y="275.122" width="3.4838" height="1.0651" rx="0.4841" transform="translate(-154.2448 11.5583) rotate(-18.985)" fill="#eddfbe"/><rect x="224.8621" y="285.3263" width="3.4838" height="1.0651" rx="0.4841" transform="translate(-157.4118 13.0265) rotate(-18.985)" fill="#eddfbe"/><rect x="231.2408" y="279.3816" width="5.9136" height="1.0651" rx="0.4841" transform="translate(-155.0648 15.1735) rotate(-18.985)" fill="#eddfbe"/><rect x="232.8683" y="290.9134" width="6.5571" height="1.0651" rx="0.4841" transform="translate(-158.7104 16.4349) rotate(-18.985)" fill="#eddfbe"/><rect x="230.3268" y="297.8144" width="3.7168" height="1.0651" rx="0.4841" transform="translate(-161.1709 15.5215) rotate(-18.985)" fill="#eddfbe"/><rect x="233.4486" y="308.882" width="5.9801" height="1.0651" rx="0.4841" transform="translate(-164.54 17.5073) rotate(-18.985)" fill="#eddfbe"/><path d="M205.5216,184.8669h3.4107a0,0,0,0,1,0,0v1.0651a0,0,0,0,1,0,0H205.567a.5068.5068,0,0,1-.5068-.5068v-.0968A.4614.4614,0,0,1,205.5216,184.8669Z" transform="translate(-125.7968 1.183) rotate(-18.985)" fill="#eddfbe"/></svg>