<svg id="Layer_1" data-name="Layer 1" xmlns="http://www.w3.org/2000/svg" xmlns:xlink="http://www.w3.org/1999/xlink" viewBox="0 0 256.5153 422.3539"><defs><radialGradient id="radial-gradient" cx="128.2577" cy="294.0962" r="128.2577" gradientUnits="userSpaceOnUse"><stop offset="0" stop-color="#fff"/><stop offset="1" stop-color="#b4b4b5"/></radialGradient><clipPath id="clip-path" transform="translate(-76.7423 89.5962)"><circle cx="205" cy="204.5" r="128.2577" fill="none"/></clipPath></defs><title>Friday Item 7</title><circle cx="128.2577" cy="294.0962" r="128.2577" fill="url(#radial-gradient)"/><g clip-path="url(#clip-path)"><rect x="120.898" y="128.1216" width="11.9248" height="8.8333" fill="#868686"/><polygon points="160.874 132.537 163.39 132.537 163.39 122.948 160.874 123.565 160.874 132.537" fill="#3c3c3b"/><polygon points="92.846 132.537 90.331 132.537 90.331 122.948 92.846 123.565 92.846 132.537" fill="#3c3c3b"/><polygon points="146.348 135.726 148.863 135.726 148.863 126.137 146.348 126.495 146.348 135.726" fill="#3c3c3b"/><polygon points="107.373 135.726 104.857 135.726 104.857 126.137 107.373 126.495 107.373 135.726" fill="#3c3c3b"/><path d="M169.4387,254.4324c-4.3965-.013-9.0733-.0027-12.355-1.9871l.1621-2.8677L170.45,248.69Z" transform="translate(-76.7423 89.5962)" fill="#3c3c3b"/><path d="M157.2458,249.5776c22.9443,7.5083,40.2134,9.2383,50.064,6.219l.5146-3.6294-49.9453-7.0578Z" transform="translate(-76.7423 89.5962)" fill="#3c3c3b"/><path d="M157.6887,246.4812c7.0962,4.9421,45.7578,9.7966,50.1333,5.6833.3452-2.4917-3.5469-5.426-10.6948-8.7824-.7081-.3269-1.4444-.6563-2.2188-1.0039-.5356-.2342-1.0991-.4734-1.6733-.7232-.7486-.3193-1.5132-.6357-2.3062-.9551h-.0127c-.5356-.2236-1.0991-.4477-1.6631-.6718H189.24c-.7773-.3037-1.583-.61-2.417-.9317-1.9843-.7595-4.0825-1.5212-6.3012-2.3064C161.2844,229.9949,158.2443,242.4656,157.6887,246.4812Z" transform="translate(-76.7423 89.5962)" fill="#634e42"/><path d="M181.966,243.251a1.037,1.037,0,0,0,1.4082.34l5.8662-3.5625c-.7773-.3037-1.583-.61-2.417-.9317l-4.5146,2.7334A1.0316,1.0316,0,0,0,181.966,243.251Z" transform="translate(-76.7423 89.5962)" fill="#3c3c3b"/><path d="M186.1154,245.0474a1.0172,1.0172,0,0,0,.7725.43,1.03,1.03,0,0,0,.6562-.1826c1.0425-.7517,2.2085-1.4649,3.3438-2.1573.7666-.4758,1.5776-.978,2.3472-1.4824-.7486-.3193-1.5132-.6357-2.3062-.9551h-.0127c-.3681.2268-.7388.4661-1.1094.69-1.1635.7029-2.3579,1.4444-3.457,2.2317A1.0233,1.0233,0,0,0,186.1154,245.0474Z" transform="translate(-76.7423 89.5962)" fill="#3c3c3b"/><path d="M190.2185,246.7207a1.0085,1.0085,0,0,0,.7978.458,1.0464,1.0464,0,0,0,.6255-.17l5.4854-3.6269c-.7081-.3269-1.4444-.6563-2.2188-1.0039l-4.4043,2.9192A1.0261,1.0261,0,0,0,190.2185,246.7207Z" transform="translate(-76.7423 89.5962)" fill="#3c3c3b"/><path d="M156.5105,241.0464c-.0376-1.2146.9755-8.6206,1.0131-9.8491,1.6919-55.5911,3.7437-111.0325,8.0332-166.4925.87-10.8386,17.0982-11.3723,18.6333-.6106.8658,6.0769.0376,12.7622.0069,18.87-.1216,24.6609.1006,49.322,1.0791,73.9692q1.5724,39.5644,3.1982,79.1289c.0073.19.0049.3768.0049.5662C182.4187,239.5911,172.4948,243.4775,156.5105,241.0464Z" transform="translate(-76.7423 89.5962)" fill="#d1d1d1"/><path d="M238.468,253.739c-4.3887.2366-9.0581.51-12.4478-1.282v-2.875l13.1323-1.6347Z" transform="translate(-76.7423 89.5962)" fill="#3c3c3b"/><path d="M226.02,249.582c23.333,6.198,40.6738,6.9446,50.3369,3.3743l.3062-3.655-50.2652-4.2161Z" transform="translate(-76.7423 89.5962)" fill="#3c3c3b"/><path d="M226.2854,246.4648c7.3667,4.533,46.2387,7.1892,50.3754,2.834.2056-2.5046-3.8486-5.2151-11.1738-8.16-.7261-.288-1.4775-.5737-2.2729-.8776-.5484-.2032-1.1226-.41-1.7119-.6282-.7666-.2754-1.5469-.5481-2.355-.8211h-.0127c-.5484-.1928-1.1226-.3835-1.6992-.5764h-.0127c-.7954-.26-1.6162-.52-2.4659-.7927-2.0253-.6438-4.1621-1.2871-6.4194-1.946C228.9416,229.801,226.6145,242.4263,226.2854,246.4648Z" transform="translate(-76.7423 89.5962)" fill="#634e42"/><path d="M250.344,241.865a1.0336,1.0336,0,0,0,1.4233.26l5.6553-3.8894c-.7954-.26-1.6162-.52-2.4659-.7927l-4.3525,2.9832A1.0325,1.0325,0,0,0,250.344,241.865Z" transform="translate(-76.7423 89.5962)" fill="#3c3c3b"/><path d="M254.5886,243.4248a1.03,1.03,0,0,0,1.4365.1648c1.001-.8081,2.123-1.5879,3.2173-2.3423.7412-.52,1.521-1.0657,2.26-1.614-.7666-.2754-1.5469-.5481-2.355-.8211h-.0127c-.3579.2447-.7129.5071-1.0684.7518-1.1225.767-2.2729,1.5751-3.3281,2.4248A1.0188,1.0188,0,0,0,254.5886,243.4248Z" transform="translate(-76.7423 89.5962)" fill="#3c3c3b"/><path d="M258.7766,244.8638a1.0155,1.0155,0,0,0,.8237.4094,1.0371,1.0371,0,0,0,.6152-.2036l5.2715-3.93c-.7261-.288-1.4775-.5737-2.2729-.8776l-4.2315,3.1633A1.03,1.03,0,0,0,258.7766,244.8638Z" transform="translate(-76.7423 89.5962)" fill="#3c3c3b"/><path d="M223.74,238.3061c-.1074-1.2119.4844-8.6626.4517-9.8911-1.46-55.6-2.5508-111.0674-1.4111-166.6794.2548-10.8716,16.4267-12.325,18.5678-1.6685,1.21,6.0208.7608,12.7412,1.0762,18.8391,1.2759,24.6309,2.8945,49.2381,5.27,73.7915q3.8079,39.41,7.6753,78.82c.0186.19.023.3767.0347.5642C248.3386,237.1526,238.0144,240.4778,223.74,238.3061Z" transform="translate(-76.7423 89.5962)" fill="#d1d1d1"/><path d="M301.7624,24.6445" transform="translate(-76.7423 89.5962)" fill="#ececec"/><path d="M272.0144,217.23c-4.9605,3.4282-9.0581,1.7971-13.6582,1.8462a14.0678,14.0678,0,0,0-9.0581,3.4025,15.9522,15.9522,0,0,1-2.6353,1.701,21.9977,21.9977,0,0,1-16.415,1.2473,29.8225,29.8225,0,0,0-3.2828-.936,22.1415,22.1415,0,0,0-8.8169-.3838c-5.8476.9829-9.8237,4.0739-17.4448,3.1169-1.6054-.1919-3.187-.48-4.7666-.7676h-.0259c-3.4023-.6482-6.7812-1.4624-10.23-2.0615a51.5185,51.5185,0,0,0-11.1665-.9568q-2.0846.07-4.3125.3579c-1.27.1917-2.5645.4326-3.8819.7674a16.469,16.469,0,0,1-11.623-1.7737v-.0235a7.9352,7.9352,0,0,1-.9566-.5756,15.4761,15.4761,0,0,0-5.7026-2.5879c-4.7456-.9571-7.0693,1.87-12.603-2.3728,3.4487-55.3011,7.7612-106.7713,10.1836-157.3289v-.0493q1.0386-20.8107,1.5322-41.502c.2647-10.8295.6226-21.6589.3843-32.5141-.4072-18.14-.36-31.1033.4536-40.4724,1.9658-22.3072,8.2905-24.4646,23.2432-28.274l26.477-6.6855c3.5239,1.4392,26.5728,3.978,30.1436,2.4687,0,0,18.4272,8.2908,22.2837,11.8614.936.8613,1.8232,1.7971,2.684,2.7541a32.5957,32.5957,0,0,1,7.7876,20.44q-.5024,16.03-.7651,31.4843c-.0728,4.865-.1221,9.7063-.1685,14.4986-.0493,5.6069-.0493,11.1665-.0493,16.6513,0,3.4048.0259,6.7579.0493,10.1136V21.97A1803.5852,1803.5852,0,0,0,272.0144,217.23Z" transform="translate(-76.7423 89.5962)" fill="#fff"/><path d="M246.2253,222.7454a7.1108,7.1108,0,0,0,.4307,1.4367,15.95,15.95,0,0,0,2.6347-1.7012,14.0885,14.0885,0,0,1,9.0581-3.4023c-2.3-43.6572-10.3261-87.0991-8.6743-130.782-2.3,25.8076-4.6006,51.7583-2.5386,77.5869.814,10.4248,2.3467,20.8238,2.0122,31.2461a102.6716,102.6716,0,0,1-2.2768,17.9241C246.3449,217.5928,245.7224,220.2041,246.2253,222.7454Z" transform="translate(-76.7423 89.5962)" fill="#ececec"/><path d="M217.9021,219.3664a28.8756,28.8756,0,0,0,.2387,4.7432,22.1528,22.1528,0,0,1,8.8194.3838c5.8452-31.2927,5.15-63.5681,5.8711-95.4856A273.7648,273.7648,0,0,1,221.88,200.9155C220.1066,206.9785,218.1174,213.0649,217.9021,219.3664Z" transform="translate(-76.7423 89.5962)" fill="#ececec"/><path d="M185.6735,224.3972c3.4517.5991,6.8306,1.416,10.233,2.0618a103.1269,103.1269,0,0,1-2.085-38.315c1.39-10.3989,4.4082-20.6059,5.0542-31.1008.5757-8.7468-.5264-17.5171-1.605-26.2151q-3.019-24.5135-6.0605-49.0249-.1831,17.1463-.337,34.2644c-.12,10.7827-.2158,21.6145-1.39,32.3482C186.7053,173.863,178.1272,200.2441,185.6735,224.3972Z" transform="translate(-76.7423 89.5962)" fill="#ececec"/><path d="M207.5358,165.1255c.8941-6.4422.5035-12.9824.11-19.4756q-.8811-14.5808-1.7622-29.1609c4.71,17.6831,9.4512,36.1316,5.8384,54.07-2.8784,14.2878-10.8951,27.1975-13.3052,41.572C195.3376,196.3176,205.3269,181.0842,207.5358,165.1255Z" transform="translate(-76.7423 89.5962)" fill="#ececec"/><path d="M167.5363,198.7349c.8848,8.3161,2.85,16.8454,2.6582,25.0634q2.2288-.2879,4.3125-.3581c1.2242-5.3211.48-10.8784.0728-18.7386-.6953-13.3215-3.8818-26.43-4.5044-39.7514A94.4451,94.4451,0,0,0,167.5363,198.7349Z" transform="translate(-76.7423 89.5962)" fill="#ececec"/><path d="M148.03,219.605a15.48,15.48,0,0,1,5.7026,2.5881,8.0679,8.0679,0,0,0,.96.5757c.48-7.261-.4307-14.8333-.3838-22.1411.1431-27.7476,14.3535-54.992,9.1777-82.26-1.2475,19.89-7.5727,39.0337-11.8852,58.467C148.4865,190.8279,146.4484,205.4927,148.03,219.605Z" transform="translate(-76.7423 89.5962)" fill="#ececec"/><path d="M254.7546-19.4107c1.1631,28.3069-13.7124,56.7354-37.6314,71.9173A157.3983,157.3983,0,0,0,254.7546-19.4107Z" transform="translate(-76.7423 89.5962)" fill="#ececec"/><path d="M237.2653,59.4868q9.79-28.6131,19.5811-57.2268A81.8846,81.8846,0,0,1,237.2653,59.4868Z" transform="translate(-76.7423 89.5962)" fill="#ececec"/><path d="M274.0315-8.6607" transform="translate(-76.7423 89.5962)" fill="#3c3c3b"/><path d="M273.2336-4.3833" transform="translate(-76.7423 89.5962)" fill="#3c3c3b"/><path d="M240.0642,4.3779" transform="translate(-76.7423 89.5962)" fill="#958181"/><path d="M263.4123-1.4207" transform="translate(-76.7423 89.5962)" fill="#575756"/></g></svg>