<svg id="Layer_1" data-name="Layer 1" xmlns="http://www.w3.org/2000/svg" xmlns:xlink="http://www.w3.org/1999/xlink" viewBox="0 0 256.5153 256.5153"><defs><radialGradient id="radial-gradient" cx="128.2577" cy="128.2577" r="128.2577" gradientUnits="userSpaceOnUse"><stop offset="0" stop-color="#fff"/><stop offset="1" stop-color="#b4b4b5"/></radialGradient></defs><title>Friday Item 3</title><circle cx="128.2577" cy="128.2577" r="128.2577" fill="url(#radial-gradient)"/><path d="M218.4243,89.7641c0,3.4575-5.96,6.26-13.313,6.26s-13.3131-2.8029-13.3131-6.26,5.9606-6.26,13.3131-6.26,13.313,2.803,13.313,6.26" transform="translate(-76.7423 -76.2423)" fill="#aeb4b4"/><path d="M165.9007,99.53c-8.35,7.6549-19.0635,48.4026-23.4777,82.5084-1.0184,5.2695-.4684,10.4781.524,11.002l-.0538,4.0369a1.4674,1.4674,0,0,0,1.0162,1.4256,23.5173,23.5173,0,0,0,10.1128.08,1.4794,1.4794,0,0,0,1.04-1.414v-3.801c1.2443-1.9646,1.3149-5.75,1.4652-9.97a133.522,133.522,0,0,1,7.5068-37.575l10.79-34.2217c1.5644-9.799-.99-14.3572-8.9233-12.0715" transform="translate(-76.7423 -76.2423)" fill="#fff"/><path d="M142.947,193.0407c.147,0,12.1153.3275,12.1153.3275v4.1659c-.142,2.4255-12.2879,2.646-12.164-.3156Z" transform="translate(-76.7423 -76.2423)" fill="#aeb4b4"/><path d="M203.9448,94.0277V317.6515h-41.454l3.0022-146.61-.0481-70.4712a1.2309,1.2309,0,0,1,.4344-.8709c4.9563-4.3788,13.5044-6.2729,23.3615-7.19a1.3864,1.3864,0,0,0,1.1229-.779l1.7336-3.6114a.3872.3872,0,0,1,.7005.0071c2.7919,5.89,11.147,5.9017,11.147,5.9017" transform="translate(-76.7423 -76.2423)" fill="#fff"/><path d="M165.4892,165.5l-.1488,12.9909.1526-7.45-.0038-5.5411m-.0166-24.2386-.9409,2.9842c-.1282.994-.2034,1.5777-.2034,1.5777l1.145-3.6314-.0007-.9305" transform="translate(-76.7423 -76.2423)" fill="#d3d5d5"/><path d="M165.47,136.9955c-.3881,2.9927-.7317,5.6522-.938,7.25l.9409-2.9842-.0029-4.2661" transform="translate(-76.7423 -76.2423)" fill="#cdd0d0"/><path d="M167.7816,119.584c-.0449,0-1.3235,9.7912-2.3119,17.4115l.0029,4.2661.0007.9305.2935-.9308L165.4892,165.5l.0038,5.5411-.1526,7.45-.3731,32.5819,1.1366-6.4645L167.88,122.432s-.0969-2.2505-.0969-2.8385l-.0012-.01" transform="translate(-76.7423 -76.2423)" fill="#cdd0d0"/><path d="M203.9448,96.0008v4.9942l.0254-.0074V96.0018l-.0254-.001M191.184,90.0214l-.95,1.926a1.3782,1.3782,0,0,0,.13-.2171l.82-1.7089" transform="translate(-76.7423 -76.2423)" fill="#d3d5d5"/><path d="M199.01,93.1557a17.4945,17.4945,0,0,0,4.9346.872v1.9731l.0254.001V94.0277a19.623,19.623,0,0,1-4.96-.872m-6.5166-5.2522a.388.388,0,0,1,.3042.2225,9.2425,9.2425,0,0,0,4.3327,4.2522,9.6567,9.6567,0,0,1-4.333-4.298.3292.3292,0,0,0-.3039-.1767" transform="translate(-76.7423 -76.2423)" fill="#aeb4b4"/><path d="M192.4933,87.9035a.4231.4231,0,0,0-.3706.2154l-.9387,1.9025-.82,1.7089a1.3782,1.3782,0,0,1-.13.2171l-.0419.0849a1.4091,1.4091,0,0,1-.9255.477c.5,4.8479,5.702,8.5,12.1993,9.2069l2.4792-.7212V94.0277a17.4945,17.4945,0,0,1-4.9346-.872,12.9354,12.9354,0,0,1-1.88-.7775,9.2425,9.2425,0,0,1-4.3327-4.2522.388.388,0,0,0-.3042-.2225h0" transform="translate(-76.7423 -76.2423)" fill="#cdd0d0"/><path d="M244.0993,99.53c8.35,7.6549,19.0637,48.4026,23.4777,82.5084,1.0184,5.2695.4684,10.4781-.5238,11.002l.0538,4.0369a1.4677,1.4677,0,0,1-1.0164,1.4256,23.5172,23.5172,0,0,1-10.1128.08,1.48,1.48,0,0,1-1.04-1.414v-3.801c-1.2442-1.9646-1.3148-5.75-1.4651-9.97a133.522,133.522,0,0,0-7.5068-37.575l-10.79-34.2217c-1.5642-9.799.99-14.3572,8.9233-12.0715" transform="translate(-76.7423 -76.2423)" fill="#fff"/><path d="M267.0532,193.0407c-.147,0-12.1155.3275-12.1155.3275v4.1659c.1422,2.4255,12.288,2.646,12.164-.3156Z" transform="translate(-76.7423 -76.2423)" fill="#aeb4b4"/><polyline points="129.878 23.974 123.552 25.815 123.552 124.691 125.757 124.691 125.757 27.47 130.494 26.092 129.878 23.974" fill="#aeb4b4"/><path d="M206.135,94.0277v7.4358l-4.3866,1.176v215.012H247.182l-2.5952-146.61.0481-70.4712a1.23,1.23,0,0,0-.4344-.8709c-4.9563-4.3788-13.5044-6.2729-23.3615-7.19a1.3863,1.3863,0,0,1-1.1228-.779l-1.7336-3.6114a.3872.3872,0,0,0-.7.0071c-2.7919,5.89-11.1471,5.9017-11.1471,5.9017" transform="translate(-76.7423 -76.2423)" fill="#fff"/><polyline points="167.865 65.271 167.845 94.799 168.53 133.527 168.759 134.831 167.966 65.594 167.865 65.271" fill="#d3d5d5"/><path d="M244.6121,134.0151l-.0051,7.4986.1017.3226-.0066-.575,1.4385,4.5622s-.736-5.7139-1.5285-11.8084" transform="translate(-76.7423 -76.2423)" fill="#cdd0d0"/><path d="M242.6873,119.584l-.0012.01c0,.588-.0969,2.8385-.0969,2.8385l1.7756,82.1765.9076,5.1612-.6856-38.7284.02-29.5276.0051-7.4986c-.9059-6.9665-1.8856-14.43-1.9248-14.4311" transform="translate(-76.7423 -76.2423)" fill="#cdd0d0"/><path d="M217.9826,88.1189h0l1.7336,3.6114a1.3863,1.3863,0,0,0,1.1228.779h0a1.41,1.41,0,0,1-.9255-.477l-1.9309-3.9134h0" transform="translate(-76.7423 -76.2423)" fill="#d3d5d5"/><path d="M210.1466,93.4325a20.9111,20.9111,0,0,1-4.0116.5952h0a17.3013,17.3013,0,0,0,4.0116-.5952m7.105-5.2429a9.4813,9.4813,0,0,1-2.9766,3.4043,8.7669,8.7669,0,0,0,2.9766-3.4043m.3221-.2843a.3232.3232,0,0,0-.2638.171.3863.3863,0,0,1,.2638-.171" transform="translate(-76.7423 -76.2423)" fill="#aeb4b4"/><polyline points="129.393 25.221 125.006 26.397 124.056 124.691 125.006 124.691 125.006 26.397 129.393 25.221" fill="#aeb4b4"/><path d="M217.612,87.9035c-.0129,0-.0257.0006-.0383.0018a.3863.3863,0,0,0-.2638.171l-.002.0039c-.0186.0368-.0373.0731-.0563.1094a8.7669,8.7669,0,0,1-2.9766,3.4043,12.5278,12.5278,0,0,1-4.1284,1.8386,17.3013,17.3013,0,0,1-4.0116.5952v7.4358l-4.3866,1.176v98.2939h6.172V101.782c6.8289-.5066,12.4-4.2472,12.9186-9.2727a1.3863,1.3863,0,0,1-1.1228-.779l-1.7336-3.6114h0a.4231.4231,0,0,0-.3706-.2154" transform="translate(-76.7423 -76.2423)" fill="#cdd0d0"/><path d="M206.1036,109.0231a1.6175,1.6175,0,1,1-1.6176-1.6176A1.6175,1.6175,0,0,1,206.1036,109.0231Z" transform="translate(-76.7423 -76.2423)" fill="#aeb4b4"/><path d="M206.1036,128.8714a1.6175,1.6175,0,1,1-1.6176-1.6175A1.6175,1.6175,0,0,1,206.1036,128.8714Z" transform="translate(-76.7423 -76.2423)" fill="#aeb4b4"/><path d="M206.1036,149.809a1.6175,1.6175,0,1,1-1.6176-1.6175A1.6175,1.6175,0,0,1,206.1036,149.809Z" transform="translate(-76.7423 -76.2423)" fill="#aeb4b4"/><path d="M206.1036,169.6574a1.6175,1.6175,0,1,1-1.6176-1.6175A1.6175,1.6175,0,0,1,206.1036,169.6574Z" transform="translate(-76.7423 -76.2423)" fill="#aeb4b4"/><path d="M206.1036,189.5059a1.6175,1.6175,0,1,1-1.6176-1.6176A1.6176,1.6176,0,0,1,206.1036,189.5059Z" transform="translate(-76.7423 -76.2423)" fill="#aeb4b4"/><path d="M249.2208,317.3575c-14.9446,10.8518-79.4233,10.8518-88.494,0L164.91,211.0719l80.4245-.5776Z" transform="translate(-76.7423 -76.2423)" fill="#fff"/></svg>