<svg xmlns="http://www.w3.org/2000/svg" xmlns:xlink="http://www.w3.org/1999/xlink" viewBox="0 0 256.5153 256.5153"><defs><radialGradient id="radial-gradient" cx="128.2577" cy="128.2577" r="128.2577" gradientUnits="userSpaceOnUse"><stop offset="0" stop-color="#fff"/><stop offset="1" stop-color="#b4b4b5"/></radialGradient></defs><title>Friday Item 6</title><g style="isolation:isolate"><g id="Layer_1" data-name="Layer 1"><circle cx="128.2577" cy="128.2577" r="128.2577" fill="url(#radial-gradient)"/><path d="M169.8087,219.7832C163.7178,208.8347,154.9764,205.43,152.49,201.74a15.6945,15.6945,0,0,1-2.7761-6.1255,15.6945,15.6945,0,0,1-2.7761,6.1255c-2.486,3.69-11.2274,7.0943-17.3182,18.0428a18.5755,18.5755,0,0,0,.6409,19.79h38.9068A18.5757,18.5757,0,0,0,169.8087,219.7832Z" transform="translate(-76.7423 -76.2423)" fill="#00959f"/><rect x="53.5186" y="163.3309" width="38.9067" height="39.5889" fill="#e1c76a"/><rect x="51.329" y="161.3869" width="43.286" height="3.888" fill="#534e3e"/><circle cx="72.972" cy="117.5752" r="3.9064" fill="#534e3e"/><path d="M149.7143,247.251s-8.6606,7.454-8.6606,14.0831v12.5142h17.3212V261.3341C158.3749,254.705,149.7143,247.251,149.7143,247.251Z" transform="translate(-76.7423 -76.2423)" fill="#534e3e"/><path d="M276.3944,219.7832c-6.0909-10.9485-14.8322-14.3531-17.3183-18.0428a15.6965,15.6965,0,0,1-2.7761-6.1255,15.695,15.695,0,0,1-2.776,6.1255c-2.4861,3.69-11.2275,7.0943-17.3183,18.0428a18.5757,18.5757,0,0,0,.641,19.79h38.9067A18.5757,18.5757,0,0,0,276.3944,219.7832Z" transform="translate(-76.7423 -76.2423)" fill="#00959f"/><rect x="160.1043" y="163.3309" width="38.9067" height="39.5889" fill="#e1c76a"/><rect x="157.9146" y="161.3869" width="43.286" height="3.888" fill="#534e3e"/><circle cx="179.5577" cy="117.5752" r="3.9064" fill="#534e3e"/><path d="M256.3,247.251s-8.6605,7.454-8.6605,14.0831v12.5142h17.3211V261.3341C264.9606,254.705,256.3,247.251,256.3,247.251Z" transform="translate(-76.7423 -76.2423)" fill="#534e3e"/><path d="M240.3491,184.3672c-11.3188-17.4787-27.5631-22.9139-32.183-28.8043s-5.1589-9.7789-5.1589-9.7789-.539,3.8885-5.1589,9.7789-20.8643,11.3256-32.1831,28.8043,1.1911,31.5935,1.1911,31.5935H239.158S251.6679,201.8459,240.3491,184.3672Z" transform="translate(-76.7423 -76.2423)" fill="#00959f"/><rect x="90.114" y="139.7184" width="72.3017" height="63.2014" fill="#eadf9f"/><path d="M210.8033,131.261a7.9931,7.9931,0,0,0-10.4241,11.6169,7.7954,7.7954,0,0,0,4.7563,3.144,7.9122,7.9122,0,0,0,5.6337-.8108,9.3451,9.3451,0,1,1,.0341-13.95Z" transform="translate(-76.7423 -76.2423)" fill="#534e3e"/><path d="M126.2648,161.995h0a15.3871,15.3871,0,0,1,15.3871,15.3871V202.92a0,0,0,0,1,0,0H110.8778a0,0,0,0,1,0,0V177.3821A15.3871,15.3871,0,0,1,126.2648,161.995Z" fill="#534e3e"/><rect x="90.114" y="139.7184" width="72.3017" height="11.2358" fill="#e1c76a"/><rect x="86.0448" y="137.7744" width="80.4401" height="3.888" fill="#534e3e"/><g style="mix-blend-mode:multiply"><path d="M276.3944,219.7832c-6.0909-10.9485-14.8323-14.3531-17.3183-18.0429a20.9126,20.9126,0,0,1-2.1781-4.0669,3.9064,3.9064,0,1,0-1.1959,0,20.914,20.914,0,0,1-2.1782,4.0669c-1.8072,2.6823-6.92,5.217-11.9173,10.6056,2.9563-5.2819,6.62-15.8147-1.2575-27.9786-11.3187-17.4788-27.5632-22.914-32.183-28.8044a29.0641,29.0641,0,0,1-4.6783-8.0478,9.2708,9.2708,0,0,0,7.2814-2.304,7.9122,7.9122,0,0,1-5.6337.8108,8.05,8.05,0,0,1-2.1283-.7928v133.933h72.7462V241.5172h2.19v-3.888h-1.0294A18.59,18.59,0,0,0,276.3944,219.7832Z" transform="translate(-76.7423 -76.2423)" fill="#e5e5e6"/><path d="M210.8033,131.261a9.3212,9.3212,0,0,0-7.7961-2.2637v2.236A7.9994,7.9994,0,0,1,210.8033,131.261Z" transform="translate(-76.7423 -76.2423)" fill="#e5e5e6"/></g><rect x="165.2336" y="40.8663" width="6.2256" height="11.1391" fill="#00959f"/><rect x="264.9912" y="129.1343" width="7.2961" height="5.0424" transform="translate(-56.3889 222.3094) rotate(-60.0174)" fill="#00959f"/><rect x="219.961" y="127.4322" width="5.0403" height="7.298" transform="translate(-112.4752 52.4542) rotate(-29.9766)" fill="#00959f"/><path d="M282.93,164.9448a37.8419,37.8419,0,1,1-37.8416-37.8431A37.8424,37.8424,0,0,1,282.93,164.9448Z" transform="translate(-76.7423 -76.2423)" fill="#fddb00"/><path d="M282.93,164.9448a37.8418,37.8418,0,0,0-37.8416-37.8431v75.6851A37.8424,37.8424,0,0,0,282.93,164.9448Z" transform="translate(-76.7423 -76.2423)" fill="#fde500"/><path d="M276.6775,164.9448a31.5892,31.5892,0,1,1-31.5888-31.59A31.59,31.59,0,0,1,276.6775,164.9448Z" transform="translate(-76.7423 -76.2423)" fill="#f4f5f5"/><path d="M276.6775,164.9448a31.5886,31.5886,0,0,0-31.5888-31.59v63.181A31.59,31.59,0,0,0,276.6775,164.9448Z" transform="translate(-76.7423 -76.2423)" fill="#fff"/><path d="M245.0887,172.7268a7.7817,7.7817,0,1,1,7.7816-7.782A7.79,7.79,0,0,1,245.0887,172.7268Zm0-14.2536a6.4714,6.4714,0,1,0,6.47,6.4716A6.4773,6.4773,0,0,0,245.0887,158.4732Z" transform="translate(-76.7423 -76.2423)" fill="#c7c7c7"/><polygon points="169.664 89.684 167.348 87.368 189.225 67.807 169.664 89.684" fill="#016e81"/><rect x="159.0093" y="35.9521" width="18.6735" height="8.0274" fill="#2ebfcb"/><rect x="214.8829" y="120.8641" width="8.7583" height="9.2886" transform="translate(-110.1208 50.2574) rotate(-30.0122)" fill="#11bcc6"/><rect x="267.2134" y="121.7038" width="9.2885" height="8.7584" transform="translate(-50.0048 222.2344) rotate(-59.9999)" fill="#11bcc6"/><rect x="234.3788" y="167.294" width="12.1006" height="4.5872" transform="translate(-126.2344 143.4637) rotate(-45.0051)" fill="#016e81"/><path d="M247.1786,166.7a2.7317,2.7317,0,1,1,0-3.864A2.7311,2.7311,0,0,1,247.1786,166.7Z" transform="translate(-76.7423 -76.2423)" fill="#00959f"/><rect x="167.0353" y="59.0503" width="2.6219" height="4.6415" fill="#c7c7c7"/><rect x="167.0353" y="113.7116" width="2.6219" height="4.644" fill="#c7c7c7"/><rect x="193.3563" y="87.3924" width="4.6428" height="2.6206" fill="#c7c7c7"/><rect x="138.6937" y="87.3924" width="4.6428" height="2.6206" fill="#c7c7c7"/><rect x="220.7654" y="148.9578" width="1.3091" height="4.6431" transform="translate(-97.0617 191.1158) rotate(-59.9913)" fill="#c7c7c7"/><rect x="268.1041" y="176.2879" width="1.3098" height="4.6432" transform="translate(-97.0793 245.7417) rotate(-59.9856)" fill="#c7c7c7"/><rect x="256.4325" y="140.6196" width="4.6439" height="1.309" transform="translate(-69.6763 218.5412) rotate(-60.0133)" fill="#c7c7c7"/><rect x="229.103" y="187.9585" width="4.6416" height="1.3107" transform="translate(-124.5514 218.0182) rotate(-59.9045)" fill="#c7c7c7"/><rect x="230.7686" y="138.954" width="1.3095" height="4.6422" transform="translate(-116.3745 58.3743) rotate(-29.9953)" fill="#c7c7c7"/><rect x="258.0997" y="186.292" width="1.3114" height="4.6425" transform="translate(-136.3765 78.3502) rotate(-29.9902)" fill="#c7c7c7"/><rect x="266.4374" y="150.6227" width="4.6432" height="1.3099" transform="translate(-116.375 78.3312) rotate(-29.9864)" fill="#c7c7c7"/><rect x="219.0989" y="177.9545" width="4.6422" height="1.3102" transform="translate(-136.4051 58.5418) rotate(-30.0295)" fill="#c7c7c7"/></g></g></svg>