<svg id="Layer_1" data-name="Layer 1" xmlns="http://www.w3.org/2000/svg" xmlns:xlink="http://www.w3.org/1999/xlink" viewBox="0 0 256.5153 256.5153"><defs><radialGradient id="radial-gradient" cx="128.2577" cy="128.2577" r="128.2577" gradientUnits="userSpaceOnUse"><stop offset="0" stop-color="#fff"/><stop offset="1" stop-color="#b4b4b5"/></radialGradient></defs><title>Friday Item 2</title><circle cx="128.2577" cy="128.2577" r="128.2577" fill="url(#radial-gradient)"/><path d="M140.5749,270.5258a6.1032,6.1032,0,0,0,1.6069.21,6.5556,6.5556,0,0,0,6.3945-5.0131l.8168-3.1982a6.6074,6.6074,0,1,0-12.82-3.2059l-.8053,3.2059A6.572,6.572,0,0,0,140.5749,270.5258Z" transform="translate(-76.7423 -76.2423)" fill="#fff"/><path d="M152.9959,220.8242a6.541,6.541,0,0,0,8.0073-4.8127l.8053-3.1868a6.606,6.606,0,1,0-12.8162-3.21l-.8185,3.21A6.6222,6.6222,0,0,0,152.9959,220.8242Z" transform="translate(-76.7423 -76.2423)" fill="#fff"/><path d="M175.2353,240.245a6.6151,6.6151,0,0,0,13.23,0v-5.1391a6.6151,6.6151,0,0,0-13.23,0Z" transform="translate(-76.7423 -76.2423)" fill="#fff"/><path d="M143.0271,233.4953l-1.3014,5.1676A6.6261,6.6261,0,0,0,146.55,246.68a6.9421,6.9421,0,0,0,1.5876.1889,6.6161,6.6161,0,0,0,6.42-5.0112l1.3128-5.1752a6.6161,6.6161,0,0,0-12.8427-3.187Z" transform="translate(-76.7423 -76.2423)" fill="#fff"/><path d="M274.4342,277.35V171.533c0-21.2621-14.0777-52.9008-52.9153-52.9008-32.6375,0-47.6443,22.38-51.623,42.1533a39.1072,39.1072,0,0,0-27.304,37.2079h78.5264a39.215,39.215,0,0,0-24.4224-36.3147c2.4846-7.6562,8.7725-16.5908,24.823-16.5908,24.1686,0,26.365,20.3272,26.4606,26.4451V277.35Z" transform="translate(-76.7423 -76.2423)" fill="#0d6b7b"/><path d="M209.1532,241.8575a6.6027,6.6027,0,0,0,6.412,5.0112,6.9868,6.9868,0,0,0,1.6029-.1889,6.6365,6.6365,0,0,0,4.8165-8.0169l-1.3071-5.1676a6.6088,6.6088,0,1,0-12.8277,3.187Z" transform="translate(-76.7423 -76.2423)" fill="#fff"/><path d="M215.1243,265.7226a6.5752,6.5752,0,0,0,6.3946,5.0131,5.963,5.963,0,0,0,1.6125-.21,6.6058,6.6058,0,0,0,4.811-8.0014l-.8016-3.2059a6.6111,6.6111,0,0,0-12.8276,3.2059Z" transform="translate(-76.7423 -76.2423)" fill="#fff"/><path d="M175.2353,264.1234a6.6151,6.6151,0,0,0,13.23,0v-3.3128a6.6151,6.6151,0,0,0-13.23,0Z" transform="translate(-76.7423 -76.2423)" fill="#fff"/><path d="M181.8608,221.1372a6.6175,6.6175,0,0,0,6.6046-6.62V211.216a6.6151,6.6151,0,0,0-13.23,0v3.3014A6.633,6.633,0,0,0,181.8608,221.1372Z" transform="translate(-76.7423 -76.2423)" fill="#fff"/><path d="M209.1075,221.0343a6.4573,6.4573,0,0,0,1.6029-.21,6.6,6.6,0,0,0,4.8147-7.9995l-.8035-3.21a6.6087,6.6087,0,1,0-12.8218,3.21l.8033,3.1868A6.5891,6.5891,0,0,0,209.1075,221.0343Z" transform="translate(-76.7423 -76.2423)" fill="#fff"/></svg>