<svg xmlns="http://www.w3.org/2000/svg" xmlns:xlink="http://www.w3.org/1999/xlink" viewBox="0 0 256.5153 256.5153"><defs><radialGradient id="radial-gradient" cx="128.2577" cy="128.2577" r="128.2577" gradientUnits="userSpaceOnUse"><stop offset="0" stop-color="#fff"/><stop offset="1" stop-color="#b4b4b5"/></radialGradient><clipPath id="clip-path" transform="translate(-76.7423 -76.2423)"><circle cx="202.6708" cy="200.0845" r="69.9691" fill="none"/></clipPath></defs><title>Friday Item 10</title><g style="isolation:isolate"><g id="Layer_1" data-name="Layer 1"><circle cx="128.2577" cy="128.2577" r="128.2577" fill="url(#radial-gradient)"/><g clip-path="url(#clip-path)"><path d="M147.1287,275.6686h35.22c.1811-.6467.3605-1.2941.53-1.941,1.7085-6.53,3.2128-13.1145,5.0722-19.6049,1.909-6.6635,4.8657-12.7554,7.2163-19.1924-2.0228-.3787-4.809,1.2152-7.0549,1.1594-2.0082-.05-4.0086-.2964-6.0075-.4766a100.05,100.05,0,0,0-20.94.3185c-2.82.3383-6.7351-.3916-7.3412,2.9388-.3363,1.8466.0668,3.8192-.381,5.7458q-.115.4957-.2539.9857a36.1293,36.1293,0,0,1-1.9172,5.0446A82.9906,82.9906,0,0,1,142.19,266.047a3.1516,3.1516,0,0,0-.7778,1.6025,2.8675,2.8675,0,0,0,.4187,1.4411A22.0331,22.0331,0,0,0,147.1287,275.6686Z" transform="translate(-76.7423 -76.2423)" fill="#f58d76"/><path d="M199.8116,156.19a37.0632,37.0632,0,0,1,.5157,4.1319,41.3617,41.3617,0,0,1,.15,8.5286c-.199,1.6481-.5959,3.2674-.7929,4.9157A40.9886,40.9886,0,0,0,199.9,182.51a21.4753,21.4753,0,0,1,.357,4.5364c-.1469,1.0986-.897,1.9878-.5622,3.1915.1653.5945.522,1.13.63,1.737.1993,1.1267-.4814,2.1929-.9162,3.2509-1.2131,2.9522-.552,6.2921-.0586,9.4455a136.451,136.451,0,0,1,1.2973,14.2685c.1529,3.0472.2631,6.1764-.707,9.0689a25.2578,25.2578,0,0,1-3.5221,6.24c-1.3369,1.9175-2.7605,3.9113-4.852,4.9549a14.1268,14.1268,0,0,1-5.9778,1.04c-5.7933.1581-11.8644.2573-17.0334-2.3632a22.7007,22.7007,0,0,1-9.5045-9.989A52.7673,52.7673,0,0,1,154.7,214.6134c-1.8718-8.6451-2.9506-18.005.7-26.0619a13.19,13.19,0,0,1,3.2932-4.69c2.5158-2.143,5.999-2.7511,9.3035-2.7858s6.6221.4183,9.9053.0422a20.0789,20.0789,0,0,0,12.3024-6.3146,8.318,8.318,0,0,0,2.5181-5.1808c.4018-2.8848,1.34-5.7518,1.8793-8.6228.2735-1.4555.5265-2.9156.7483-4.38a6.9675,6.9675,0,0,1,.4822-2.5925C197.4694,151.6432,199.4823,154.5577,199.8116,156.19Z" transform="translate(-76.7423 -76.2423)" fill="#ec796d"/><path d="M154.5565,192.9228c1.4933,2.07,1.0125,5.26,1.0208,7.76a3.9061,3.9061,0,0,0,.1908,1.4053,7.0723,7.0723,0,0,0,.8352,1.3153c1.1811,1.7616,1.2724,4.1584,2.721,5.7075a1.0345,1.0345,0,0,0,.4277.3087,1.279,1.279,0,0,0,.7091-.0676c3.3693-.9288,6.9039.4429,10.1,1.8566a17.9492,17.9492,0,0,1,5.3329,3.173c-1.16-1.1145-1.7344-2.8312-3.045-3.9634a14.2952,14.2952,0,0,0-4.36-2.5531,12.3654,12.3654,0,0,0-5.274-.9373c-.7382.08-1.1287.4506-1.8525.08-.8364-.4284-1.0105-1.5912-1.2618-2.39-.4461-1.419-1.2718-2.6975-1.6993-4.1222a23.1414,23.1414,0,0,1-.7317-3.1062c-.0611-.4027.0922-3.4673-.0217-3.5483a69.0921,69.0921,0,0,0,7.7,4.9823c3.4547,1.8237,7.2927,3.1107,10.1328,5.7929a21.5578,21.5578,0,0,1,3.5367,4.6566,56.6573,56.6573,0,0,1,7.4481,20.6993c.0409-3.5055-1.0869-6.9067-2.2018-10.23-1.6-4.7684-3.2965-9.702-6.766-13.3433a31.1271,31.1271,0,0,0-5.3633-4.2467c-2.0452-1.3666-4.1222-2.6851-6.1987-4.0034l-6.1119-3.88a3.5694,3.5694,0,0,1-1.35-1.231c-.5551-1.0583.92-2.5485,1.5279-3.3833a14.7149,14.7149,0,0,1,3.2411-3.1314c3.1979-2.3472,7.0542-2.7267,10.9386-2.6037a4.06,4.06,0,0,1-3.23-2.005,5.4964,5.4964,0,0,1-3.24.596c-1.9751-.0711-4.1332-.37-5.4759-1.8205a10.757,10.757,0,0,1-1.7936-3.7265,4.9951,4.9951,0,0,0-2.5294-3.1481,19.5546,19.5546,0,0,1-.3857,14.611,6.7124,6.7124,0,0,1-1.7892,2.4625,3.1568,3.1568,0,0,1-2.8773.6355A4.4223,4.4223,0,0,1,154.5565,192.9228Z" transform="translate(-76.7423 -76.2423)" fill="#ec796d" opacity="0.13" style="mix-blend-mode:multiply"/><path d="M197.7753,141.2487a8.65,8.65,0,0,1,.6946,4.2389,24.5241,24.5241,0,0,1-.9183,5.8339,44.2418,44.2418,0,0,0-1.3349,4.7619c-.1934,1.1614-.2091,2.3439-.3038,3.5175a34.97,34.97,0,0,1-1.7952,8.2253,17.38,17.38,0,0,0-1.2161,4.98,27.2264,27.2264,0,0,0,.2182,2.8874,24.94,24.94,0,0,1-.24,5.3489c-.2384,1.7711-.7255,3.76-2.29,4.6233-1.4045.7749-3.14.3391-4.6784-.1143l-5.502-1.6215a2.555,2.555,0,0,1-1.6685-1.0295,2.6754,2.6754,0,0,1,.24-2.1775c3.0987-7.6895,2.9064-16.3837,5.91-24.1108,2.0176-5.1913,5.411-9.7644,7.3832-14.9733.41-1.0836.8843-2.5884,2.1837-2.6993C195.8153,138.8243,197.2173,140.15,197.7753,141.2487Z" transform="translate(-76.7423 -76.2423)" fill="#f18070"/><path d="M186.3662,134.2087a4.4912,4.4912,0,0,1,1.2991-1.8933,3.2457,3.2457,0,0,1,3.2666-.0091,7.2661,7.2661,0,0,1,3.6287,5.5955,17.5772,17.5772,0,0,1-.7479,6.8534q-.6206,2.3441-1.4169,4.6367a6.51,6.51,0,0,1-2.2674,3.5562,2.0455,2.0455,0,0,0-.5454.4118,1.773,1.773,0,0,0-.1495,1.3133,15.5275,15.5275,0,0,1-.9876,6.2121,28.7665,28.7665,0,0,1-2.9251,7.2206,5.8518,5.8518,0,0,0-.5237.918,5.1452,5.1452,0,0,0-.2746,1.4385,44.808,44.808,0,0,1-2.5324,11.0349,3.624,3.624,0,0,1-.6761,1.2645,3.52,3.52,0,0,1-2.13.8632,23.4665,23.4665,0,0,1-6.9848-.0357,2.3576,2.3576,0,0,1-1.09-.3719,2.1188,2.1188,0,0,1-.642-1.0359,11.5863,11.5863,0,0,1-.2036-5.5409,60.2,60.2,0,0,1,1.5387-6.5515,95.146,95.146,0,0,1,5.2769-15.6171c1.6308-3.45,3.6722-6.697,5.157-10.2171C183.843,140.9183,184.8523,137.5265,186.3662,134.2087Z" transform="translate(-76.7423 -76.2423)" fill="#f48671"/><path d="M171.9,144.3974q.222-.3675.4447-.7339c1.2688-2.09,2.7478-4.0826,4.1166-6.1117a10.7741,10.7741,0,0,1,1.5148-1.915,3.3087,3.3087,0,0,1,4.9041.2777,6.5448,6.5448,0,0,1,1.2818,5.1288,19.3974,19.3974,0,0,1-1.6951,5.1575c-.7542,1.7291-1.4465,3.5037-2.2692,5.2011-.5086,1.0493-1.6577,1.9049-1.9638,3.0074a4.5293,4.5293,0,0,0-.0528,1.34,12.6911,12.6911,0,0,1-1.0717,4.7038q-.9672,2.5732-1.8,5.1944a42.3986,42.3986,0,0,1-1.9093,5.0654,8.6329,8.6329,0,0,0-.5375,1.9209q-.8673,4.3758-1.7344,8.7518a2.0023,2.0023,0,0,1-.3064.846,1.6925,1.6925,0,0,1-.5856.4437,10.2836,10.2836,0,0,1-4.4538.8579c-3.9563.1269-9.0989-.5208-8.4423-5.8591a11.0525,11.0525,0,0,1,.8691-2.805q3.8733-9.4378,7.7464-18.8756a15.1349,15.1349,0,0,1,1.2036-2.4884c.35-.5426.7686-1.04,1.0976-1.5952.7086-1.1967,1.0218-2.5954,1.6179-3.85C170.4745,146.7985,171.18,145.5923,171.9,144.3974Z" transform="translate(-76.7423 -76.2423)" fill="#f58d76"/><path d="M177.2751,152.0715a3.9236,3.9236,0,0,1-2.4942-.3041,16.4519,16.4519,0,0,0-3.701-1.576.9207.9207,0,0,0,.3784.933,3.531,3.531,0,0,0,.9639.4531,7.6331,7.6331,0,0,1,2.1987,1.287.9507.9507,0,0,1,.423.6674.6851.6851,0,0,1-.604.6046,1.9988,1.9988,0,0,1-.91-.1348l-3.0521-.9523a5.25,5.25,0,0,0,2.2069,1.5564,8.711,8.711,0,0,1,2.3747,1.3272c1.7259,1.5663,1.0413,3.5526.2994,5.387-.7,1.7313-2.5724,7.7352-4.9328,7.6765a3.39,3.39,0,0,1-1.3554-.4325q-.8966-.4338-1.7932-.8675a5.152,5.152,0,0,0-2.8928-.7471,26.6694,26.6694,0,0,0,4.9324,2.2938,1.8713,1.8713,0,0,1,.8771.49.6172.6172,0,0,1-.0636.8937.89.89,0,0,1-.5882.0453q-3.0411-.4656-6.0613-1.0561a2.7647,2.7647,0,0,0,1.901,1.026l4.2226.959a2.2513,2.2513,0,0,1,.9587.3812c1.2537,1.0329-.4575,5.2164-.8767,6.4281a8.8981,8.8981,0,0,1-2.0128,3.5609,3.8943,3.8943,0,0,1-3.7736,1.093c1.708.34,3.4939-.2568,5.2072.0542a21.4831,21.4831,0,0,1,2.9613,1.0252,9.4117,9.4117,0,0,0,6.4532-.179c-1.4214-.1092-2.97-.2739-3.9843-1.2759-2.3037-2.2767-.7459-7.5192.2243-10.1546a2.4653,2.4653,0,0,1,.6795-1.1228c.7318-.5858,2.5193.372,3.3855.455a13.3023,13.3023,0,0,0,3.8992-.04,1.31,1.31,0,0,0,.6616-.2819.5108.5108,0,0,0,.0993-.6564c-.21-.2655-.6275-.1419-.9434-.02a6.239,6.239,0,0,1-3.8639.191,3.3593,3.3593,0,0,1-1.4215-.7264,1.7685,1.7685,0,0,1-.5967-1.4358c2.4511-.4167,4.87,1.5555,7.3034,1.0442a2.97,2.97,0,0,0-2.053-.7785,19.4728,19.4728,0,0,1-5.1608-1.3936,1.1852,1.1852,0,0,1-.5814-.4086,1.0813,1.0813,0,0,1-.0976-.6779c.1434-1.4466,1.1609-2.59,1.6772-3.9238a21.4709,21.4709,0,0,0,1.2781-4.5242c.2516-1.6642.3071-3.9482.9631-5.4928.7813-1.84,3.2448-.9012,4.5546-.1861,1.2037.657,2.5229,1.4157,3.86,1.1118.1609-.4045-.3644-.7207-.7784-.8551a17.03,17.03,0,0,1-3.4947-1.59c-.4425-.2653-.9347-.75-.7022-1.2108,1.1178.0717,2.0545.829,3.08,1.28a5.8684,5.8684,0,0,0,2.7665.48.5665.5665,0,0,0,.0048-.5387,9.4764,9.4764,0,0,1-3.87-1.4058c-2.9561-2.2115-.0975-5.4865.4425-8.2373.4879-2.4858.16-9.5148,4.2843-8.8406a4.7206,4.7206,0,0,1,3.1714,1.77,4.2762,4.2762,0,0,0-2.6856-2.23c-3.2729-.8925-4.2286,1.7117-4.9706,4.2782a6.475,6.475,0,0,1-1.6824,3.3717,15.0709,15.0709,0,0,0-.5-2.8582,3.619,3.619,0,0,0-1.887-2.1647c-2.73-1.1323-4.9378,1.8769-5.78,4.0475,1.11-1.0338,2.88-2.1972,4.48-1.8111A3.0281,3.0281,0,0,1,182.13,138.64c1.3489,2.3683.9713,5.0631-.0443,7.4781C181.1025,148.4556,179.66,151.52,177.2751,152.0715Z" transform="translate(-76.7423 -76.2423)" fill="#ec796d" opacity="0.13" style="mix-blend-mode:multiply"/><path d="M178.9645,152.9956a5.7573,5.7573,0,0,0-.84,1.4356,6.376,6.376,0,0,0-.2239,1.5787c-.2686,3.583-1.7938,6.9292-3.0716,10.2873a79.1436,79.1436,0,0,0-3.2309,10.7165c-.7828,3.4669-2.2213,6.1183-6.1818,6.3338a17.6,17.6,0,0,1-5.002-.6951,6.7973,6.7973,0,0,0,4.5658,1.6816c1.6584.0814,3.3269-.1216,4.9782.0519,2.0514.2156,4.0511,1.009,6.11.8736,2.3418-.1538,4.2069-.8541,6.571-.4291,1.1531.2075,2.2174.6873,3.3451.983a11.523,11.523,0,0,0,2.8545.1187,12.701,12.701,0,0,1-4.1191-.8441,3.59,3.59,0,0,1-2.0756-1.5974c-.5061-1.0639-.0317-2.31.4027-3.405a48.05,48.05,0,0,0,2.76-10.0042,11.456,11.456,0,0,1,.4145-1.9294,14.1025,14.1025,0,0,1,.8833-1.8359c1.69-3.26,2.3754-6.9294,3.1083-10.527a11.39,11.39,0,0,1,.5567-2.0543,22.42,22.42,0,0,1,1.2609-2.2931,19.4365,19.4365,0,0,0,1.9993-8.6246c.0607-1.395.302-3.1365,1.6325-3.56a2.9045,2.9045,0,0,0-1.3236-.2892q-.5605-2.302-1.1212-4.6042a25.4287,25.4287,0,0,1-3.3913,18.6957,4.7985,4.7985,0,0,0-.5185.952,4.7236,4.7236,0,0,0-.1916,1.3051,30.263,30.263,0,0,1-3.1851,11.8,8.978,8.978,0,0,0-.7952,1.8631,9.4891,9.4891,0,0,0-.1783,1.842,22.1254,22.1254,0,0,1-2.652,9.5223,7.9763,7.9763,0,0,1-1.8537,2.4366c-1.6412,1.3413-4.48,1.2026-6.4651,1.0283-2.0937-.1839-2.53-1.574-2.3541-3.566.7338-8.2942,5.4007-15.7827,6.6522-24.0146a7.4785,7.4785,0,0,1,.3751-1.6889,7.933,7.933,0,0,1,1.2817-1.8927,20.5015,20.5015,0,0,0,4.4763-13.2322A30.6864,30.6864,0,0,1,178.9645,152.9956Z" transform="translate(-76.7423 -76.2423)" fill="#5f3a16" opacity="0.09" style="mix-blend-mode:multiply"/><path d="M192.1583,155.4877a1.0218,1.0218,0,0,0-.4854.2137,1.4447,1.4447,0,0,0-.3187.46,30.1883,30.1883,0,0,0-1.8769,5.2931q-1.1568,3.9029-1.9982,7.89l4.1748.8617c.17.43-.5034.6614-.9644.6308l-4.0057-.2657a1.4414,1.4414,0,0,0-.1278.917l4.4749.3623-2.8668.4388a1.9114,1.9114,0,0,0-2.0213,1.7066c-.7763,2.76-1.4695,5.482-.0729,8.2621,1.0332,2.0565,3.618,3.4968,5.7035,2.5235a4.6429,4.6429,0,0,1-4.294,1.4521,20.4577,20.4577,0,0,1-4.5073-1.45,8.2664,8.2664,0,0,0-4.6347-.6459,3.747,3.747,0,0,0,3.1756-1.5265,10.7134,10.7134,0,0,0,1.5952-3.29,34.4507,34.4507,0,0,0,1.97-7.6668,13.4927,13.4927,0,0,1,.4211-2.8137,16.582,16.582,0,0,1,1.4229-2.7247c1.9017-3.4688,2.02-7.6024,3.0516-11.4215,1.4327-5.3067,4.2331-9.9614,4.3843-15.5908,1.8973-.4976,3.3778,1.6932,3.677,3.3411a1.8248,1.8248,0,0,0-1.3917-.7434c-2.2014.2723-3.1966,7.5606-3.9422,9.2781-.5646,1.3.023,1.9709,1.4223,2.3047a11.67,11.67,0,0,1,2.2165.5337c.1024.047.2165.1223.2155.235-.0015.1768-.253.21-.4268.1778a18.6132,18.6132,0,0,0-3.6721-.7252.6668.6668,0,0,0-.481.1494.4922.4922,0,0,0,.0439.6418,1.4344,1.4344,0,0,0,.61.3424l3.3628,1.2131c-1.192.3457-2.43-.5027-3.6658-.3883C192.2707,155.47,192.2142,155.4773,192.1583,155.4877Z" transform="translate(-76.7423 -76.2423)" fill="#ec796d" opacity="0.13" style="mix-blend-mode:multiply"/><path d="M194.5353,163.921c-.8166,3.0085-1.9749,5.9684-2.136,9.0815-.0851,1.6435.1116,3.2892.0943,4.9348a8.8567,8.8567,0,0,1-1.1617,4.7311,4.3473,4.3473,0,0,1-4.1606,2.1035,28.79,28.79,0,0,0,6.4174.4334l5.9293-.0433a17.2747,17.2747,0,0,1-3.5927-1.1417,4.5868,4.5868,0,0,1-2.0491-1.2837,4.3494,4.3494,0,0,1-.6183-2.7016,39.4958,39.4958,0,0,1,.7043-7.2233,14.46,14.46,0,0,0,3.236-.1433,4.4866,4.4866,0,0,1-3.2037-.9785,17.9344,17.9344,0,0,1,4.2987.0234l-2.6247-.8393a2.1769,2.1769,0,0,1-1.1829-.684,2.0948,2.0948,0,0,1-.19-1.4888,25.4982,25.4982,0,0,1,1.2092-5.0893,2.9886,2.9886,0,0,1,.54-1.0463c.7084-.7841,1.9477-.6714,2.99-.4954-.3753-.777-1.68-.2054-2.3714-.7222a1.7062,1.7062,0,0,1-.4738-1.3849,30.0153,30.0153,0,0,1,.4342-5.7385c.1322-.7628.5012-1.6833,1.3821-1.7421-1.5425-2.3441-1.9122,3.351-1.9882,3.8787A63.1507,63.1507,0,0,1,194.5353,163.921Z" transform="translate(-76.7423 -76.2423)" fill="#5f3a16" opacity="0.09" style="mix-blend-mode:multiply"/><path d="M198.22,189.2856a2.8723,2.8723,0,0,0,.392,1.4949,3.3891,3.3891,0,0,1-2.0473,4.2459,12.1855,12.1855,0,0,1-1.94.3083,19.01,19.01,0,0,0-2.2688.5732,32.6673,32.6673,0,0,1-11.2818.9726c-4.4125-.3336-9.12-1.58-11.8539-5.06,1.3607,3.1631,4.8159,4.8863,8.1587,5.7122a27.6768,27.6768,0,0,0,13.1868.0057,30.67,30.67,0,0,1,5.9411-1.2781,1.09,1.09,0,0,1,.7481.1613.9249.9249,0,0,1,.099,1.0981,6.2055,6.2055,0,0,0-.5418,1.0552c-.2951,1.1513,1.0434,2.059,1.3229,3.2141a6.9117,6.9117,0,0,1-.3685,2.6792c-.4881,2.9751,2.1813,5.6708,2.1162,8.6851.1334-3.1767-.63-6.3122-1.1091-9.4554s-.6563-6.4678.58-9.3973a4.8116,4.8116,0,0,0,.5014-1.5576c.054-.9694-.6126-1.8712-.5563-2.8406.0556-.9564.9778-1.9941.5044-2.8866A6.8783,6.8783,0,0,0,198.22,189.2856Z" transform="translate(-76.7423 -76.2423)" fill="#ec796d" opacity="0.13" style="mix-blend-mode:multiply"/><path d="M174.2789,199.9087a55.8822,55.8822,0,0,1,16.3251,12.0288,43.4037,43.4037,0,0,0-5.674-6c-2.06-1.6871-4.4126-2.98-6.5547-4.562a21.2,21.2,0,0,0-2.6038-1.7969,13.5924,13.5924,0,0,0-2.7766-1.0152,52.3072,52.3072,0,0,0-6.8719-1.4028A44.3718,44.3718,0,0,1,174.2789,199.9087Z" transform="translate(-76.7423 -76.2423)" fill="#ec796d" opacity="0.13" style="mix-blend-mode:multiply"/><path d="M159.7205,182.4957c.053.2728.1427.5906.4043.6836.3757.1337.6926-.3033.8389-.6741a12.7981,12.7981,0,0,0-.4774-10.3366c-1.0173-2.0105-2.1758,2.25-2.1352,3.1058A52.7944,52.7944,0,0,0,159.7205,182.4957Z" transform="translate(-76.7423 -76.2423)" fill="#ec796d" opacity="0.13" style="mix-blend-mode:multiply"/><path d="M183.715,213.84l2.7261,12.0587q-1.4874-8.8462-3.5373-17.5856a11.3934,11.3934,0,0,0-1.0386-3.0589,11.69,11.69,0,0,0-4.2824-3.7807C181.7362,203.9167,182.7427,209.539,183.715,213.84Z" transform="translate(-76.7423 -76.2423)" fill="#ec796d" opacity="0.13" style="mix-blend-mode:multiply"/><path d="M183.7723,197.6713a3.7671,3.7671,0,0,0-.0485,7.2657c-1.0069-.4368-1.9182.9623-1.7541,2.0474s.8579,2.0668.853,3.1643c-.9629-.4356-2.0725.5665-2.18,1.6179a5.4835,5.4835,0,0,0,.9231,2.9822c2.4226,4.6269,4.04,9.9425,3.02,15.0646s-5.2727,9.8362-10.4908,10.0519a13.0541,13.0541,0,0,0,6.1187-17.402,26.171,26.171,0,0,0-4.4013-5.9568c-2.3493-2.6189-4.855-5.3432-8.1942-6.451-1.6705-.5543-3.456-.6663-5.154-1.1289a6.1283,6.1283,0,0,1-4.1437-2.99c-.4418-.9654-.5015-2.1193-1.175-2.94-1.0081-1.2289-2.8734-1.1668-4.4537-.9961,1.6351-.0585,2.76-1.8176,2.8208-3.4528a14.9011,14.9011,0,0,0-1.0927-4.7578,1.9112,1.9112,0,0,1-.1005-1.0678,2.0509,2.0509,0,0,1,.69-.8906c3.1523-2.8142,4.004-5.2214,5.15-9.0819a9.7182,9.7182,0,0,0,8.5554-3.0892,15.6058,15.6058,0,0,0,3.7434-8.0762c.1039-.63.1541-1.27.3085-1.89a11.7418,11.7418,0,0,1,.615-1.695c1.6946-4.0239,3.3368-8.1864,3.4671-12.5507a2.3893,2.3893,0,0,1,.19-1.0751,2.54,2.54,0,0,1,.5274-.6012,17.15,17.15,0,0,0,3.7326-6.26c1.3977-3.4881,2.6-7.231,2.0455-10.9476a12.6993,12.6993,0,0,1,.8056,5.4589,21.7092,21.7092,0,0,1-1.2628,5.3643,16.0719,16.0719,0,0,1-1.6708,3.7192c-.4856.7364-1.0785,1.3991-1.5413,2.15-1.2583,2.0415-1.4526,4.5344-1.9434,6.8817a95.5132,95.5132,0,0,1-3.2153,10.0511c-.9184,2.804-2.446,7.1983-1.2318,10.1008.8746,2.0908,3.7884,2.6948,5.8262,1.7031,2.17-1.056,2.9908-3.0461,4.0118-5.0434A12.1624,12.1624,0,0,0,184.3,169.358a11.699,11.699,0,0,0,2.5237-5.0872q.7-2.2947,1.4-4.59a14.1289,14.1289,0,0,0,.6906-3.06,6.6777,6.6777,0,0,1,.1247-1.1854,5.1812,5.1812,0,0,1,.7722-1.47c3.2481-5,3.8672-11.205,4.3976-17.1435.619,3.9149-.4759,7.8755-1.56,11.6879a35.8,35.8,0,0,1-1.352,4.1144,27.3617,27.3617,0,0,0-1.0764,2.6177,25.6357,25.6357,0,0,0-.6179,3.7523c-.8411,5.7237-4.1533,10.8246-5.2543,16.5041a10.4587,10.4587,0,0,0,.1346,4.2674,4.5106,4.5106,0,0,0,2.7218,3.4044c2.3252.776,4.7787-1.29,5.506-3.6305a4.5845,4.5845,0,0,0,2.5345,4.0334,13.4876,13.4876,0,0,0,4.8222,1.2982c.24.8346-.9083,1.3278-1.7721,1.4174a87.7237,87.7237,0,0,1-13.97.3253,18.4251,18.4251,0,0,0-5.085.1336,13.4966,13.4966,0,0,0-4.0045,1.78,4.7461,4.7461,0,0,0-2.4261,2.6344c-.5315,2.2146,1.7673,3.723,3.4777,4.4519C177.9218,196.31,182.0038,198.1436,183.7723,197.6713Z" transform="translate(-76.7423 -76.2423)" fill="#5f3a16" opacity="0.09" style="mix-blend-mode:multiply"/><path d="M160.5044,181.81a17.4861,17.4861,0,0,1-.1417,3.0048,12.8619,12.8619,0,0,1-3.7572,7.34,2.46,2.46,0,0,0-.7272.95,2.2393,2.2393,0,0,0-.02.9448q.3023,2.4954.6048,4.9909a8.6231,8.6231,0,0,0,.514,2.4472,17.4369,17.4369,0,0,0,1.2689,1.872,5.9605,5.9605,0,0,1,.69,1.3345c.1019.3341.1354.6856.2292,1.0221a4.37,4.37,0,0,0,3.3847,2.74c1.4847.3451,3.0346.2515,4.5453.4549,5.9572.8017,10.3109,5.9681,13.385,11.1335a21.7476,21.7476,0,0,1,2.7281,6.1508,9.1416,9.1416,0,0,1-.7357,6.5584,11.33,11.33,0,0,1-3.1773,3.29,29.3356,29.3356,0,0,1-16.82,5.7641,13.057,13.057,0,0,1-7.3065-1.6395c-2.2077-1.4129-3.2286-3.8076-5.1276-5.5858-.7443-.697-1.5678-1.3055-2.3135-2.0009-2.8026-2.6134-4.34-6.2738-5.7986-9.8172a41.0364,41.0364,0,0,1-1.6392-4.4621,13.3888,13.3888,0,0,1-.38-3.772,65.7285,65.7285,0,0,1,.9554-9.1381,96.7319,96.7319,0,0,0,.7812-11.5667,6.7946,6.7946,0,0,1,.6183-3.5138,7.0083,7.0083,0,0,1,1.4295-1.522,30.2675,30.2675,0,0,0,6.6639-8.8826,48.59,48.59,0,0,0,2.2475-5.1331c.4774-1.2728.6893-3.7568,2.5083-3.6569a3.3224,3.3224,0,0,1,1.9828,1.0006c2.4685,2.2735,3.241,5.8494,3.39,9.2021Q160.4972,181.565,160.5044,181.81Z" transform="translate(-76.7423 -76.2423)" fill="#f58d76"/><path d="M159.6391,177.8274a17.37,17.37,0,0,1-.1276,7.4447c-.4886,2.2923-1.3857,4.651-3.2642,6.0526a6.13,6.13,0,0,1-5.5748.8624c.5395.7459,1.5765.861,2.4521,1.1447s1.7975,1.1344,1.436,1.981c-.3325.779-1.4114.8017-2.2519.6972a6.0609,6.0609,0,0,1,2.5158,7.0822,2.6768,2.6768,0,0,1,2.6428,2.2766,8.0618,8.0618,0,0,1-.4514,3.7669,7.3159,7.3159,0,0,0-.358,3.7691,5.99,5.99,0,0,1,.985-2.6264,2.0534,2.0534,0,0,1,2.5083-.6735,9.235,9.235,0,0,0-1.0774,6.2373c.8992-1.2694.4559-3.1643,1.4026-4.3988.9117-1.1892,2.6747-1.232,4.1566-1.0087A21.8635,21.8635,0,0,1,181.68,224.6391a10.9353,10.9353,0,0,1,.6188,5.69c-.7656,3.7367-4.2168,6.2157-7.401,8.3157,3.65-1.4986,7.29-4.0355,8.26-7.86,1.1-4.3388-1.5566-8.652-4.0887-12.3428a37.225,37.225,0,0,0-5.8174-7.1346,12.5287,12.5287,0,0,0-8.3392-3.4308c-1.5753.0382-3.3594.4165-4.5681-.5945a4.8694,4.8694,0,0,1-1.0731-1.5109c-2.0169-3.787-4.0922-7.8255-3.8288-12.1081a2.2689,2.2689,0,0,1,.2858-1.117,3.1153,3.1153,0,0,1,.7887-.711,9.9532,9.9532,0,0,0,3.2569-5.6882c1.2247-4.9028.56-10.5942-2.9912-14.19a2.781,2.781,0,0,0-1.8683-.9952A11.33,11.33,0,0,1,159.6391,177.8274Z" transform="translate(-76.7423 -76.2423)" fill="#5f3a16" opacity="0.09" style="mix-blend-mode:multiply"/><path d="M150.4405,179.9634a3.9252,3.9252,0,0,0,3.6687-1.479,7.3785,7.3785,0,0,0,1.4577-3.8319,4.2747,4.2747,0,0,0-.5732-3.172.8348.8348,0,0,0-.4451-.3331c-1.1372-.2557-1.66,3.0157-1.8992,3.6713A49.8065,49.8065,0,0,1,150.4405,179.9634Z" transform="translate(-76.7423 -76.2423)" fill="#fff" opacity="0.24" style="mix-blend-mode:overlay"/><path d="M157.7785,175.8362a14.7725,14.7725,0,0,1-.0674,5.7634c-.3891,1.4358-.3408,3.0794-.8429,4.484a5.5039,5.5039,0,0,1-3.1469,2.954,10.3709,10.3709,0,0,1-7.0773.381c-.6656-.2034-1.3934-.73-2.0533-.8521a.4141.4141,0,0,0-.5013.3187c-.0162.2794.3221.4211.5914.4974a7.0229,7.0229,0,0,1,1.9195.8746c.2062.1346.4315.3532.352.5862-.094.2758-3.7615-.9355-4.1755-1.0569a.3324.3324,0,0,0-.1768-.0182.2293.2293,0,0,0-.1027.3276.6379.6379,0,0,0,.3059.2393,10.771,10.771,0,0,0,3.243.9736c.2966.04.6763.1488.6889.4478a.4988.4988,0,0,1-.3016.4183,2.2354,2.2354,0,0,1-1.7626-.11l-2.2227-.7788a.4741.4741,0,0,0,.0785.6162,1.381,1.381,0,0,0,.6091.2935,12.7252,12.7252,0,0,0,3.58.6775,8.4887,8.4887,0,0,1,1.2459.0142c2.9065.4171,3.3522,4.0091,2.4943,6.3071a12.3179,12.3179,0,0,0-1.0435,2.7539c-.24,2.0675,1.61,3.6939,2.6528,5.4954,1.7784,3.0738,1.2446,7.03,2.7994,10.2228,1.6891,3.4682,5.4647,5.3479,9.0674,6.7262s7.4754,2.6194,10.0485,5.493a6.2645,6.2645,0,0,1,1.256,6.2186,6.3437,6.3437,0,0,1-3.8685,3.8382,7.0637,7.0637,0,0,0,2.9431-.8663,35.2644,35.2644,0,0,0,5.4159-3.225c1.9017-1.3768,3.3274-2.9214,3.5394-5.2927a17.5354,17.5354,0,0,0-1.0826-7.7828,26.0074,26.0074,0,0,0-4.6522-8.3557,18.807,18.807,0,0,0-12.0994-6.249c-1.5931-.1456-3.2991-.0954-4.6509-.9508a6.9387,6.9387,0,0,1-2.4-3.3023,28.3707,28.3707,0,0,1-2.2191-9.3624,2.7888,2.7888,0,0,1,.1-1.16,3.1528,3.1528,0,0,1,.777-1.0271,13.2227,13.2227,0,0,0,3.47-5.645c1.1531-4.2388-.6635-8.6593-2.4569-12.67-.3572-.799-.9739-2.0771-1.8955-2.3018a19.5111,19.5111,0,0,0,1.0548,1.8945A9.6653,9.6653,0,0,1,157.7785,175.8362Z" transform="translate(-76.7423 -76.2423)" fill="#ec796d" opacity="0.13" style="mix-blend-mode:multiply"/><path d="M172.6079,241.3261a11.33,11.33,0,0,0,3.0387,1.7912,38,38,0,0,1,4.3118,1.5675c3.4474,1.8714,2.5679,6.1949,2.1323,9.4219a49.0394,49.0394,0,0,1-2.8236,12.0442,56.8167,56.8167,0,0,1-4.7639,8.6453c-.1833.2913-.3739.5809-.5586.8724h8.3426c.1594-.9645.2824-1.9367.4186-2.9045a96.49,96.49,0,0,1,5.3028-21.1943c2.37-6.1417,3.883-12.3489,7.8721-17.7822a37.58,37.58,0,0,0,3.2469-4.4818,14.5286,14.5286,0,0,0,1.4591-5.784c.57-8.089-2.6332-16.0208-2.6232-24.13a8.7207,8.7207,0,0,1,.3831-2.9173c.2733-.77.73-1.465,1.0026-2.2351a4.9882,4.9882,0,0,0-.2308-3.3679,5.812,5.812,0,0,1-.2075-1.2068c-.0192-.3631,1.155-4.2094,1.0077-4.2182a10.07,10.07,0,0,1-7.3561-3.9577,19.4905,19.4905,0,0,1,.3029,8.6181,12.5749,12.5749,0,0,1-4.3659,7.3169,13.7209,13.7209,0,0,1-2.3338,10.0511,42.8757,42.8757,0,0,1,10.5158,16.856,9.8343,9.8343,0,0,1,.6718,3.7213c-.1809,2.7492-2.3152,4.9153-4.3158,6.8094a3.9981,3.9981,0,0,1-2.023,1.254,1.5636,1.5636,0,0,1-1.5288-.7143,2.6174,2.6174,0,0,1-.749,1.9583,5.47,5.47,0,0,1-2.4018,1.2988c-1.2316.3763-6.2179,1.7463-6.9229.29a1.6568,1.6568,0,0,1-.0461-1.1009,6.6008,6.6008,0,0,1,1.6394-2.74,15.8776,15.8776,0,0,0,2.0325-2.4976,3.6475,3.6475,0,0,0,.4123-3.0906,4.79,4.79,0,0,1-.6384,2.1229c-2.353,4.563-6.4585,6.546-11.1949,7.7723C171.4384,240.1513,172.0227,240.8436,172.6079,241.3261Z" transform="translate(-76.7423 -76.2423)" fill="#ec796d" opacity="0.13" style="mix-blend-mode:multiply"/><path d="M196.1176,156.7256a2.4569,2.4569,0,0,0,.1132.9389,3.8969,3.8969,0,0,0,.8035,1.0567c1.4129,1.6333,1.4062,4.0194,1.324,6.1775q-.1146,3.0126-.2294,6.0252a.9791.9791,0,0,1-.2811.7948.9656.9656,0,0,1-.5114.1295q-.6183.039-1.2364.0776c-.0658.4209.5807.467.9761.6255.6094.2444.7419,1.037.7506,1.6934a20.2855,20.2855,0,0,1-.2638,3.5418c-.2027,1.24-.6609,2.63-1.8252,3.1012a4.1064,4.1064,0,0,1-2.9413-.3469,4.1792,4.1792,0,0,1-4.417,3.3876,19.7731,19.7731,0,0,1-2.2981-.5791,2.9444,2.9444,0,0,0-2.2941.2328c4.49,1.7892,9.5761.9175,14.3283,1.7977.8.1482,1.784.5939,1.7137,1.4046.8288-2.1629-.14-4.3444-.3339-6.5a37.4194,37.4194,0,0,1,.0585-7.3049,68.9937,68.9937,0,0,0,.8377-7.9572q-.0308-3.9874-.2966-7.9686a6.5992,6.5992,0,0,0-.9-3.4534c-.7065-.9909-2.2082-1.4782-2.6819-.1494A10.56,10.56,0,0,0,196.1176,156.7256Z" transform="translate(-76.7423 -76.2423)" fill="#ec796d" opacity="0.13" style="mix-blend-mode:multiply"/><path d="M180.842,138.3621c-.1666,3.7667-.913,7.8931-3.8371,10.2735a13.0825,13.0825,0,0,1-4.5527,2.1566,5.5286,5.5286,0,0,1,1.792,1.1776,1.8818,1.8818,0,0,1,.4167,1.9926,1.1572,1.1572,0,0,1-1.7881.3824c.711,2.3483-.2814,4.8383-1.256,7.09a16.7465,16.7465,0,0,1-2.0464,3.7937,5.64,5.64,0,0,1-3.573,2.2361,15.4228,15.4228,0,0,1,3.1894,1.4141c.4555.2673.9591.6958.8448,1.2113-.1131.51-.7431.69-1.2647.7182a7.3951,7.3951,0,0,1-3.0028-.4675,1.622,1.622,0,0,1,.8949,1.1963c.8314,2.9944-.97,6.1526-3.335,8.1685-1.0952.9335-2.37,1.7752-2.9524,3.0915a8.79,8.79,0,0,0,5.1853,1.4023c2.2812-.0337,4.726-.8078,5.9984-2.7015,1.4029-2.0874,1.0071-4.8384,1.2933-7.337.2976-2.5992,1.3765-5.0326,2.198-7.5166a67.257,67.257,0,0,0,1.9767-7.9538,20.2691,20.2691,0,0,1,1.077-4.0029,47.073,47.073,0,0,1,2.7888-4.7037,23.0037,23.0037,0,0,0,2.2493-5.9267c.6242-2.5282.9625-5.2888-.1036-7.6647-.3-.6684-1.05-1.8534-1.7274-1.092C180.7474,135.93,180.8765,137.5815,180.842,138.3621Z" transform="translate(-76.7423 -76.2423)" fill="#ec796d" opacity="0.13" style="mix-blend-mode:multiply"/><path d="M189.5265,133.79c2.6459,3.9585,2.2917,9.279.607,13.7323a6.2534,6.2534,0,0,1-1.5729,2.5936,2.5249,2.5249,0,0,1-2.8342.4467c.0684.6576.82.9659,1.4291,1.2243s1.2792.8549,1.0078,1.4578a6.481,6.481,0,0,1-2.2911-.3745,3.2824,3.2824,0,0,1,1.4934,2.0956,5.8063,5.8063,0,0,1-.19,2.5747,26.66,26.66,0,0,1-4.1367,9.0592c-.9522,1.3428-2.4893,2.7362-4.0338,2.1669q1.4181.5373,2.836,1.0749c.5247.1987,1.1532.5594,1.08,1.1157-.0659.5006-.6781.7267-1.1826.7041a4.1529,4.1529,0,0,0-1.5024-.0229c1.23.586,1.1981,2.326.9424,3.6646a13.7974,13.7974,0,0,1-1.4716,4.5234,5.2646,5.2646,0,0,1-3.7509,2.6845c-1.3136.1461-2.9577-.2436-3.7192.8368l4.1259,1.6563a6.7431,6.7431,0,0,0,4.1388.7047,4.612,4.612,0,0,0,2.9051-2.9344,16.1788,16.1788,0,0,0,.7451-4.2094c.8461-8.506,3.5732-16.7044,6.5216-24.728a61.6674,61.6674,0,0,0,2.3329-7.1778,28.8033,28.8033,0,0,0,.675-8.679,8.77,8.77,0,0,0-1.1162-4.1244,3.8992,3.8992,0,0,0-2.5949-1.8305C188.5813,131.8894,188.9776,132.9686,189.5265,133.79Z" transform="translate(-76.7423 -76.2423)" fill="#ec796d" opacity="0.13" style="mix-blend-mode:multiply"/><path d="M195.4591,144.4713a18.6582,18.6582,0,0,1,.7158,5.6314,4.5844,4.5844,0,0,1-.4125,2.4987,1.5815,1.5815,0,0,1-2.1811.6288,1.917,1.917,0,0,1,1.7241,1.2668c.1707.741-.7076,1.5836-1.3434,1.1664a4.57,4.57,0,0,1,.5269,3.2685,55.8341,55.8341,0,0,1-2.1815,10.8.8209.8209,0,0,1-1.0448.7484q-.9749-.0756-1.95-.1513a1.3934,1.3934,0,0,1,.8224,1.5057l-1.6451.2356c1.2517,1.4094,1.4638,3.4367,1.5465,5.32a9.244,9.244,0,0,1-.2076,2.9548c-1.0244,3.5784-6.4747,2.872-6.7775-.7565a9.6393,9.6393,0,0,1-2.956,3.3515,6.4886,6.4886,0,0,1-4.2671,1.1449c3.17.3589,6.181,1.5872,9.3287,2.1091a21.296,21.296,0,0,0,9.6816-.6457,3.3917,3.3917,0,0,1-1.1819-2.4961c-.0616-.958.237-1.8775.1964-2.8245-.0441-1.03-.0635-2.0592-.0591-3.0986a52.366,52.366,0,0,1,.3244-7.17c.4181-2.9361,1.3779-5.7653,2.0191-8.6611.2934-1.325.5194-2.6642.702-4.0087.1746-1.2848-.07-2.4459.0216-3.6934a3.0235,3.0235,0,0,1,.14-.6333,29.876,29.876,0,0,0,1.3209-7.2,10.7612,10.7612,0,0,0-.242-3.3216,5.0731,5.0731,0,0,0-1.7458-2.78,2.3456,2.3456,0,0,0-1.681-.5415,5.182,5.182,0,0,0-.2062,2.82C194.6969,142.8177,195.1638,143.6113,195.4591,144.4713Z" transform="translate(-76.7423 -76.2423)" fill="#ec796d" opacity="0.13" style="mix-blend-mode:multiply"/><path d="M147.5841,258.8633a60.3617,60.3617,0,0,1-3.8434,5.6631c-.7139.9328-1.97,1.8726-2.1016,3.0719-.1552,1.42,1.02,2.9989,1.8444,4.0326a27.9012,27.9012,0,0,0,4.0267,4.0377h6.8844c-.7149-2.7038-.214-5.686.5519-8.4263,3.4588-12.3759,11.4261-21.4988,21.3133-29.2622,3.5309-2.7725,7.7228-5.84,6.8048-10.9273-.769-4.2609-3.233-8.0047-5.7993-11.4921-2.07-2.8126-4.4518-5.6962-7.7886-6.7258-1.8992-.586-3.9377-.5087-5.8858-.9024a6.3345,6.3345,0,0,1-4.1655-2.5065c1.9363,3.8623,6.9168,4.8617,9.8241,7.9465,3.3789,3.585,4.178,8.9858,2.8652,13.6765a15.6627,15.6627,0,0,1-.616,1.7825c-2.2965,5.5337-8.6078,9.57-14.6031,7.44a15.4055,15.4055,0,0,1-3.1521-1.7055c-4.3089-2.7917-8.7878-5.8841-10.9089-10.56,1.0553,2.7053,2.1608,5.49,4.1934,7.564.9836,1.0035,2.1537,1.8065,3.1661,2.7807,1.85,1.78,3.9531,3.7923,3.9009,6.5894a26.4561,26.4561,0,0,1-2.2039,9.2155A60.4677,60.4677,0,0,1,147.5841,258.8633Z" transform="translate(-76.7423 -76.2423)" fill="#ec796d" opacity="0.13" style="mix-blend-mode:multiply"/><path d="M191.4568,239.1894c-5.0231.7579-9.4417,4.5516-14.5134,4.2616-3.9854-.2282-7.5786-2.9883-11.5671-2.825a28.1931,28.1931,0,0,1,11.7537-.6633C181.9307,240.5579,186.7205,239.9039,191.4568,239.1894Z" transform="translate(-76.7423 -76.2423)" fill="#ec796d" opacity="0.13" style="mix-blend-mode:multiply"/><path d="M219.7045,274.6186h39.7848a20.303,20.303,0,0,0,1.7423-2.7549,2.8653,2.8653,0,0,0,.4185-1.4411,3.15,3.15,0,0,0-.7776-1.6024,82.99,82.99,0,0,1-9.0809-15.4006,36.135,36.135,0,0,1-1.9174-5.0446q-.1383-.49-.2537-.9858c-.448-1.9266-.0449-3.8991-.381-5.7457-.6061-3.33-4.5212-2.6-7.3412-2.9388a100.0439,100.0439,0,0,0-20.94-.3185c-1.999.18-3.9993.4267-6.0075.4766-2.2459.0556-5.0322-1.5381-7.055-1.1594,2.3507,6.437,5.3074,12.529,7.2164,19.1925C216.7936,262.7637,218.1907,268.7067,219.7045,274.6186Z" transform="translate(-76.7423 -76.2423)" fill="#f58d76"/><path d="M203.2512,158.9627a37.062,37.062,0,0,0-.5157,4.132,41.3617,41.3617,0,0,0-.15,8.5286c.1991,1.6482.5959,3.2675.7929,4.9158a40.9923,40.9923,0,0,1-.2147,8.7441,21.4706,21.4706,0,0,0-.3571,4.5366c.147,1.0987.897,1.9877.5623,3.1915-.1654.5945-.5221,1.1293-.63,1.737-.1992,1.1267.4814,2.1927.9162,3.251,1.2131,2.9522.552,6.2921.0586,9.4452a136.4837,136.4837,0,0,0-1.2973,14.2688c-.1529,3.047-.263,6.1763.707,9.0689a25.2614,25.2614,0,0,0,3.5221,6.24c1.3369,1.9172,2.7606,3.9112,4.8521,4.9547a14.1264,14.1264,0,0,0,5.9777,1.04c5.7933.1581,11.8643.2574,17.0335-2.3634a22.7,22.7,0,0,0,9.5045-9.989,52.7663,52.7663,0,0,0,4.3491-13.2776c1.8719-8.6451,2.9507-18.0051-.7-26.062a13.19,13.19,0,0,0-3.2934-4.69c-2.5156-2.1432-5.999-2.7511-9.3033-2.786s-6.6221.4186-9.9053.0425a20.08,20.08,0,0,1-12.3025-6.3148,8.319,8.319,0,0,1-2.5181-5.1807c-.4017-2.8848-1.34-5.7517-1.8792-8.6227-.2735-1.4555-.5266-2.9157-.7484-4.38a6.9687,6.9687,0,0,0-.4821-2.5925C205.5934,154.4162,203.5805,157.3308,203.2512,158.9627Z" transform="translate(-76.7423 -76.2423)" fill="#ec796d"/><path d="M248.5064,195.696c-1.4935,2.07-1.0127,5.26-1.0208,7.76a3.9154,3.9154,0,0,1-.1908,1.4054,7.0657,7.0657,0,0,1-.8354,1.3154c-1.1809,1.7616-1.2724,4.1585-2.7208,5.7076a1.0378,1.0378,0,0,1-.4279.3087,1.28,1.28,0,0,1-.7089-.0676c-3.3695-.929-6.9041.4429-10.1,1.8563a17.9512,17.9512,0,0,0-5.3329,3.1731c1.16-1.1143,1.7344-2.8311,3.0448-3.9632a14.2938,14.2938,0,0,1,4.36-2.5532,12.3664,12.3664,0,0,1,5.274-.9373c.7382.08,1.1287.4506,1.8525.08.8366-.4285,1.0108-1.5913,1.262-2.39.4462-1.4192,1.2718-2.6975,1.6993-4.1221a23.1756,23.1756,0,0,0,.7315-3.1065c.0613-.4025-.0919-3.4671.0217-3.5481a69.1118,69.1118,0,0,1-7.7,4.9823c-3.455,1.8237-7.2928,3.11-10.1331,5.793a21.5576,21.5576,0,0,0-3.5366,4.6565,56.6579,56.6579,0,0,0-7.4481,20.6993c-.0409-3.5055,1.0869-6.9067,2.2018-10.23,1.6-4.7684,3.2966-9.702,6.766-13.3432a31.1249,31.1249,0,0,1,5.3632-4.2468c2.0454-1.3666,4.1222-2.6851,6.1987-4.0036q3.0563-1.94,6.1119-3.88a3.57,3.57,0,0,0,1.35-1.2311c.5552-1.0582-.92-2.5484-1.5279-3.3833a14.7188,14.7188,0,0,0-3.2408-3.1316c-3.198-2.3471-7.0545-2.7265-10.9389-2.6035a4.06,4.06,0,0,0,3.23-2.0049,5.4985,5.4985,0,0,0,3.24.5959c1.9753-.071,4.1334-.37,5.4761-1.82a10.7636,10.7636,0,0,0,1.7936-3.7266,4.9929,4.9929,0,0,1,2.5294-3.148,19.5561,19.5561,0,0,0,.3855,14.611,6.7151,6.7151,0,0,0,1.7892,2.4624,3.1563,3.1563,0,0,0,2.8773.6355A4.4194,4.4194,0,0,0,248.5064,195.696Z" transform="translate(-76.7423 -76.2423)" fill="#ec796d" opacity="0.13" style="mix-blend-mode:multiply"/><path d="M205.2875,144.0219a8.65,8.65,0,0,0-.6946,4.2388,24.5242,24.5242,0,0,0,.9183,5.834,44.24,44.24,0,0,1,1.3349,4.7618c.1934,1.1614.2091,2.3439.3038,3.5175a34.979,34.979,0,0,0,1.7952,8.2254,17.3747,17.3747,0,0,1,1.2161,4.98,27.2283,27.2283,0,0,1-.2182,2.8875,24.94,24.94,0,0,0,.24,5.3488c.2384,1.7712.7255,3.76,2.29,4.6233,1.4045.7747,3.14.3392,4.6784-.1143l5.502-1.6215a2.5546,2.5546,0,0,0,1.6686-1.03,2.6761,2.6761,0,0,0-.24-2.1774c-3.0988-7.6893-2.9063-16.3836-5.91-24.1106-2.0177-5.1914-5.4111-9.7647-7.3833-14.9733-.41-1.0837-.8842-2.5887-2.1837-2.6993C207.2475,141.5972,205.8456,142.9228,205.2875,144.0219Z" transform="translate(-76.7423 -76.2423)" fill="#f18070"/><path d="M216.6967,136.9817a4.4949,4.4949,0,0,0-1.2991-1.8934,3.2469,3.2469,0,0,0-3.2666-.0091,7.2662,7.2662,0,0,0-3.6287,5.5957,17.575,17.575,0,0,0,.7479,6.8535q.62,2.3439,1.4168,4.6366a6.511,6.511,0,0,0,2.2674,3.5563,2.0418,2.0418,0,0,1,.5454.4118,1.7727,1.7727,0,0,1,.1495,1.3132,15.5282,15.5282,0,0,0,.9877,6.2121,28.7617,28.7617,0,0,0,2.925,7.2207,5.8428,5.8428,0,0,1,.5237.918,5.1425,5.1425,0,0,1,.2747,1.4382,44.8117,44.8117,0,0,0,2.5322,11.0351,3.6252,3.6252,0,0,0,.6763,1.2645,3.52,3.52,0,0,0,2.13.8632,23.4585,23.4585,0,0,0,6.9846-.0359,2.3545,2.3545,0,0,0,1.09-.3716,2.1181,2.1181,0,0,0,.642-1.036,11.5839,11.5839,0,0,0,.2038-5.5409,60.1978,60.1978,0,0,0-1.5387-6.5514,95.1682,95.1682,0,0,0-5.277-15.6171c-1.6309-3.45-3.6721-6.6972-5.1571-10.2171C219.22,143.6912,218.2105,140.3,216.6967,136.9817Z" transform="translate(-76.7423 -76.2423)" fill="#f48671"/><path d="M231.1624,147.1705q-.2217-.3673-.4447-.7339c-1.2688-2.09-2.7478-4.0825-4.1165-6.1116a10.7864,10.7864,0,0,0-1.5147-1.9153,3.3089,3.3089,0,0,0-4.9042.2779,6.5446,6.5446,0,0,0-1.2818,5.1287,19.3967,19.3967,0,0,0,1.6951,5.1574c.7542,1.7291,1.4465,3.5039,2.2692,5.2013.5086,1.0492,1.6578,1.9049,1.9637,3.0074a4.5263,4.5263,0,0,1,.053,1.34,12.6881,12.6881,0,0,0,1.0717,4.7039q.9672,2.5729,1.7995,5.1942a42.3861,42.3861,0,0,0,1.91,5.0655,8.6344,8.6344,0,0,1,.5375,1.9209q.8672,4.376,1.7344,8.7519a2.0036,2.0036,0,0,0,.3063.8459,1.6908,1.6908,0,0,0,.5857.4437,10.286,10.286,0,0,0,4.4538.858c3.9563.1268,9.0989-.521,8.4421-5.8593a11.045,11.045,0,0,0-.8691-2.8049q-3.873-9.4378-7.7463-18.8756a15.13,15.13,0,0,0-1.2035-2.4884c-.35-.5427-.7686-1.04-1.0976-1.5951-.7086-1.197-1.0218-2.5956-1.6181-3.85C232.5884,149.5715,231.8833,148.3654,231.1624,147.1705Z" transform="translate(-76.7423 -76.2423)" fill="#f58d76"/><path d="M225.7877,154.8446a3.9246,3.9246,0,0,0,2.4943-.3042,16.4542,16.4542,0,0,1,3.701-1.5759.9208.9208,0,0,1-.3783.9331,3.535,3.535,0,0,1-.964.4528,7.6337,7.6337,0,0,0-2.1987,1.2872.95.95,0,0,0-.423.6672.6849.6849,0,0,0,.6038.6046,2.0021,2.0021,0,0,0,.9107-.1345l3.0521-.9524a5.2507,5.2507,0,0,1-2.2071,1.5564,8.7155,8.7155,0,0,0-2.3747,1.3272c-1.7257,1.5664-1.0413,3.5526-.2992,5.3869.7,1.7315,2.5724,7.7353,4.9326,7.6765a3.3862,3.3862,0,0,0,1.3556-.4325l1.7932-.8673a5.1513,5.1513,0,0,1,2.8928-.7474,26.666,26.666,0,0,1-4.9326,2.294,1.8708,1.8708,0,0,0-.877.49.6172.6172,0,0,0,.0635.8936.8893.8893,0,0,0,.5884.0451q3.041-.4651,6.0613-1.0559a2.7651,2.7651,0,0,1-1.9012,1.0261l-4.2224.959a2.25,2.25,0,0,0-.9588.3812c-1.2536,1.0327.4576,5.2163.8766,6.428a8.8954,8.8954,0,0,0,2.013,3.5607,3.8939,3.8939,0,0,0,3.7734,1.0932c-1.7077.34-3.4937-.2567-5.2071.0542a21.489,21.489,0,0,0-2.9614,1.0252,9.4118,9.4118,0,0,1-6.453-.1792c1.4212-.109,2.97-.2736,3.9841-1.2757,2.3039-2.2769.7461-7.5194-.2241-10.1546a2.468,2.468,0,0,0-.6795-1.123c-.7319-.5856-2.5193.3723-3.3856.4553a13.3058,13.3058,0,0,1-3.8992-.04,1.3113,1.3113,0,0,1-.6615-.2819.5109.5109,0,0,1-.0993-.6567c.21-.2654.6274-.1416.9433-.02a6.2383,6.2383,0,0,0,3.8639.1911,3.3567,3.3567,0,0,0,1.4216-.7266,1.7674,1.7674,0,0,0,.5965-1.4358c-2.451-.4167-4.87,1.5556-7.3032,1.0445a2.9693,2.9693,0,0,1,2.053-.7786,19.4731,19.4731,0,0,0,5.1607-1.3936,1.184,1.184,0,0,0,.5813-.4086,1.0806,1.0806,0,0,0,.0976-.6779c-.1433-1.4466-1.1607-2.59-1.6771-3.924a21.4811,21.4811,0,0,1-1.2781-4.524c-.2515-1.6642-.3071-3.9482-.9631-5.4928-.7812-1.84-3.2449-.9012-4.5546-.1863-1.2037.6572-2.5229,1.4159-3.86,1.1121-.1609-.4046.3644-.721.7785-.8553a17.021,17.021,0,0,0,3.4947-1.59c.4425-.2653.9345-.75.7021-1.2109-1.1178.0718-2.0544.8289-3.08,1.28a5.8672,5.8672,0,0,1-2.7665.48.5667.5667,0,0,1-.0048-.5387,9.48,9.48,0,0,0,3.87-1.4057c2.9561-2.2116.0974-5.4865-.4426-8.2376-.4879-2.4855-.16-9.5146-4.2843-8.84a4.72,4.72,0,0,0-3.1714,1.77,4.2761,4.2761,0,0,1,2.6856-2.2305c3.273-.8924,4.2287,1.7117,4.9706,4.278a6.4767,6.4767,0,0,0,1.6824,3.372,15.0681,15.0681,0,0,1,.5-2.8582,3.6188,3.6188,0,0,1,1.887-2.1647c2.73-1.1324,4.9379,1.8769,5.78,4.0474-1.11-1.0337-2.8806-2.1971-4.48-1.8113a3.0288,3.0288,0,0,0-1.8466,1.4886c-1.3489,2.3682-.9714,5.0631.0442,7.478C221.96,151.2287,223.4028,154.2934,225.7877,154.8446Z" transform="translate(-76.7423 -76.2423)" fill="#ec796d" opacity="0.13" style="mix-blend-mode:multiply"/><path d="M224.0984,155.7685a5.7666,5.7666,0,0,1,.84,1.4359,6.3707,6.3707,0,0,1,.2239,1.5787c.2685,3.5828,1.7938,6.9291,3.0717,10.2873a79.1339,79.1339,0,0,1,3.2309,10.7162c.7827,3.4671,2.2211,6.1183,6.1817,6.3341a17.6114,17.6114,0,0,0,5.0021-.6952,6.7973,6.7973,0,0,1-4.566,1.6816c-1.6582.0814-3.3266-.1216-4.978.052-2.0516.2153-4.0513,1.0087-6.11.8735-2.3417-.1538-4.207-.854-6.571-.429-1.153.2072-2.2174.6872-3.3451.983a11.5222,11.5222,0,0,1-2.8544.1185,12.693,12.693,0,0,0,4.119-.844,3.59,3.59,0,0,0,2.0757-1.5973c.506-1.0642.0316-2.31-.4027-3.4053a48.0394,48.0394,0,0,1-2.7605-10.0039,11.4452,11.4452,0,0,0-.4145-1.93,14.097,14.097,0,0,0-.8833-1.836c-1.69-3.2593-2.3754-6.9292-3.1083-10.5269a11.3887,11.3887,0,0,0-.5567-2.0542,22.3914,22.3914,0,0,0-1.2609-2.2932,19.4362,19.4362,0,0,1-1.9992-8.6248c-.0608-1.3948-.3021-3.1363-1.6326-3.56a2.9083,2.9083,0,0,1,1.3237-.289q.5606-2.3023,1.1211-4.6042a25.4291,25.4291,0,0,0,3.3914,18.6958,4.7973,4.7973,0,0,1,.5184.9519,4.7266,4.7266,0,0,1,.1917,1.3049,30.2632,30.2632,0,0,0,3.1851,11.8005,8.9754,8.9754,0,0,1,.7951,1.863,9.4868,9.4868,0,0,1,.1783,1.842,22.1264,22.1264,0,0,0,2.652,9.5223,7.9738,7.9738,0,0,0,1.8538,2.4367c1.6412,1.3412,4.48,1.2026,6.4649,1.0282,2.0937-.1841,2.5305-1.5742,2.3543-3.566-.7337-8.2941-5.4008-15.7827-6.6523-24.0147a7.4819,7.4819,0,0,0-.3751-1.6888,7.9259,7.9259,0,0,0-1.2818-1.8926,20.5028,20.5028,0,0,1-4.4762-13.2323A30.683,30.683,0,0,0,224.0984,155.7685Z" transform="translate(-76.7423 -76.2423)" fill="#5f3a16" opacity="0.09" style="mix-blend-mode:multiply"/><path d="M210.9045,158.2608a1.0226,1.0226,0,0,1,.4855.2137,1.4431,1.4431,0,0,1,.3186.4606,30.1743,30.1743,0,0,1,1.8769,5.2928q1.1569,3.9032,1.9982,7.8905l-4.1748.8616c-.17.43.5034.6615.9645.6308l4.0056-.2659a1.4422,1.4422,0,0,1,.1278.9173q-2.2374.181-4.4748.3621l2.8667.439A1.9112,1.9112,0,0,1,216.92,176.77c.7763,2.76,1.47,5.4821.0729,8.2621-1.0332,2.0565-3.6179,3.4968-5.7035,2.5236a4.643,4.643,0,0,0,4.294,1.452,20.4479,20.4479,0,0,0,4.5074-1.45,8.2661,8.2661,0,0,1,4.6346-.6461,3.7462,3.7462,0,0,1-3.1757-1.5263,10.7216,10.7216,0,0,1-1.5951-3.29,34.4549,34.4549,0,0,1-1.97-7.6668,13.486,13.486,0,0,0-.4211-2.8138A16.5744,16.5744,0,0,0,216.14,168.89c-1.9016-3.4687-2.02-7.6024-3.0515-11.4215-1.4328-5.3068-4.2331-9.9613-4.3844-15.5909-1.8972-.4975-3.3778,1.6934-3.677,3.3411a1.8255,1.8255,0,0,1,1.3917-.7433c2.2015.2724,3.1966,7.5606,3.9422,9.278.5646,1.3-.023,1.971-1.4222,2.3049a11.6553,11.6553,0,0,0-2.2166.5336c-.1024.0471-.2165.1224-.2155.235.0015.1768.253.21.4268.1776a18.6359,18.6359,0,0,1,3.6721-.725.6668.6668,0,0,1,.481.1494.492.492,0,0,1-.0438.6416,1.432,1.432,0,0,1-.61.3426q-1.6814.6064-3.3628,1.2132c1.192.3456,2.43-.503,3.6658-.3883C210.7921,158.2428,210.8486,158.25,210.9045,158.2608Z" transform="translate(-76.7423 -76.2423)" fill="#ec796d" opacity="0.13" style="mix-blend-mode:multiply"/><path d="M208.5275,167.7442c.8166,3.0084,1.9749,5.9681,2.1361,9.0813.085,1.6436-.1117,3.2893-.0943,4.935a8.8554,8.8554,0,0,0,1.1616,4.731,4.3479,4.3479,0,0,0,4.1606,2.1036,28.7952,28.7952,0,0,1-6.4174.4333q-2.9646-.0216-5.9293-.0434a17.2961,17.2961,0,0,0,3.5927-1.1415,4.5859,4.5859,0,0,0,2.0491-1.284,4.3483,4.3483,0,0,0,.6183-2.7013,39.4932,39.4932,0,0,0-.7043-7.2233,14.4656,14.4656,0,0,1-3.236-.1433,4.4879,4.4879,0,0,0,3.2038-.9785,17.924,17.924,0,0,0-4.2987.0233l2.6247-.8393a2.1776,2.1776,0,0,0,1.1828-.6842,2.094,2.094,0,0,0,.19-1.4888,25.4931,25.4931,0,0,0-1.2091-5.089,2.9884,2.9884,0,0,0-.54-1.0464c-.7083-.784-1.9476-.6714-2.9895-.4954.3753-.777,1.68-.2054,2.3714-.7222a1.706,1.706,0,0,0,.4738-1.3848,30.0163,30.0163,0,0,0-.4342-5.7386c-.1322-.7628-.5012-1.6832-1.382-1.7421,1.5424-2.3441,1.9121,3.3508,1.9881,3.8788A63.1507,63.1507,0,0,0,208.5275,167.7442Z" transform="translate(-76.7423 -76.2423)" fill="#5f3a16" opacity="0.09" style="mix-blend-mode:multiply"/><path d="M204.8425,192.0586a2.8735,2.8735,0,0,1-.3921,1.495,3.3893,3.3893,0,0,0,2.0473,4.246,12.2329,12.2329,0,0,0,1.94.3083,19.01,19.01,0,0,1,2.2688.5732,32.6668,32.6668,0,0,0,11.2817.9724c4.4126-.3335,9.12-1.58,11.8541-5.06-1.3607,3.163-4.8159,4.8862-8.1588,5.7119a27.6743,27.6743,0,0,1-13.1868.0057,30.6922,30.6922,0,0,0-5.9411-1.2781,1.0912,1.0912,0,0,0-.7481.1616.9247.9247,0,0,0-.099,1.098,6.21,6.21,0,0,1,.5418,1.0553c.2951,1.1512-1.0434,2.0589-1.3229,3.214a6.91,6.91,0,0,0,.3685,2.679c.4881,2.9753-2.1813,5.671-2.1162,8.6853-.1334-3.1767.63-6.3122,1.1091-9.4554s.6563-6.4678-.58-9.3973a4.8081,4.8081,0,0,1-.5015-1.5578c-.054-.9691.6126-1.8709.5563-2.84-.0556-.9564-.9778-1.9942-.5044-2.8867A6.8807,6.8807,0,0,1,204.8425,192.0586Z" transform="translate(-76.7423 -76.2423)" fill="#ec796d" opacity="0.13" style="mix-blend-mode:multiply"/><path d="M228.784,202.6816a55.882,55.882,0,0,0-16.3252,12.029,43.404,43.404,0,0,1,5.674-6c2.06-1.6871,4.4127-2.98,6.5546-4.5619a21.1978,21.1978,0,0,1,2.6039-1.7969,13.5881,13.5881,0,0,1,2.7765-1.0153,52.31,52.31,0,0,1,6.8721-1.4027A44.3657,44.3657,0,0,0,228.784,202.6816Z" transform="translate(-76.7423 -76.2423)" fill="#ec796d" opacity="0.13" style="mix-blend-mode:multiply"/><path d="M243.3422,185.2688c-.0528.2726-.1425.59-.4043.6836-.3757.1336-.6923-.3032-.8389-.6741a12.7982,12.7982,0,0,1,.4776-10.3366c1.0173-2.01,2.1758,2.25,2.1352,3.1056A52.7618,52.7618,0,0,1,243.3422,185.2688Z" transform="translate(-76.7423 -76.2423)" fill="#ec796d" opacity="0.13" style="mix-blend-mode:multiply"/><path d="M219.3477,216.6132q-1.3629,6.03-2.7259,12.0587,1.4873-8.8462,3.5372-17.5855a11.4059,11.4059,0,0,1,1.0386-3.0592,11.6894,11.6894,0,0,1,4.2824-3.78C221.3267,206.69,220.32,212.3119,219.3477,216.6132Z" transform="translate(-76.7423 -76.2423)" fill="#ec796d" opacity="0.13" style="mix-blend-mode:multiply"/><path d="M219.2905,200.4443a3.7671,3.7671,0,0,1,.0485,7.2657c1.0069-.4366,1.9182.9623,1.754,2.0475s-.8577,2.0669-.8528,3.1643c.9629-.4357,2.0725.5665,2.18,1.6179a5.4852,5.4852,0,0,1-.9234,2.9822c-2.4224,4.6269-4.04,9.9425-3.02,15.0647s5.2728,9.8359,10.491,10.0519a13.0542,13.0542,0,0,1-6.119-17.4021A26.1724,26.1724,0,0,1,227.25,219.28c2.3494-2.6192,4.8551-5.3432,8.1943-6.4512,1.6705-.5541,3.4558-.6662,5.154-1.1287a6.1278,6.1278,0,0,0,4.1435-2.99c.4418-.9653.5017-2.1192,1.175-2.94,1.0083-1.229,2.8734-1.1669,4.4539-.9962-1.6353-.0585-2.76-1.8176-2.821-3.4527a14.9,14.9,0,0,1,1.093-4.758,1.91,1.91,0,0,0,.1-1.0677,2.0515,2.0515,0,0,0-.69-.8906c-3.1521-2.8142-4.0038-5.2214-5.15-9.0819a9.7177,9.7177,0,0,1-8.5554-3.0894,15.6023,15.6023,0,0,1-3.7432-8.076c-.1039-.63-.1542-1.27-.3087-1.89a11.6987,11.6987,0,0,0-.615-1.695c-1.6946-4.0241-3.3366-8.1864-3.4669-12.5507a2.3909,2.3909,0,0,0-.19-1.0753,2.5451,2.5451,0,0,0-.5275-.601,17.15,17.15,0,0,1-3.7326-6.26c-1.3977-3.4882-2.6-7.231-2.0456-10.9476a12.7012,12.7012,0,0,0-.8055,5.4589,21.7171,21.7171,0,0,0,1.2628,5.3643,16.0638,16.0638,0,0,0,1.6709,3.7192c.4855.7364,1.0783,1.3991,1.5411,2.15,1.2584,2.0417,1.4527,4.5345,1.9435,6.8819a95.52,95.52,0,0,0,3.2152,10.0511c.9186,2.8038,2.446,7.1981,1.2318,10.1008-.8746,2.0907-3.7884,2.6948-5.826,1.7031-2.17-1.0561-2.9908-3.0464-4.0119-5.0434a12.1625,12.1625,0,0,1-1.177-7.5929,11.6983,11.6983,0,0,1-2.5237-5.0873q-.7-2.2946-1.4-4.59a14.1328,14.1328,0,0,1-.6906-3.0606,6.6629,6.6629,0,0,0-.1247-1.1853,5.1794,5.1794,0,0,0-.7722-1.47c-3.2481-5-3.8672-11.2049-4.3976-17.1434-.6189,3.9149.476,7.8754,1.56,11.6876a35.8228,35.8228,0,0,0,1.352,4.1146,27.3617,27.3617,0,0,1,1.0764,2.6177,25.6262,25.6262,0,0,1,.6179,3.7521c.8411,5.7238,4.1534,10.8248,5.2543,16.5043a10.4582,10.4582,0,0,1-.1346,4.2673,4.51,4.51,0,0,1-2.7218,3.4044c-2.3252.7761-4.7787-1.29-5.506-3.6306a4.5849,4.5849,0,0,1-2.5345,4.0337,13.4874,13.4874,0,0,1-4.8222,1.298c-.24.8346.9083,1.328,1.7721,1.4173a87.7123,87.7123,0,0,0,13.97.3256,18.4291,18.4291,0,0,1,5.085.1335,13.5043,13.5043,0,0,1,4.0046,1.78,4.7453,4.7453,0,0,1,2.4261,2.6345c.5313,2.2146-1.7675,3.7231-3.4777,4.452C225.1411,199.0829,221.0589,200.9168,219.2905,200.4443Z" transform="translate(-76.7423 -76.2423)" fill="#5f3a16" opacity="0.09" style="mix-blend-mode:multiply"/><path d="M242.5585,184.5834a17.5073,17.5073,0,0,0,.1415,3.0049,12.86,12.86,0,0,0,3.7574,7.34,2.462,2.462,0,0,1,.7272.95,2.24,2.24,0,0,1,.02.9449q-.3025,2.4956-.605,4.991a8.6114,8.6114,0,0,1-.514,2.4472,17.3584,17.3584,0,0,1-1.2689,1.872,5.9688,5.9688,0,0,0-.69,1.3343c-.1019.3343-.1354.6859-.2294,1.0224a4.3694,4.3694,0,0,1-3.3847,2.74c-1.4845.345-3.0346.2515-4.5451.4548-5.9574.8018-10.3109,5.9682-13.3851,11.1335a21.7449,21.7449,0,0,0-2.7281,6.1506,9.1431,9.1431,0,0,0,.7358,6.5586,11.3264,11.3264,0,0,0,3.1773,3.29,29.3393,29.3393,0,0,0,16.82,5.7642,13.0564,13.0564,0,0,0,7.3063-1.64c2.2077-1.4129,3.2286-3.8075,5.1278-5.5857.7443-.697,1.5678-1.3055,2.3135-2.0009,2.8024-2.6135,4.34-6.2738,5.7986-9.8175a41.0046,41.0046,0,0,0,1.6392-4.4619,13.3856,13.3856,0,0,0,.38-3.7722,65.7045,65.7045,0,0,0-.9554-9.1381,96.7281,96.7281,0,0,1-.781-11.5664,6.7987,6.7987,0,0,0-.6183-3.5138,7.0074,7.0074,0,0,0-1.43-1.5221,30.2712,30.2712,0,0,1-6.6637-8.8826,48.6076,48.6076,0,0,1-2.2475-5.1331c-.4774-1.2728-.6893-3.7567-2.5083-3.6569a3.3228,3.3228,0,0,0-1.9828,1.0005c-2.4685,2.2736-3.2412,5.8495-3.39,9.2022Q242.5658,184.3381,242.5585,184.5834Z" transform="translate(-76.7423 -76.2423)" fill="#f58d76"/><path d="M243.4236,180.6a17.3691,17.3691,0,0,0,.1277,7.4449c.4887,2.2922,1.3858,4.6509,3.2643,6.0524a6.13,6.13,0,0,0,5.5748.8626c-.54.7459-1.5765.8608-2.4521,1.1448s-1.7975,1.1342-1.4362,1.9807c.3325.779,1.4117.802,2.2522.6975a6.06,6.06,0,0,0-2.5161,7.082,2.6769,2.6769,0,0,0-2.6426,2.2767,8.0593,8.0593,0,0,0,.4514,3.7669,7.3138,7.3138,0,0,1,.3578,3.7692,5.9889,5.9889,0,0,0-.9848-2.6265,2.0537,2.0537,0,0,0-2.5085-.6734,9.2337,9.2337,0,0,1,1.0776,6.2372c-.8994-1.2693-.4561-3.1643-1.4026-4.3987-.9119-1.1892-2.6747-1.232-4.1566-1.0088a21.8635,21.8635,0,0,0-17.0472,14.2045,10.9344,10.9344,0,0,0-.6189,5.6894c.7656,3.7369,4.2169,6.2158,7.4011,8.3159-3.65-1.4987-7.29-4.0355-8.26-7.86-1.1-4.3389,1.5565-8.6518,4.0886-12.3428a37.2248,37.2248,0,0,1,5.8175-7.1346,12.5286,12.5286,0,0,1,8.3392-3.4306c1.5753.0379,3.3592.4165,4.5679-.5945a4.8692,4.8692,0,0,0,1.0731-1.5109c2.0171-3.787,4.0923-7.8257,3.8288-12.1082a2.2649,2.2649,0,0,0-.2856-1.1169,3.12,3.12,0,0,0-.7887-.7112,9.9523,9.9523,0,0,1-3.2569-5.6881c-1.2247-4.9027-.56-10.5942,2.991-14.19a2.7833,2.7833,0,0,1,1.8685-.9954A11.3314,11.3314,0,0,0,243.4236,180.6Z" transform="translate(-76.7423 -76.2423)" fill="#5f3a16" opacity="0.09" style="mix-blend-mode:multiply"/><path d="M252.6224,182.7364a3.9247,3.9247,0,0,1-3.6687-1.4789,7.38,7.38,0,0,1-1.4579-3.8319,4.2758,4.2758,0,0,1,.5734-3.172.8325.8325,0,0,1,.4449-.333c1.1374-.256,1.66,3.0155,1.8992,3.6713A49.8669,49.8669,0,0,0,252.6224,182.7364Z" transform="translate(-76.7423 -76.2423)" fill="#fff" opacity="0.24" style="mix-blend-mode:overlay"/><path d="M251.831,180.8946a7.09,7.09,0,0,1,.7936,1.5117.3322.3322,0,0,1,.0234.2533c-.05.1068-.19.13-.3079.1314a5.5008,5.5008,0,0,1-3.0344-1.2828,5.0832,5.0832,0,0,0,2.58-.4871" transform="translate(-76.7423 -76.2423)" fill="#fff" opacity="0.24" style="mix-blend-mode:overlay"/><path d="M245.2842,178.6094a14.7711,14.7711,0,0,0,.0676,5.7631c.3891,1.436.3408,3.0795.8429,4.484a5.5039,5.5039,0,0,0,3.1467,2.9542,10.3714,10.3714,0,0,0,7.0775.381c.6654-.2034,1.3932-.73,2.0531-.8521a.4141.4141,0,0,1,.5015.3187c.0163.28-.3223.421-.5916.4975a7.0185,7.0185,0,0,0-1.9193.8744c-.2062.1347-.4315.3531-.352.5864.0938.2758,3.7615-.9355,4.1753-1.0569a.3343.3343,0,0,1,.177-.0185.2294.2294,0,0,1,.1025.3278.6364.6364,0,0,1-.3059.2393,10.7677,10.7677,0,0,1-3.243.9737c-.2964.04-.6763.1487-.6887.4475a.4982.4982,0,0,0,.3016.4185,2.2345,2.2345,0,0,0,1.7624-.11l2.2227-.7788a.4739.4739,0,0,1-.0785.6163,1.38,1.38,0,0,1-.6089.2934,12.7254,12.7254,0,0,1-3.5806.6776,8.4325,8.4325,0,0,0-1.2458.014c-2.9064.4173-3.3521,4.009-2.4943,6.3071a12.3082,12.3082,0,0,1,1.0436,2.7541c.24,2.0674-1.61,3.6938-2.6528,5.4954-1.7786,3.0737-1.2446,7.03-2.8,10.2227-1.6889,3.468-5.4647,5.3479-9.0674,6.7261s-7.4752,2.6193-10.0485,5.4931a6.2647,6.2647,0,0,0-1.2559,6.2186,6.3423,6.3423,0,0,0,3.8686,3.838,7.06,7.06,0,0,1-2.9433-.8663,35.2572,35.2572,0,0,1-5.4156-3.2248c-1.9019-1.3767-3.3275-2.9213-3.54-5.2926a17.5359,17.5359,0,0,1,1.0826-7.7829,26.0087,26.0087,0,0,1,4.6523-8.3557,18.806,18.806,0,0,1,12.0994-6.249c1.5929-.1457,3.2991-.0954,4.6509-.9507a6.936,6.936,0,0,0,2.4-3.3025,28.371,28.371,0,0,0,2.2193-9.3622,2.7891,2.7891,0,0,0-.1-1.16,3.15,3.15,0,0,0-.7772-1.027,13.227,13.227,0,0,1-3.47-5.645c-1.1531-4.2391.6637-8.6593,2.4569-12.67.3574-.7989.9741-2.077,1.8956-2.3017a19.554,19.554,0,0,1-1.0547,1.8945A9.6837,9.6837,0,0,0,245.2842,178.6094Z" transform="translate(-76.7423 -76.2423)" fill="#ec796d" opacity="0.13" style="mix-blend-mode:multiply"/><path d="M202.4761,226.2949a14.5311,14.5311,0,0,0,1.4591,5.784,37.56,37.56,0,0,0,3.247,4.4816c3.989,5.4335,5.5016,11.6408,7.8721,17.7822a95.5384,95.5384,0,0,1,5.1514,20.2759h6.5378a42.069,42.069,0,0,1-2.9479-5.6945,49.0457,49.0457,0,0,1-2.8233-12.0445c-.4356-3.2268-1.3153-7.55,2.1322-9.4216a37.9867,37.9867,0,0,1,4.3117-1.5676,11.3246,11.3246,0,0,0,3.0386-1.7912c.5854-.4824,1.17-1.175.9911-1.9119-4.7363-1.2264-8.8417-3.21-11.1948-7.7726a4.7906,4.7906,0,0,1-.6383-2.1226,3.6476,3.6476,0,0,0,.4122,3.0906,15.8831,15.8831,0,0,0,2.0326,2.4975,6.6,6.6,0,0,1,1.6393,2.74,1.6562,1.6562,0,0,1-.046,1.1007c-.7049,1.4568-5.6915.0869-6.923-.2892a5.4734,5.4734,0,0,1-2.4017-1.299,2.6178,2.6178,0,0,1-.749-1.9585,1.5639,1.5639,0,0,1-1.5288.7145,3.9968,3.9968,0,0,1-2.023-1.254c-2.0006-1.8943-4.135-4.06-4.3159-6.8094a9.8322,9.8322,0,0,1,.6718-3.7212,42.8737,42.8737,0,0,1,10.5159-16.8561,13.72,13.72,0,0,1-2.3338-10.0513,12.5728,12.5728,0,0,1-4.3659-7.3166,19.4917,19.4917,0,0,1,.3028-8.6181,10.0707,10.0707,0,0,1-7.3561,3.9577c-.1474.0087,1.027,3.8548,1.0077,4.2181a5.8153,5.8153,0,0,1-.2075,1.2067,4.9892,4.9892,0,0,0-.2308,3.368c.2731.77.7292,1.4651,1.0026,2.2352a8.7191,8.7191,0,0,1,.3831,2.9172C205.1093,210.2741,201.9058,218.206,202.4761,226.2949Z" transform="translate(-76.7423 -76.2423)" fill="#ec796d" opacity="0.13" style="mix-blend-mode:multiply"/><path d="M206.9452,160.5487a2.4549,2.4549,0,0,1-.1132.9389,3.8981,3.8981,0,0,1-.8034,1.0567c-1.413,1.6333-1.4063,4.0194-1.3241,6.1774q.1148,3.0129.2294,6.0253a.98.98,0,0,0,.2811.7949.9676.9676,0,0,0,.5115.13l1.2363.0775c.0659.4208-.5807.467-.976.6256-.6095.2441-.7419,1.0367-.7507,1.6933A20.2964,20.2964,0,0,0,205.5,181.61c.2027,1.2395.6609,2.63,1.8253,3.1011a4.1061,4.1061,0,0,0,2.9412-.3468,4.1792,4.1792,0,0,0,4.417,3.3875,19.84,19.84,0,0,0,2.2982-.579,2.9424,2.9424,0,0,1,2.294.2328c-4.49,1.7891-9.5761.9174-14.3283,1.7975-.8.1483-1.784.5939-1.7136,1.4047-.8289-2.1628.14-4.3445.3338-6.5a37.42,37.42,0,0,0-.0585-7.3049,68.9937,68.9937,0,0,1-.8377-7.9572q.0307-3.9874.2966-7.9686a6.5987,6.5987,0,0,1,.9-3.4535c.7064-.9907,2.2081-1.4781,2.6818-.1492A10.5557,10.5557,0,0,1,206.9452,160.5487Z" transform="translate(-76.7423 -76.2423)" fill="#ec796d" opacity="0.13" style="mix-blend-mode:multiply"/><path d="M222.2207,141.1352c.1667,3.7667.9132,7.8931,3.8372,10.2734a13.0823,13.0823,0,0,0,4.5528,2.1567,5.5227,5.5227,0,0,0-1.792,1.1776,1.8814,1.8814,0,0,0-.4167,1.9926,1.1572,1.1572,0,0,0,1.7882.3824c-.7111,2.3482.2813,4.8384,1.2559,7.09a16.7437,16.7437,0,0,0,2.0464,3.7939,5.64,5.64,0,0,0,3.5729,2.2362,15.416,15.416,0,0,0-3.19,1.4141c-.4555.2673-.9588.6955-.8446,1.2113.1131.51.7431.69,1.2645.7181a7.394,7.394,0,0,0,3.0028-.4674,1.6217,1.6217,0,0,0-.8947,1.1963c-.8314,2.9942.97,6.1524,3.3348,8.1685,1.0952.9334,2.37,1.7752,2.9526,3.0914a8.79,8.79,0,0,1-5.1855,1.4021c-2.281-.0337-4.7258-.8078-5.9984-2.7013-1.4027-2.0875-1.0069-4.8384-1.2931-7.3372-.2978-2.5992-1.3767-5.0324-2.198-7.5163a67.2952,67.2952,0,0,1-1.9769-7.954,20.2685,20.2685,0,0,0-1.0769-4.003,47.027,47.027,0,0,0-2.7888-4.7034,23.0035,23.0035,0,0,1-2.2492-5.9267c-.6243-2.5282-.9626-5.2888.1036-7.6648.3-.6686,1.05-1.8533,1.7274-1.0922C222.3153,138.7028,222.1862,140.3544,222.2207,141.1352Z" transform="translate(-76.7423 -76.2423)" fill="#ec796d" opacity="0.13" style="mix-blend-mode:multiply"/><path d="M213.5363,136.5629c-2.6459,3.9585-2.2917,9.279-.607,13.7324a6.2537,6.2537,0,0,0,1.5729,2.5935,2.5253,2.5253,0,0,0,2.8342.4467c-.0683.6577-.8205.966-1.4291,1.2242s-1.2791.8549-1.0078,1.4579a6.4852,6.4852,0,0,0,2.2911-.3745,3.2828,3.2828,0,0,0-1.4934,2.0957,5.8063,5.8063,0,0,0,.19,2.5744,26.6591,26.6591,0,0,0,4.1368,9.0594c.9521,1.3429,2.4892,2.736,4.0336,2.1667q-1.4178.5377-2.8359,1.0749c-.5247.199-1.1533.56-1.08,1.1158.066.5007.6783.7268,1.1827.7043a4.1485,4.1485,0,0,1,1.5024-.023c-1.23.5858-1.1981,2.3261-.9424,3.6647a13.7959,13.7959,0,0,0,1.4717,4.5231,5.2645,5.2645,0,0,0,3.7509,2.6847c1.3137.1462,2.9577-.2435,3.7193.8369q-2.0631.828-4.126,1.656a6.7421,6.7421,0,0,1-4.139.7049,4.6134,4.6134,0,0,1-2.9051-2.9343,16.1844,16.1844,0,0,1-.745-4.2094c-.846-8.5063-3.5732-16.7044-6.5216-24.728a61.6813,61.6813,0,0,1-2.3329-7.1779,28.804,28.804,0,0,1-.6749-8.6792,8.7682,8.7682,0,0,1,1.1161-4.1243,3.8994,3.8994,0,0,1,2.5949-1.8306C214.4815,134.6623,214.0852,135.7417,213.5363,136.5629Z" transform="translate(-76.7423 -76.2423)" fill="#ec796d" opacity="0.13" style="mix-blend-mode:multiply"/><path d="M207.6038,147.2442a18.6527,18.6527,0,0,0-.7158,5.6314,4.5847,4.5847,0,0,0,.4124,2.499,1.582,1.582,0,0,0,2.1812.6288,1.9167,1.9167,0,0,0-1.7241,1.2667c-.1708.7409.7075,1.5836,1.3433,1.1665a4.57,4.57,0,0,0-.5269,3.2682,55.83,55.83,0,0,0,2.1815,10.8.8208.8208,0,0,0,1.0448.7484l1.95-.1512a1.3931,1.3931,0,0,0-.8224,1.5056l1.6451.2357c-1.2516,1.4094-1.4638,3.4366-1.5465,5.32a9.2438,9.2438,0,0,0,.2076,2.9548c1.0245,3.5784,6.4748,2.8721,6.7776-.7564a9.6431,9.6431,0,0,0,2.9559,3.3514,6.4894,6.4894,0,0,0,4.2672,1.145c-3.1706.3586-6.181,1.5872-9.3288,2.109a21.2961,21.2961,0,0,1-9.6816-.6456,3.3917,3.3917,0,0,0,1.1819-2.4961c.0616-.9583-.237-1.8777-.1964-2.8246.0441-1.03.0635-2.0591.0591-3.0985a52.3638,52.3638,0,0,0-.3244-7.17c-.4181-2.9364-1.3779-5.7654-2.0191-8.6612-.2934-1.3252-.5194-2.6641-.702-4.0088-.1746-1.2846.0705-2.4458-.0216-3.6933a3.0259,3.0259,0,0,0-.14-.6332,29.8707,29.8707,0,0,1-1.3209-7.2006,10.7583,10.7583,0,0,1,.2419-3.3216,5.0739,5.0739,0,0,1,1.7458-2.78,2.3465,2.3465,0,0,1,1.681-.5413,5.1813,5.1813,0,0,1,.2062,2.8205C208.3659,145.5908,207.899,146.3844,207.6038,147.2442Z" transform="translate(-76.7423 -76.2423)" fill="#ec796d" opacity="0.13" style="mix-blend-mode:multiply"/><path d="M226.803,240.7533c9.8871,7.7634,17.8544,16.8863,21.3133,29.2619a23.46,23.46,0,0,1,.8583,4.6034h10.41c.0615-.0755.1336-.1382.1945-.2145.8242-1.0338,2-2.6125,1.8444-4.0326-.1311-1.1994-1.3877-2.1391-2.1016-3.072a60.5086,60.5086,0,0,1-8.15-14.3711,26.4582,26.4582,0,0,1-2.2041-9.2152c-.0519-2.7971,2.0514-4.8092,3.9011-6.5894,1.0124-.9745,2.1825-1.7772,3.1661-2.7809,2.0326-2.0738,3.1379-4.8585,4.1934-7.5637-2.1211,4.6754-6.6,7.7679-10.9088,10.5595a15.4115,15.4115,0,0,1-3.1522,1.7056c-5.9955,2.13-12.3066-1.9059-14.6032-7.44a15.6952,15.6952,0,0,1-.6159-1.7825c-1.3128-4.69-.5137-10.0914,2.865-13.6765,2.9075-3.0847,7.888-4.084,9.8243-7.9467a6.3351,6.3351,0,0,1-4.1655,2.5067c-1.9481.3938-3.9866.3164-5.8858.9024-3.3368,1.0295-5.7188,3.9133-7.7885,6.7258-2.5664,3.4873-5.03,7.2312-5.7995,11.4922C219.08,234.9128,223.2721,237.9807,226.803,240.7533Z" transform="translate(-76.7423 -76.2423)" fill="#ec796d" opacity="0.13" style="mix-blend-mode:multiply"/><path d="M211.606,241.9626c5.0231.7577,9.4418,4.5516,14.5134,4.2613,3.9853-.2279,7.5785-2.9881,11.567-2.8247a28.189,28.189,0,0,0-11.7535-.6633C221.1322,243.3308,216.3423,242.677,211.606,241.9626Z" transform="translate(-76.7423 -76.2423)" fill="#ec796d" opacity="0.13" style="mix-blend-mode:multiply"/></g></g></g></svg>