<svg id="Layer_1" data-name="Layer 1" xmlns="http://www.w3.org/2000/svg" xmlns:xlink="http://www.w3.org/1999/xlink" viewBox="0 0 256.5153 256.5153"><defs><radialGradient id="radial-gradient" cx="128.2577" cy="128.2577" r="128.2577" gradientUnits="userSpaceOnUse"><stop offset="0" stop-color="#fff"/><stop offset="1" stop-color="#b4b4b5"/></radialGradient></defs><title>Friday Item 11</title><circle cx="128.2577" cy="128.2577" r="128.2577" fill="url(#radial-gradient)"/><path d="M243.499,234.9531c1.5069,0,2.336.6026,2.336,2.1856,0,5.125-3.24,10.5508-8.14,16.0517l-.6025-1.8086c2.7881-3.6923,4.6728-6.9336,4.6728-9.0429a.9961.9961,0,0,0-1.1308-.9805c-2.4112,0-21.0264,5.8789-43.8614,5.8789-12.51,0-25.0957-1.583-27.6582-13.49H168.89c-1.3574,3.6933-3.3916,5.8779-5.9541,6.7832a11.205,11.205,0,0,1,5.3506,9.7968c0,5.501-3.0146,8.667-5.8779,8.667-3.6172,0-6.6318-2.11-8.5918-6.4062l-.2256.0752c-.5283,6.18-6.4062,11.1543-19.9717,16.8818l-10.3242-.7539-.2265-.6787c10.249-3.6924,16.58-6.9326,24.041-12.0576,6.4052-4.3711,5.4258-10.7012,6.6318-12.9629l2.4873-4.8232c5.124-1.13,8.8174-3.0137,10.9278-5.1241.9042-1.0556,1.13-2.5625,1.13-4.4463-15.2988-.98-24.1914-4.5224-25.6982-12.0586h-.2266c-3.3164,3.09-5.3506,3.3917-9.1943,3.3917-5.2754,0-8.29-2.11-8.29-5.0494a15.4161,15.4161,0,0,1,2.11-6.5566c1.6582-3.09,6.2549-7.7622,14.47-12.209l-.0752-4.2954a18.4627,18.4627,0,0,1,2.7129-3.542l.4522.15.15,6.18,4.5976-2.6377.377.3012-2.2608,3.919a11.8829,11.8829,0,0,1-2.7138,2.8638l.1513,9.0434c0,8.9678,7.1592,12.51,23.6641,13.7158-.1514-11.6811-.377-22.5332-.6035-33.16a24.6626,24.6626,0,0,1,3.0146-3.8433l.3018.1509c.2256,3.6172.3769,8.1391.4521,11.832,0,8.7417.0752,16.58.0752,25.2466,5.2.6025,18.5391,1.13,26.3018,1.13a254.2248,254.2248,0,0,0,36.8525-2.7129c4.2959-.9043,7.461-2.4111,10.0987-5.2754a.7793.7793,0,0,1,1.3564,0c2.1856,2.7881,4.5977,4.2959,6.708,4.2959a5.0339,5.0339,0,0,0,3.1651-1.6582c3.165-3.3911,3.5419-6.33,3.5419-15.6753,0-12.8115-.3769-25.6987-.2265-38.8872.7539-1.2813,1.8847-2.6377,2.789-3.9189l.377.226c.6025,14.2437.4521,28.4116.4521,42.58,0,11.9829.9795,14.5444,8.7413,16.2026l.0761-.3007c-2.4121-1.96-3.6181-4.8233-3.6181-8.7422a14.8279,14.8279,0,0,1,2.789-7.9131,10.2554,10.2554,0,0,1,8.44-4.6729c4.2959,0,7.4609,2.5625,10.8525,7.8379l-.6787.6031a12.3127,12.3127,0,0,0-8.1387-2.94c-4.8994,0-9.7978,2.7886-9.7978,5.0493,0,2.1856,1.206,4.2959,3.09,6.4815a8.9567,8.9567,0,0,0,6.6318,2.8632,10.6794,10.6794,0,0,0,3.6182-.7529,46.599,46.599,0,0,0,9.1191-4.9741l.376.3013-1.959,5.5009c-6.707,4.6729-13.7158,7.2354-21.4033,7.2354-5.9531,0-9.5713-2.7129-11.1533-7.5361h-.3018c-1.3564,5.2-5.2,9.1191-8.667,9.1191-2.2607,0-4.8232-.7539-8.44-3.6934h-.3017c-2.4864,3.1651-7.2344,4.7481-13.1885,5.6524a244.2773,244.2773,0,0,1-32.4815,2.3359c-11.1533,0-19.2177-.4521-24.7187-.98,1.2051,8.3653,13.49,11.7569,28.3359,11.7569C220.5879,240.6807,240.6348,234.9531,243.499,234.9531ZM141.5322,201.04c-8.29,4.5971-12.3593,8.14-12.3593,10.1743,0,1.5825,2.4111,2.3364,6.1044,2.4868a18.8891,18.8891,0,0,0,6.6319-1.13Zm16.43-23.8145c-3.09,2.7886-3.8437,3.3911-7.9131,3.3911-3.5429,0-6.2558-1.3564-6.2558-3.9189,0-1.959,1.6582-6.2549,3.8437-8.6665a34.5073,34.5073,0,0,1,10.0235-7.31l-.0752-3.6929a23.7851,23.7851,0,0,1,2.6377-2.8637l.4521.0752-.0752,5.0493,2.7129-1.2813.2256.5279-3.1651,4.3711v9.1186c0,2.94,1.7334,4.8232,4.6729,4.8232a7.3325,7.3325,0,0,0,3.6924-.9794,3.7955,3.7955,0,0,0,2.11-3.316l-.5273-16.2788a20.3374,20.3374,0,0,1,2.6377-3.24l.3769.3013.377,14.3188c0,3.542.8281,6.1045,3.3906,7.2349a8.99,8.99,0,0,0,4.5225,1.5073c1.2051,0,2.0342-.603,2.0342-1.7334,0-2.0347-2.9385-15.2988-2.9385-19.2173a20.5547,20.5547,0,0,1,2.4111-4.2959l.4522.3013c0,5.7275,2.8642,16.5049,2.8642,21.5542,0,4.7475-2.4873,9.0434-5.6523,9.0434a9.7636,9.7636,0,0,1-7.7627-4.22h-.2266c-1.3564,2.6377-5.501,4.7476-8.666,4.7476-3.09,0-5.2-1.8086-5.9541-5.3506Zm-.3769-12.209c-6.708,3.6177-10.4756,6.3306-10.4756,7.7627,0,1.5068,2.0351,2.4116,4.5215,2.4116a14.5471,14.5471,0,0,0,6.0293-1.0551Zm-8.7422,42.354.9043-3.3159a174.2791,174.2791,0,0,1,16.58-6.9331l.15.2261-1.9589,3.3159c-6.0293,2.4868-11.6065,4.6723-15.5254,6.8579Zm6.5566,38.586c0,2.7128,3.09,6.9335,7.31,6.9335a3.8066,3.8066,0,0,0,2.9394-1.1308c-1.2812-3.9942-4.0693-7.2344-9.7968-8.2149A4.8733,4.8733,0,0,0,155.3994,245.9561Zm15.9014-96.314a3.0168,3.0168,0,0,1-2.7881,2.0347c-1.8086,0-2.7139-1.5074-2.7139-4.1451a9.7263,9.7263,0,0,1,.5283-3.24l1.3565-.9043.0752.15a8.5866,8.5866,0,0,0-.5274,2.8638c0,.98.2256,1.809,1.2813,1.809.8291,0,1.5068-.7539,1.7334-1.809l.5273-3.3911,1.2061-.6783.0752.0752a6.9133,6.9133,0,0,0-.0752,1.2061c0,1.5068.3008,2.7881,1.3564,3.3911a2.9048,2.9048,0,0,0,1.3565.4521c.4521,0,.7529-.226.7529-.6782a26.1831,26.1831,0,0,0-.6025-3.9189c.5273-.8291.98-1.5073,1.5078-2.1856l.2256.0757a50.7046,50.7046,0,0,1,.3769,6.5562c0,1.4321-.9043,3.5424-2.7129,3.5424a3.7666,3.7666,0,0,1-2.789-1.206Zm49.8906,48.6846,1.5068-4.7481a10.3273,10.3273,0,0,1-2.7128-2.7129H219.76c-2.1856,3.9942-4.6729,6.4815-7.6875,6.4815-3.9942,0-7.1592-2.2613-8.3653-10.5508h-.2265c-1.8086,4.2954-5.9532,7.0088-10.1739,8.8174-7.1591,2.9389-12.5849,4.9736-12.5849,6.9331,0,1.1308,1.582,2.1855,5.0488,3.1655,5.8027,1.2813,11.0029,1.6577,19.293,1.6577,20.2724,0,32.2558-1.5825,50.72-4.3711l.15.3018-4.3711,5.7275c-10.4,1.4317-25.2461,4.6724-48.5342,4.6724-17.9365,0-26.6025-1.4317-26.6025-7.7622,0-1.5073,1.13-3.542,2.0342-5.2,3.2412-5.4263,9.27-8.5913,18.6152-12.2842,5.8779-2.5625,6.707-5.5015,6.707-12.9624,0-8.7422-.5273-23.6641-.5273-36.0991a37.5848,37.5848,0,0,1,2.9394-4.22l.376.226c.6787,15.2237.6787,30.2207.6787,44.69,0,7.2348,2.0352,11.0029,6.4063,11.0029a5.1973,5.1973,0,0,0,2.7881-.7534c1.1308-.6782,2.5625-2.4116,4.2959-5.125.2255-.3013.3769-.3013.6777,0a17.6051,17.6051,0,0,0,3.6182,3.1655c2.1855-4.6728,4.8984-9.1191,8.8925-12.4351,2.6377-2.1855,5.6524-3.6171,8.5157-3.6171a9.1243,9.1243,0,0,1,9.1191,9.1938,14.4577,14.4577,0,0,1-2.2607,7.6875c-3.24,4.7476-8.7422,7.1592-16.2032,7.1592a19.054,19.054,0,0,1-8.14-1.5073,16.4087,16.4087,0,0,1-3.4668,3.6928ZM193.834,255.6025a54.4735,54.4735,0,0,1,7.16,5.9541,26.15,26.15,0,0,1-3.7685,5.878,80.6539,80.6539,0,0,0-7.3106-5.7276Zm1.8848-118.5459a5.4619,5.4619,0,0,0-.3018,1.8838,21.9774,21.9774,0,0,0,2.4121,9.1944L195.04,150.019c.377,8.7422.9043,17.2579.9043,22.76a12.2352,12.2352,0,0,1-.6025,4.4463,23.9287,23.9287,0,0,1-2.4873,4.8232l-.6025-.3769a19.87,19.87,0,0,0,.6777-5.5767c0-10.7016-1.3565-21.2524-1.3565-31.2007,0-2.0346.0752-3.4663.7539-4.6723a19.138,19.138,0,0,1,2.7881-3.542Zm9.3447,117.4913a39.9212,39.9212,0,0,1,7.0088,6.2548,24.3921,24.3921,0,0,1-3.6924,5.6524,82.5709,82.5709,0,0,0-7.2354-5.8789Zm4.4463-84.1807,1.96-5.6524c12.0576-5.5014,27.4317-11.38,46.876-17.71l.2256.3013-3.09,5.0493c-6.4062,2.11-14.47,5.125-22.6845,8.2148-10.4756,4.145-18.7656,7.6118-22.9854,10.0987Zm6.2548-23.9658a3.0163,3.0163,0,0,1-2.788,2.0351c-1.8086,0-2.7129-1.5073-2.7129-4.145a9.7274,9.7274,0,0,1,.5273-3.2407l1.3565-.9043.0752.15a8.5861,8.5861,0,0,0-.5274,2.8637c0,.98.2266,1.8091,1.2813,1.8091.8291,0,1.5078-.7539,1.7334-1.8091l.5273-3.3911,1.2061-.6782.0752.0752a6.9133,6.9133,0,0,0-.0752,1.2061c0,1.5073.3017,2.788,1.3564,3.3911a2.9059,2.9059,0,0,0,1.3565.4521c.4521,0,.7539-.2261.7539-.6782a26.3094,26.3094,0,0,0-.6026-3.9189c.5274-.8287.98-1.5074,1.5069-2.1856l.2255.0757a50.6979,50.6979,0,0,1,.377,6.5566c0,1.4317-.9043,3.542-2.7129,3.542a3.764,3.764,0,0,1-2.7881-1.206ZM233.4,190.7905a23.4153,23.4153,0,0,0,12.7363-3.4668c1.4317-.98,2.11-1.9594,2.11-3.0146a6.2879,6.2879,0,0,0-2.4873-4.3711,7.3935,7.3935,0,0,0-4.5977-1.7334,11.9508,11.9508,0,0,0-6.5566,2.1855,26.5414,26.5414,0,0,0-7.8369,9.1192A16.76,16.76,0,0,0,233.4,190.7905Zm-4.4463,77.1714a142.6575,142.6575,0,0,0,24.8691-11.3047c7.3106-4.0693,10.9278-7.4609,10.9278-8.7422,0-1.0546-1.3565-1.2812-5.4258-1.2812-5.3506,0-8.29-2.6377-8.29-7.084a11.6643,11.6643,0,0,1,3.24-8.29,7.9351,7.9351,0,0,1,5.8789-3.0137,6.1249,6.1249,0,0,1,4.6719,2.2607c2.2607,2.7881,3.542,6.6319,3.542,13.3389,0,10.0986-7.0088,16.8057-28.0352,25.6992l-11.3789-.8291ZM265.8066,241.66c-.9043-4.2959-2.789-8.2149-6.6328-8.2149-2.7129,0-5.3506,2.1856-5.3506,4.1455,0,3.4668,11.6065,1.7334,11.6065,4.1446Zm-.7539-54.11.9043-3.542c4.5215-2.2612,11.6817-5.2,20.876-8.8174l.0752.15-1.96,3.542c-9.42,3.8438-15.8261,6.6323-19.7451,8.8179Z" transform="translate(-76.7423 -76.2423)" fill="#3a3325"/></svg>