<svg id="Layer_1" data-name="Layer 1" xmlns="http://www.w3.org/2000/svg" xmlns:xlink="http://www.w3.org/1999/xlink" viewBox="0 0 256.5153 256.5153"><defs><radialGradient id="radial-gradient" cx="128.2577" cy="128.2577" r="128.2577" gradientUnits="userSpaceOnUse"><stop offset="0" stop-color="#fff"/><stop offset="1" stop-color="#b4b4b5"/></radialGradient></defs><title>Friday Item 9</title><circle cx="128.2577" cy="128.2577" r="128.2577" fill="url(#radial-gradient)"/><path d="M167.4214,228.4374c.7691-3.3158-1.9887-6.3244-2.9037-9.603-.985-3.5282.2247-7.2838,1.7479-10.6155s3.4013-6.6058,3.8383-10.2426c.6389-5.3205-1.8858-10.4447-3.0079-15.6846-.6808-3.18-.7449-6.8087,1.2949-9.342,1.525-1.8943,3.92-2.8029,6.0824-3.915a28.9611,28.9611,0,0,0,7.4873-5.5374,52.5071,52.5071,0,0,1,5.0041-5.0956,22.0709,22.0709,0,0,1,9.6729-4.1221c25.9466-4.6552,31.5865,14.8141,32.3667,17.0861,2.3442,6.8269,3.63,14.1457,2.6171,21.2928a65.5837,65.5837,0,0,1-2.8917,11.0871c-3.3056,10.1177-7.0414,20.5539-14.6116,28.0365-3.3313,3.293-11.858,15.0092-14.0014,21.1692a18.4528,18.4528,0,0,1-3.0112,5.2445c-3.2082,4.0848-8.905,5.2465-14.0991,5.241-5.6282-.0065-21.2-4.6445-17.093-29.5524C166.2022,232.1314,167.02,230.1678,167.4214,228.4374Z" transform="translate(-76.7423 -76.2423)" fill="#f58d76"/><path d="M180.1033,220.96c-1.0781,2.3922-2.9741,4.3957-3.3574,7.0875a4.6656,4.6656,0,0,0,.5442,3.0111c1.45,2.4756,4.3459,1.9117,5.9288.3114a9.7909,9.7909,0,0,0,2.1838-4.3319,4.2023,4.2023,0,0,1,.7243-1.6559,4.3044,4.3044,0,0,1,2.5617-1.0711,23.7012,23.7012,0,0,0,13.89-8.0119c3.9619-4.883,5.4745-11.39,5.411-17.6777a70.63,70.63,0,0,0-2.3574-15.6363,2.1543,2.1543,0,0,1,2.6739-2.59,11.6619,11.6619,0,0,1,6.3976,5.1c2.0444,3.3657,2.5588,7.4567,2.4111,11.3916-.4953,13.1737-7.7913,25.1718-16.4218,35.137,8.4138-4.71,14.095-13.3263,17.1648-22.4673a58.0512,58.0512,0,0,0,2.9625-20.8251c-.2878-6.9533-2.3048-14.5553-8.1321-18.36-3.99-2.6046-9.0372-2.9273-13.7946-2.6617-4.0663.2271-8.26.879-11.6689,3.107a7.2745,7.2745,0,0,0-2.3531,2.2815,7.83,7.83,0,0,0-.7776,2.0137,45.2407,45.2407,0,0,0-1.3935,8.784,16.2569,16.2569,0,0,0,.4334,5.8093,18.6156,18.6156,0,0,0,2.35,4.4851c3.6249,5.6082,7.8345,11.6649,14.6211,12.8055a3.2425,3.2425,0,0,1,2.1455,1.3047c1.4422,2.0827-.7643,3.88-2.7437,4.3475-3.5089.8284-7.25-.2677-10.3042-2.1846a28.1385,28.1385,0,0,1-4.3694-3.4909c-.9715-.9231-2.0893-2.7531-3.456-2.9856a.1818.1818,0,0,0-.1967.1148c-.8924,2.3442.03,6.028.1116,8.5165A18.57,18.57,0,0,1,180.1033,220.96Z" transform="translate(-76.7423 -76.2423)" fill="#f37960"/><path d="M242.2491,228.259l-7.4784-7.4784a28.8892,28.8892,0,0,0,.0676-40.0942l7.452-7.452a39.498,39.498,0,0,1-.0412,55.0246Z" transform="translate(-76.7423 -76.2423)" fill="#00959f"/><path d="M256.7989,242.8088l-7.46-7.46a49.55,49.55,0,0,0,.0811-69.2138l7.451-7.451a60.1063,60.1063,0,0,1-.0717,84.1252Z" transform="translate(-76.7423 -76.2423)" fill="#00959f"/></svg>