<svg id="Layer_1" data-name="Layer 1" xmlns="http://www.w3.org/2000/svg" xmlns:xlink="http://www.w3.org/1999/xlink" viewBox="0 0 256.5153 256.5153"><defs><radialGradient id="radial-gradient" cx="128.2577" cy="128.2577" r="128.2577" gradientUnits="userSpaceOnUse"><stop offset="0" stop-color="#fff"/><stop offset="1" stop-color="#b4b4b5"/></radialGradient></defs><title>Friday Item 4</title><circle cx="128.2577" cy="128.2577" r="128.2577" fill="url(#radial-gradient)"/><path d="M234.8746,231.7056a45.0275,45.0275,0,0,0-12.8007-10.1787s-1.826-.0081-2.46-10.6763a57.2829,57.2829,0,0,1-33.4375.2454c-.6463,10.4245-2.4446,10.4309-2.4446,10.4309-11.0986,6.2553-14.437,12.4668-14.437,12.4668.0239-.0235.0481-.045.072-.0684A39.6459,39.6459,0,0,0,157.634,261.85c0,23.0508,20.4477,41.7373,45.6713,41.7373S248.9762,284.9,248.9762,261.85A39.9892,39.9892,0,0,0,234.8746,231.7056Zm-31.5693-11.5928a49.0755,49.0755,0,0,0-19.7571,4.0977,46.1109,46.1109,0,0,1,18.9525-4.13v.032s.1449-.0107.4023-.02c.2575.01.4023.02.4023.02v-.032a39.2152,39.2152,0,0,1,6.0488.4075A50.3261,50.3261,0,0,0,203.3053,220.1128Z" transform="translate(-76.7423 -76.2423)" fill="#047384"/><path d="M186.1767,211.096s16.8381-8.4219,33.4375,0C219.6142,211.096,203.5514,222.9094,186.1767,211.096Z" transform="translate(-76.7423 -76.2423)" fill="#06585b"/><g opacity="0.75"><ellipse cx="126.5628" cy="185.5982" rx="45.6712" ry="41.7371" fill="#0c8aa8"/><path d="M169.2952,233.9842s3.3382-6.2113,14.4365-12.4667c0,0,1.8834,0,2.4887-11.1656l.6054-22.6s-8.8786-3.2286,0-7.6007V152.439s-.8744-17.1519-9.08-17.6228c0,0-9.0132-1.547-1.6143-5.0446,0,0,4.7756-1.6143,14.865-1.6816h12.3763l-.0673,92.0134A46.9973,46.9973,0,0,0,169.2952,233.9842Z" transform="translate(-76.7423 -76.2423)" fill="#0c8aa8"/><path d="M236.51,233.9842s-3.3382-6.2113-14.4365-12.4667c0,0-1.8834,0-2.4888-11.1656l-.6053-22.6s8.8786-3.2286,0-7.6007V152.439s.8744-17.1519,9.08-17.6228c0,0,9.0132-1.547,1.6143-5.0446,0,0-4.7756-1.6143-14.865-1.6816H202.4331l.0673,92.0134A46.9973,46.9973,0,0,1,236.51,233.9842Z" transform="translate(-76.7423 -76.2423)" fill="#0c8aa8"/><ellipse cx="126.9462" cy="185.5982" rx="22.8356" ry="20.8686" fill="#137d8e"/><polygon points="99.389 54.247 125.786 55.144 152.932 54.247 125.691 52.565 99.389 54.247" fill="#0d6b7b"/><path d="M190.7718,124.9511V131.05h11.7061V103.5168S174.7185,106.0279,190.7718,124.9511Z" transform="translate(-76.7423 -76.2423)" fill="#137d8e"/><path d="M202.4779,103.5168V131.05H214.184v-6.0985C230.2373,106.0279,202.4779,103.5168,202.4779,103.5168Z" transform="translate(-76.7423 -76.2423)" fill="#137d8e"/></g><path d="M183.8943,272.2525s3.6042-36.8169,40.1949-19.7961c0,0-11.2862-20.3-34.23-7.2222C189.86,245.2342,174.2366,255.6563,183.8943,272.2525Z" transform="translate(-76.7423 -76.2423)" fill="#0d6b7b"/><path d="M244.6874,244.1661s7.4574,40.7182-41.3823,59.4116c0,0,26.6633,1.1507,40.3627-22.1907C243.6678,281.387,254.8663,265.3669,244.6874,244.1661Z" transform="translate(-76.7423 -76.2423)" fill="#137d8e"/><path d="M224.48,136.3475s-11.4721.7245-9.0579,44.69v30.6875s-1.0287,2.9039,6.6519,9.7929c0,0-3.17,2.5308-3.0941-33.7657,0,0,8.9393-3.2139,0-7.6007C218.98,180.1511,216.3831,140.1965,224.48,136.3475Z" transform="translate(-76.7423 -76.2423)" fill="#137d8e" opacity="0.75"/><path d="M190.7718,124.9511V131.05h11.7061V103.5168S174.7185,106.0279,190.7718,124.9511Z" transform="translate(-76.7423 -76.2423)" fill="#188692"/><path d="M202.4779,103.5168V131.05H214.184v-6.0985C230.2373,106.0279,202.4779,103.5168,202.4779,103.5168Z" transform="translate(-76.7423 -76.2423)" fill="#188692"/></svg>