<svg id="Layer_1" data-name="Layer 1" xmlns="http://www.w3.org/2000/svg" xmlns:xlink="http://www.w3.org/1999/xlink" viewBox="0 0 256.5153 256.5153"><defs><radialGradient id="radial-gradient" cx="128.2577" cy="128.2577" r="128.2577" gradientUnits="userSpaceOnUse"><stop offset="0" stop-color="#fff"/><stop offset="1" stop-color="#b4b4b5"/></radialGradient></defs><title>Friday Item 5</title><circle cx="128.2577" cy="128.2577" r="128.2577" fill="url(#radial-gradient)"/><path d="M245.3017,277.94a1.6779,1.6779,0,0,1-2.3434-.3754l-.02-.0271a1.6779,1.6779,0,0,1,.3755-2.3434l22.0926-15.9906a1.8254,1.8254,0,0,0,.4076-2.55l-.6112-.8444a1.8252,1.8252,0,0,0-2.5492-.4093l-22.0926,15.9906a1.6787,1.6787,0,0,1-2.3436-.3756l-.0194-.0269a1.6779,1.6779,0,0,1,.3753-2.3436l22.0926-15.9906a1.8254,1.8254,0,0,0,.4078-2.5495l-.6119-.8453a1.8251,1.8251,0,0,0-2.5487-.4085l-22.0926,15.9906a1.6785,1.6785,0,0,1-2.3434-.3755l-.02-.0279a1.6785,1.6785,0,0,1,.3755-2.3434l22.0926-15.9906a1.8252,1.8252,0,0,0,.4082-2.5488l-.6118-.8453a1.825,1.825,0,0,0-2.5486-.4083l-22.0926,15.9906a1.6788,1.6788,0,0,1-2.3436-.3757l-.02-.0278a1.6786,1.6786,0,0,1,.3753-2.3435l22.0926-15.9906a1.8249,1.8249,0,0,0,.4084-2.5486l-.6118-.8453a1.8251,1.8251,0,0,0-2.5487-.4085l-22.0927,15.99a1.6786,1.6786,0,0,1-2.3434-.3754l-.02-.028a1.6786,1.6786,0,0,1,.3755-2.3434l22.0926-15.9906a1.8251,1.8251,0,0,0,.4082-2.5487l-.6118-.8453a1.826,1.826,0,0,0-2.5492-.4093l-22.0926,15.9906a1.678,1.678,0,0,1-2.3436-.3756l-.0194-.0269a1.6779,1.6779,0,0,1,.3753-2.3436l22.0927-15.9906a1.8254,1.8254,0,0,0,.4077-2.5495l-.6112-.8444a1.8254,1.8254,0,0,0-2.5494-.4094l-22.0926,15.9906a1.6778,1.6778,0,0,1-2.3434-.3755l-.02-.027a1.6779,1.6779,0,0,1,.3755-2.3434l22.0926-15.9906a1.8261,1.8261,0,0,0,.4076-2.55l-.6118-.8453a1.825,1.825,0,0,0-2.5486-.4083l-22.0926,15.9906a1.6788,1.6788,0,0,1-2.3436-.3757l-.02-.0277a1.6787,1.6787,0,0,1,.3753-2.3436l22.0926-15.9906a1.8249,1.8249,0,0,0,.4084-2.5486l-.6118-.8453a1.8251,1.8251,0,0,0-2.5487-.4085l-22.0927,15.9906a1.6786,1.6786,0,0,1-2.3434-.3755l-.02-.028a1.6786,1.6786,0,0,1,.3755-2.3434l22.0926-15.9906a1.8251,1.8251,0,0,0,.4082-2.5487l-.6118-.8453a1.8251,1.8251,0,0,0-2.5486-.4084l-22.0926,15.9906a1.6786,1.6786,0,0,1-2.3435-.3756l-.02-.0278a1.6787,1.6787,0,0,1,.3753-2.3436l22.0927-15.9906a1.8251,1.8251,0,0,0,.4083-2.5486l-.6118-.8452a1.8261,1.8261,0,0,0-2.5494-.41l-22.0926,15.9906a1.6778,1.6778,0,0,1-2.3434-.3755l-.02-.027a1.6779,1.6779,0,0,1,.3755-2.3434l22.0926-15.9906a1.8254,1.8254,0,0,0,.4076-2.55l-.6111-.8444a1.8253,1.8253,0,0,0-2.5493-.4092l-22.0926,15.9906a1.6786,1.6786,0,0,1-2.3435-.3757l-.0195-.0268a1.6779,1.6779,0,0,1,.3754-2.3436l22.0926-15.9906a1.8254,1.8254,0,0,0,.4077-2.5495l-.6118-.8453a1.8251,1.8251,0,0,0-2.5487-.4085l-22.0926,15.9906a1.6787,1.6787,0,0,1-2.3435-.3755l-.02-.0279a1.6787,1.6787,0,0,1,.3755-2.3435L208.52,180.609a1.825,1.825,0,0,0,.4082-2.5487l-.6118-.8453a1.8251,1.8251,0,0,0-2.5486-.4084l-22.0926,15.9906a1.6786,1.6786,0,0,1-2.3435-.3756l-.02-.0278a1.6786,1.6786,0,0,1,.3754-2.3436L203.78,174.06a1.825,1.825,0,0,0,.4083-2.5486l-.6118-.8452a1.8252,1.8252,0,0,0-2.5487-.4086L178.935,186.2478a1.6785,1.6785,0,0,1-2.3434-.3755l-.02-.0279a1.6787,1.6787,0,0,1,.3755-2.3434L199.0394,167.51a1.8251,1.8251,0,0,0,.4083-2.5488l-.6118-.8452a1.8259,1.8259,0,0,0-2.5493-.4093L174.194,179.6977a1.6779,1.6779,0,0,1-2.3435-.3757l-.02-.0268a1.678,1.678,0,0,1,.3754-2.3436L194.299,160.961a1.8254,1.8254,0,0,0,.4077-2.55l-.6112-.8444a1.8253,1.8253,0,0,0-2.5493-.4094l-22.0926,15.9906a1.678,1.678,0,0,1-2.3435-.3755l-.0195-.027a1.6779,1.6779,0,0,1,.3755-2.3435l22.0926-15.9906a1.8261,1.8261,0,0,0,.4076-2.55l-.6118-.8453a1.825,1.825,0,0,0-2.5486-.4083l-22.0927,15.99a1.6786,1.6786,0,0,1-2.3435-.3756l-.02-.0278a1.6786,1.6786,0,0,1,.3754-2.3436l22.0926-15.9906a1.8248,1.8248,0,0,0,.4083-2.5485l-.6118-.8453a1.8251,1.8251,0,0,0-2.5487-.4086L159.9728,160.05a1.6785,1.6785,0,0,1-2.3434-.3755l-.02-.0279a1.6786,1.6786,0,0,1,.3754-2.3434l22.0927-15.9906a1.8252,1.8252,0,0,0,.4082-2.5488l-.6118-.8452a1.8249,1.8249,0,0,0-2.5486-.4084L155.2325,153.5a1.6786,1.6786,0,0,1-2.3436-.3757l-.02-.0277a1.6787,1.6787,0,0,1,.3754-2.3436l22.0926-15.9906a1.8252,1.8252,0,0,0,.4084-2.5486l-1.5853-2.19a1.8088,1.8088,0,0,0-2.0509-.6629c-5.9282,1.9993-30.8536,10.8715-36.2929,20.3792-4.88,8.5291,46.5837,76.6273,46.5837,76.6273s48.61,70.163,58.2361,68.1919c10.7311-2.1964,26.9468-23.1021,30.6987-28.1081a1.8113,1.8113,0,0,0,.01-2.1563l-1.4014-1.9362a1.8261,1.8261,0,0,0-2.5494-.4094Z" transform="translate(-76.7423 -76.2423)" fill="#0c8aa8"/></svg>